<svg version="1.1" viewBox="0.0 0.0 761.0 470.0" fill="none" stroke="none" stroke-linecap="square" stroke-miterlimit="10" width="761" height="470" xmlns:xlink="http://www.w3.org/1999/xlink" xmlns="http://www.w3.org/2000/svg"><path fill="#ffffff" d="M0 0L761.0 0L761.0 470.0L0 470.0L0 0Z" fill-rule="nonzero"/><path stroke="#333333" stroke-width="1.0" stroke-linecap="butt" d="M142.5 23.5L142.5 394.5" fill-rule="nonzero"/><path stroke="#cccccc" stroke-width="1.0" stroke-linecap="butt" d="M291.5 23.5L291.5 394.5" fill-rule="nonzero"/><path stroke="#cccccc" stroke-width="1.0" stroke-linecap="butt" d="M440.5 23.5L440.5 394.5" fill-rule="nonzero"/><path stroke="#cccccc" stroke-width="1.0" stroke-linecap="butt" d="M588.5 23.5L588.5 394.5" fill-rule="nonzero"/><path stroke="#cccccc" stroke-width="1.0" stroke-linecap="butt" d="M737.5 23.5L737.5 394.5" fill-rule="nonzero"/><clipPath id="id_0"><path d="M142.5 23.5L737.5 23.5L737.5 394.5L142.5 394.5L142.5 23.5Z" clip-rule="nonzero"/></clipPath><path stroke="#000000" stroke-width="2.0" stroke-linecap="butt" stroke-opacity="0.0" clip-path="url(#id_0)" d="M142.0 68.0L142.0 39.0L735.0 39.0C736.10455 39.0 737.0 39.89543 737.0 41.0L737.0 66.0C737.0 67.10457 736.10455 68.0 735.0 68.0Z" fill-rule="nonzero"/><path fill="#4285f4" fill-opacity="0.3019608" clip-path="url(#id_0)" d="M142.0 68.0L142.0 39.0L735.0 39.0C736.10455 39.0 737.0 39.89543 737.0 41.0L737.0 66.0C737.0 67.10457 736.10455 68.0 735.0 68.0Z" fill-rule="nonzero"/><path stroke="#000000" stroke-width="2.0" stroke-linecap="butt" stroke-opacity="0.0" clip-path="url(#id_0)" d="M142.0 113.0L142.0 84.0L587.0 84.0C588.10455 84.0 589.0 84.89543 589.0 86.0L589.0 111.0C589.0 112.10457 588.10455 113.0 587.0 113.0Z" fill-rule="nonzero"/><path fill="#4285f4" fill-opacity="0.3019608" clip-path="url(#id_0)" d="M142.0 113.0L142.0 84.0L587.0 84.0C588.10455 84.0 589.0 84.89543 589.0 86.0L589.0 111.0C589.0 112.10457 588.10455 113.0 587.0 113.0Z" fill-rule="nonzero"/><path stroke="#000000" stroke-width="2.0" stroke-linecap="butt" stroke-opacity="0.0" clip-path="url(#id_0)" d="M142.0 157.0L142.0 128.0L587.0 128.0C588.10455 128.0 589.0 128.89543 589.0 130.0L589.0 155.0C589.0 156.10457 588.10455 157.0 587.0 157.0Z" fill-rule="nonzero"/><path fill="#4285f4" fill-opacity="0.3019608" clip-path="url(#id_0)" d="M142.0 157.0L142.0 128.0L587.0 128.0C588.10455 128.0 589.0 128.89543 589.0 130.0L589.0 155.0C589.0 156.10457 588.10455 157.0 587.0 157.0Z" fill-rule="nonzero"/><path stroke="#000000" stroke-width="2.0" stroke-linecap="butt" stroke-opacity="0.0" clip-path="url(#id_0)" d="M142.0 202.0L142.0 173.0L587.0 173.0C588.10455 173.0 589.0 173.89543 589.0 175.0L589.0 200.0C589.0 201.10457 588.10455 202.0 587.0 202.0Z" fill-rule="nonzero"/><path fill="#4285f4" fill-opacity="0.3019608" clip-path="url(#id_0)" d="M142.0 202.0L142.0 173.0L587.0 173.0C588.10455 173.0 589.0 173.89543 589.0 175.0L589.0 200.0C589.0 201.10457 588.10455 202.0 587.0 202.0Z" fill-rule="nonzero"/><path stroke="#000000" stroke-width="2.0" stroke-linecap="butt" stroke-opacity="0.0" clip-path="url(#id_0)" d="M142.0 246.0L142.0 217.0L438.0 217.0C439.10458 217.0 440.0 217.89543 440.0 219.0L440.0 244.0C440.0 245.10457 439.10458 246.0 438.0 246.0Z" fill-rule="nonzero"/><path fill="#4285f4" fill-opacity="0.3019608" clip-path="url(#id_0)" d="M142.0 246.0L142.0 217.0L438.0 217.0C439.10458 217.0 440.0 217.89543 440.0 219.0L440.0 244.0C440.0 245.10457 439.10458 246.0 438.0 246.0Z" fill-rule="nonzero"/><path stroke="#000000" stroke-width="2.0" stroke-linecap="butt" stroke-opacity="0.0" clip-path="url(#id_0)" d="M142.0 291.0L142.0 262.0L438.0 262.0C439.10458 262.0 440.0 262.89542 440.0 264.0L440.0 289.0C440.0 290.10458 439.10458 291.0 438.0 291.0Z" fill-rule="nonzero"/><path fill="#4285f4" fill-opacity="0.3019608" clip-path="url(#id_0)" d="M142.0 291.0L142.0 262.0L438.0 262.0C439.10458 262.0 440.0 262.89542 440.0 264.0L440.0 289.0C440.0 290.10458 439.10458 291.0 438.0 291.0Z" fill-rule="nonzero"/><path stroke="#000000" stroke-width="2.0" stroke-linecap="butt" stroke-opacity="0.0" clip-path="url(#id_0)" d="M142.0 335.0L142.0 306.0L438.0 306.0C439.10458 306.0 440.0 306.89542 440.0 308.0L440.0 333.0C440.0 334.10458 439.10458 335.0 438.0 335.0Z" fill-rule="nonzero"/><path fill="#4285f4" fill-opacity="0.3019608" clip-path="url(#id_0)" d="M142.0 335.0L142.0 306.0L438.0 306.0C439.10458 306.0 440.0 306.89542 440.0 308.0L440.0 333.0C440.0 334.10458 439.10458 335.0 438.0 335.0Z" fill-rule="nonzero"/><path stroke="#000000" stroke-width="2.0" stroke-linecap="butt" stroke-opacity="0.0" clip-path="url(#id_0)" d="M142.0 380.0L142.0 351.0L438.0 351.0C439.10458 351.0 440.0 351.89542 440.0 353.0L440.0 378.0C440.0 379.10458 439.10458 380.0 438.0 380.0Z" fill-rule="nonzero"/><path fill="#4285f4" fill-opacity="0.3019608" clip-path="url(#id_0)" d="M142.0 380.0L142.0 351.0L438.0 351.0C439.10458 351.0 440.0 351.89542 440.0 353.0L440.0 378.0C440.0 379.10458 439.10458 380.0 438.0 380.0Z" fill-rule="nonzero"/><path fill="#000000" d="M437.29688 443.5L437.29688 437.28125L438.23438 437.28125L438.23438 438.15625Q438.92188 437.14062 440.21875 437.14062Q440.78125 437.14062 441.25 437.34375Q441.73438 437.54688 441.96875 437.875Q442.20312 438.20312 442.29688 438.64062Q442.34375 438.9375 442.34375 439.67188L442.34375 443.5L441.29688 443.5L441.29688 439.71875Q441.29688 439.0625 441.17188 438.75Q441.04688 438.4375 440.73438 438.25Q440.42188 438.04688 440.0 438.04688Q439.32812 438.04688 438.82812 438.48438Q438.34375 438.90625 438.34375 440.09375L438.34375 443.5L437.29688 443.5Z" fill-rule="nonzero"/><path fill="#000000" d="M97.265625 57.491016L96.28125 57.491016L96.28125 48.897266L97.34375 48.897266L97.34375 51.959766Q98.015625 51.13164 99.046875 51.13164Q99.625 51.13164 100.125 51.366016Q100.640625 51.584766 100.96875 52.00664Q101.3125 52.428516 101.5 53.022266Q101.6875 53.616016 101.6875 54.28789Q101.6875 55.88164 100.890625 56.75664Q100.09375 57.63164 99.0 57.63164Q97.890625 57.63164 97.265625 56.709766L97.265625 57.491016ZM97.25 54.334766Q97.25 55.44414 97.5625 55.94414Q98.0625 56.75664 98.90625 56.75664Q99.59375 56.75664 100.09375 56.16289Q100.609375 55.56914 100.609375 54.366016Q100.609375 53.147266 100.125 52.56914Q99.640625 51.991016 98.953125 51.991016Q98.265625 51.991016 97.75 52.60039Q97.25 53.19414 97.25 54.334766ZM103.265625 57.491016L103.265625 48.897266L104.328125 48.897266L104.328125 57.491016L103.265625 57.491016ZM110.359375 56.72539Q109.765625 57.22539 109.21875 57.428516Q108.6875 57.63164 108.0625 57.63164Q107.03125 57.63164 106.484375 57.13164Q105.9375 56.63164 105.9375 55.85039Q105.9375 55.397266 106.140625 55.022266Q106.34375 54.63164 106.6875 54.41289Q107.03125 54.178516 107.453125 54.06914Q107.75 53.97539 108.390625 53.897266Q109.65625 53.75664 110.265625 53.53789Q110.265625 53.31914 110.265625 53.272266Q110.265625 52.616016 109.96875 52.35039Q109.5625 52.00664 108.765625 52.00664Q108.03125 52.00664 107.671875 52.272266Q107.3125 52.522266 107.140625 53.178516L106.109375 53.03789Q106.25 52.38164 106.578125 51.97539Q106.90625 51.56914 107.515625 51.35039Q108.125 51.13164 108.921875 51.13164Q109.71875 51.13164 110.21875 51.31914Q110.71875 51.50664 110.953125 51.78789Q111.1875 52.06914 111.28125 52.50664Q111.328125 52.772266 111.328125 53.47539L111.328125 54.88164Q111.328125 56.35039 111.390625 56.741016Q111.46875 57.13164 111.671875 57.491016L110.5625 57.491016Q110.40625 57.16289 110.359375 56.72539ZM110.265625 54.366016Q109.6875 54.60039 108.546875 54.772266Q107.890625 54.866016 107.625 54.991016Q107.359375 55.10039 107.203125 55.31914Q107.0625 55.53789 107.0625 55.81914Q107.0625 56.241016 107.375 56.522266Q107.703125 56.803516 108.3125 56.803516Q108.921875 56.803516 109.390625 56.53789Q109.875 56.272266 110.09375 55.803516Q110.265625 55.44414 110.265625 54.75664L110.265625 54.366016ZM112.3125 59.88164L112.3125 59.116016L119.3125 59.116016L119.3125 59.88164L112.3125 59.88164ZM121.265625 57.491016L120.28125 57.491016L120.28125 48.897266L121.34375 48.897266L121.34375 51.959766Q122.015625 51.13164 123.046875 51.13164Q123.625 51.13164 124.125 51.366016Q124.640625 51.584766 124.96875 52.00664Q125.3125 52.428516 125.5 53.022266Q125.6875 53.616016 125.6875 54.28789Q125.6875 55.88164 124.890625 56.75664Q124.09375 57.63164 123.0 57.63164Q121.890625 57.63164 121.265625 56.709766L121.265625 57.491016ZM121.25 54.334766Q121.25 55.44414 121.5625 55.94414Q122.0625 56.75664 122.90625 56.75664Q123.59375 56.75664 124.09375 56.16289Q124.609375 55.56914 124.609375 54.366016Q124.609375 53.147266 124.125 52.56914Q123.640625 51.991016 122.953125 51.991016Q122.265625 51.991016 121.75 52.60039Q121.25 53.19414 121.25 54.334766ZM127.265625 57.491016L127.265625 48.897266L128.32812 48.897266L128.32812 57.491016L127.265625 57.491016ZM134.35938 56.72539Q133.76562 57.22539 133.21875 57.428516Q132.6875 57.63164 132.0625 57.63164Q131.03125 57.63164 130.48438 57.13164Q129.9375 56.63164 129.9375 55.85039Q129.9375 55.397266 130.14062 55.022266Q130.34375 54.63164 130.6875 54.41289Q131.03125 54.178516 131.45312 54.06914Q131.75 53.97539 132.39062 53.897266Q133.65625 53.75664 134.26562 53.53789Q134.26562 53.31914 134.26562 53.272266Q134.26562 52.616016 133.96875 52.35039Q133.5625 52.00664 132.76562 52.00664Q132.03125 52.00664 131.67188 52.272266Q131.3125 52.522266 131.14062 53.178516L130.10938 53.03789Q130.25 52.38164 130.57812 51.97539Q130.90625 51.56914 131.51562 51.35039Q132.125 51.13164 132.92188 51.13164Q133.71875 51.13164 134.21875 51.31914Q134.71875 51.50664 134.95312 51.78789Q135.1875 52.06914 135.28125 52.50664Q135.32812 52.772266 135.32812 53.47539L135.32812 54.88164Q135.32812 56.35039 135.39062 56.741016Q135.46875 57.13164 135.67188 57.491016L134.5625 57.491016Q134.40625 57.16289 134.35938 56.72539ZM134.26562 54.366016Q133.6875 54.60039 132.54688 54.772266Q131.89062 54.866016 131.625 54.991016Q131.35938 55.10039 131.20312 55.31914Q131.0625 55.53789 131.0625 55.81914Q131.0625 56.241016 131.375 56.522266Q131.70312 56.803516 132.3125 56.803516Q132.92188 56.803516 133.39062 56.53789Q133.875 56.272266 134.09375 55.803516Q134.26562 55.44414 134.26562 54.75664L134.26562 54.366016Z" fill-rule="nonzero"/><path fill="#000000" d="M54.265625 101.92216L53.28125 101.92216L53.28125 93.32841L54.34375 93.32841L54.34375 96.39091Q55.015625 95.56278 56.046875 95.56278Q56.625 95.56278 57.125 95.79716Q57.640625 96.01591 57.96875 96.43778Q58.3125 96.85966 58.5 97.45341Q58.6875 98.04716 58.6875 98.71903Q58.6875 100.31278 57.890625 101.18778Q57.09375 102.06278 56.0 102.06278Q54.890625 102.06278 54.265625 101.14091L54.265625 101.92216ZM54.25 98.76591Q54.25 99.87528 54.5625 100.37528Q55.0625 101.18778 55.90625 101.18778Q56.59375 101.18778 57.09375 100.59403Q57.609375 100.00028 57.609375 98.79716Q57.609375 97.57841 57.125 97.00028Q56.640625 96.42216 55.953125 96.42216Q55.265625 96.42216 54.75 97.03153Q54.25 97.62528 54.25 98.76591ZM60.28125 101.92216L60.28125 95.70341L61.234375 95.70341L61.234375 96.64091Q61.59375 95.98466 61.890625 95.78153Q62.203125 95.56278 62.578125 95.56278Q63.109375 95.56278 63.65625 95.89091L63.296875 96.87528Q62.90625 96.64091 62.53125 96.64091Q62.171875 96.64091 61.890625 96.85966Q61.625 97.06278 61.515625 97.43778Q61.328125 98.00028 61.328125 98.65653L61.328125 101.92216L60.28125 101.92216ZM63.90625 98.81278Q63.90625 97.07841 64.859375 96.25028Q65.65625 95.56278 66.8125 95.56278Q68.09375 95.56278 68.90625 96.40653Q69.734375 97.23466 69.734375 98.71903Q69.734375 99.92216 69.375 100.60966Q69.015625 101.29716 68.3125 101.68778Q67.625 102.06278 66.8125 102.06278Q65.515625 102.06278 64.703125 101.23466Q63.90625 100.39091 63.90625 98.81278ZM64.984375 98.81278Q64.984375 100.00028 65.5 100.59403Q66.03125 101.18778 66.8125 101.18778Q67.609375 101.18778 68.125 100.59403Q68.640625 100.00028 68.640625 98.78153Q68.640625 97.62528 68.109375 97.03153Q67.59375 96.43778 66.8125 96.43778Q66.03125 96.43778 65.5 97.03153Q64.984375 97.60966 64.984375 98.81278ZM73.59375 100.98466L73.75 101.90653Q73.296875 102.00028 72.953125 102.00028Q72.375 102.00028 72.0625 101.82841Q71.75 101.64091 71.609375 101.34403Q71.484375 101.04716 71.484375 100.09403L71.484375 96.51591L70.71875 96.51591L70.71875 95.70341L71.484375 95.70341L71.484375 94.15653L72.53125 93.53153L72.53125 95.70341L73.59375 95.70341L73.59375 96.51591L72.53125 96.51591L72.53125 100.15653Q72.53125 100.60966 72.578125 100.73466Q72.640625 100.85966 72.765625 100.93778Q72.890625 101.01591 73.125 101.01591Q73.3125 101.01591 73.59375 100.98466ZM78.546875 99.92216L79.640625 100.04716Q79.390625 101.00028 78.6875 101.53153Q77.984375 102.06278 76.90625 102.06278Q75.546875 102.06278 74.734375 101.21903Q73.9375 100.37528 73.9375 98.85966Q73.9375 97.29716 74.75 96.43778Q75.5625 95.56278 76.84375 95.56278Q78.09375 95.56278 78.875 96.40653Q79.671875 97.25028 79.671875 98.79716Q79.671875 98.89091 79.671875 99.07841L75.03125 99.07841Q75.09375 100.10966 75.609375 100.65653Q76.125 101.18778 76.90625 101.18778Q77.484375 101.18778 77.890625 100.89091Q78.3125 100.57841 78.546875 99.92216ZM75.09375 98.21903L78.5625 98.21903Q78.5 97.42216 78.171875 97.03153Q77.65625 96.42216 76.859375 96.42216Q76.125 96.42216 75.625 96.90653Q75.140625 97.39091 75.09375 98.21903ZM80.3125 104.31278L80.3125 103.54716L87.3125 103.54716L87.3125 104.31278L80.3125 104.31278ZM88.296875 104.31278L88.296875 95.70341L89.25 95.70341L89.25 96.50028Q89.59375 96.03153 90.015625 95.79716Q90.453125 95.56278 91.0625 95.56278Q91.859375 95.56278 92.46875 95.96903Q93.078125 96.37528 93.375 97.12528Q93.6875 97.87528 93.6875 98.76591Q93.6875 99.71903 93.34375 100.48466Q93.015625 101.25028 92.359375 101.65653Q91.703125 102.06278 90.984375 102.06278Q90.453125 102.06278 90.03125 101.84403Q89.609375 101.60966 89.34375 101.28153L89.34375 104.31278L88.296875 104.31278ZM89.25 98.84403Q89.25 100.04716 89.734375 100.62528Q90.21875 101.18778 90.90625 101.18778Q91.609375 101.18778 92.109375 100.59403Q92.609375 100.00028 92.609375 98.75028Q92.609375 97.56278 92.125 96.98466Q91.640625 96.39091 90.953125 96.39091Q90.28125 96.39091 89.765625 97.01591Q89.25 97.64091 89.25 98.84403ZM94.875 100.06278L95.90625 99.90653Q96.0 100.53153 96.390625 100.85966Q96.796875 101.18778 97.53125 101.18778Q98.25 101.18778 98.59375 100.90653Q98.953125 100.60966 98.953125 100.20341Q98.953125 99.84403 98.640625 99.64091Q98.421875 99.50028 97.5625 99.28153Q96.40625 98.98466 95.953125 98.78153Q95.515625 98.56278 95.28125 98.18778Q95.046875 97.81278 95.046875 97.34403Q95.046875 96.93778 95.234375 96.57841Q95.421875 96.21903 95.75 95.98466Q96.0 95.81278 96.421875 95.68778Q96.84375 95.56278 97.34375 95.56278Q98.0625 95.56278 98.609375 95.78153Q99.171875 95.98466 99.4375 96.34403Q99.703125 96.70341 99.796875 97.29716L98.765625 97.43778Q98.703125 96.96903 98.359375 96.70341Q98.03125 96.42216 97.40625 96.42216Q96.6875 96.42216 96.375 96.67216Q96.0625 96.90653 96.0625 97.23466Q96.0625 97.43778 96.1875 97.59403Q96.328125 97.76591 96.59375 97.87528Q96.75 97.93778 97.53125 98.14091Q98.65625 98.45341 99.09375 98.64091Q99.53125 98.82841 99.78125 99.18778Q100.03125 99.54716 100.03125 100.09403Q100.03125 100.62528 99.71875 101.09403Q99.421875 101.54716 98.84375 101.81278Q98.265625 102.06278 97.53125 102.06278Q96.3125 102.06278 95.671875 101.56278Q95.046875 101.04716 94.875 100.06278ZM102.296875 94.54716L102.296875 93.32841L103.359375 93.32841L103.359375 94.54716L102.296875 94.54716ZM102.296875 101.92216L102.296875 95.70341L103.359375 95.70341L103.359375 101.92216L102.296875 101.92216ZM109.359375 99.64091L110.390625 99.78153Q110.21875 100.84403 109.515625 101.45341Q108.8125 102.06278 107.796875 102.06278Q106.515625 102.06278 105.734375 101.23466Q104.96875 100.39091 104.96875 98.82841Q104.96875 97.82841 105.296875 97.07841Q105.640625 96.31278 106.3125 95.93778Q107.0 95.56278 107.8125 95.56278Q108.8125 95.56278 109.453125 96.07841Q110.109375 96.57841 110.296875 97.53153L109.265625 97.68778Q109.125 97.06278 108.75 96.75028Q108.375 96.42216 107.84375 96.42216Q107.046875 96.42216 106.546875 97.00028Q106.046875 97.56278 106.046875 98.79716Q106.046875 100.06278 106.53125 100.62528Q107.015625 101.18778 107.78125 101.18778Q108.40625 101.18778 108.8125 100.81278Q109.234375 100.43778 109.359375 99.64091ZM110.90625 98.81278Q110.90625 97.07841 111.859375 96.25028Q112.65625 95.56278 113.8125 95.56278Q115.09375 95.56278 115.90625 96.40653Q116.734375 97.23466 116.734375 98.71903Q116.734375 99.92216 116.375 100.60966Q116.015625 101.29716 115.3125 101.68778Q114.625 102.06278 113.8125 102.06278Q112.515625 102.06278 111.703125 101.23466Q110.90625 100.39091 110.90625 98.81278ZM111.984375 98.81278Q111.984375 100.00028 112.5 100.59403Q113.03125 101.18778 113.8125 101.18778Q114.609375 101.18778 115.125 100.59403Q115.640625 100.00028 115.640625 98.78153Q115.640625 97.62528 115.109375 97.03153Q114.59375 96.43778 113.8125 96.43778Q113.03125 96.43778 112.5 97.03153Q111.984375 97.60966 111.984375 98.81278ZM113.234375 94.92216L114.015625 93.28153L115.40625 93.28153L114.109375 94.92216L113.234375 94.92216ZM120.59375 100.98466L120.75 101.90653Q120.296875 102.00028 119.953125 102.00028Q119.375 102.00028 119.0625 101.82841Q118.75 101.64091 118.609375 101.34403Q118.484375 101.04716 118.484375 100.09403L118.484375 96.51591L117.71875 96.51591L117.71875 95.70341L118.484375 95.70341L118.484375 94.15653L119.53125 93.53153L119.53125 95.70341L120.59375 95.70341L120.59375 96.51591L119.53125 96.51591L119.53125 100.15653Q119.53125 100.60966 119.578125 100.73466Q119.640625 100.85966 119.765625 100.93778Q119.890625 101.01591 120.125 101.01591Q120.3125 101.01591 120.59375 100.98466ZM121.296875 94.54716L121.296875 93.32841L122.359375 93.32841L122.359375 94.54716L121.296875 94.54716ZM121.296875 101.92216L121.296875 95.70341L122.359375 95.70341L122.359375 101.92216L121.296875 101.92216ZM128.35938 99.64091L129.39062 99.78153Q129.21875 100.84403 128.51562 101.45341Q127.8125 102.06278 126.796875 102.06278Q125.515625 102.06278 124.734375 101.23466Q123.96875 100.39091 123.96875 98.82841Q123.96875 97.82841 124.296875 97.07841Q124.640625 96.31278 125.3125 95.93778Q126.0 95.56278 126.8125 95.56278Q127.8125 95.56278 128.45312 96.07841Q129.10938 96.57841 129.29688 97.53153L128.26562 97.68778Q128.125 97.06278 127.75 96.75028Q127.375 96.42216 126.84375 96.42216Q126.046875 96.42216 125.546875 97.00028Q125.046875 97.56278 125.046875 98.79716Q125.046875 100.06278 125.53125 100.62528Q126.015625 101.18778 126.78125 101.18778Q127.40625 101.18778 127.8125 100.81278Q128.23438 100.43778 128.35938 99.64091ZM129.90625 98.81278Q129.90625 97.07841 130.85938 96.25028Q131.65625 95.56278 132.8125 95.56278Q134.09375 95.56278 134.90625 96.40653Q135.73438 97.23466 135.73438 98.71903Q135.73438 99.92216 135.375 100.60966Q135.01562 101.29716 134.3125 101.68778Q133.625 102.06278 132.8125 102.06278Q131.51562 102.06278 130.70312 101.23466Q129.90625 100.39091 129.90625 98.81278ZM130.98438 98.81278Q130.98438 100.00028 131.5 100.59403Q132.03125 101.18778 132.8125 101.18778Q133.60938 101.18778 134.125 100.59403Q134.64062 100.00028 134.64062 98.78153Q134.64062 97.62528 134.10938 97.03153Q133.59375 96.43778 132.8125 96.43778Q132.03125 96.43778 131.5 97.03153Q130.98438 97.60966 130.98438 98.81278Z" fill-rule="nonzero"/><path fill="#000000" d="M29.328125 146.35329L29.328125 145.57204Q28.734375 146.49391 27.59375 146.49391Q26.84375 146.49391 26.21875 146.08766Q25.59375 145.66579 25.25 144.93141Q24.90625 144.19704 24.90625 143.24391Q24.90625 142.32204 25.21875 141.55641Q25.53125 140.79079 26.15625 140.40016Q26.78125 139.99391 27.546875 139.99391Q28.109375 139.99391 28.546875 140.22829Q28.984375 140.46266 29.265625 140.83766L29.265625 137.75954L30.3125 137.75954L30.3125 146.35329L29.328125 146.35329ZM26.0 143.24391Q26.0 144.44704 26.5 145.04079Q27.0 145.61891 27.6875 145.61891Q28.375 145.61891 28.859375 145.05641Q29.34375 144.49391 29.34375 143.33766Q29.34375 142.05641 28.84375 141.46266Q28.359375 140.86891 27.640625 140.86891Q26.9375 140.86891 26.46875 141.44704Q26.0 142.00954 26.0 143.24391ZM36.546875 144.35329L37.640625 144.47829Q37.390625 145.43141 36.6875 145.96266Q35.984375 146.49391 34.90625 146.49391Q33.546875 146.49391 32.734375 145.65016Q31.9375 144.80641 31.9375 143.29079Q31.9375 141.72829 32.75 140.86891Q33.5625 139.99391 34.84375 139.99391Q36.09375 139.99391 36.875 140.83766Q37.671875 141.68141 37.671875 143.22829Q37.671875 143.32204 37.671875 143.50954L33.03125 143.50954Q33.09375 144.54079 33.609375 145.08766Q34.125 145.61891 34.90625 145.61891Q35.484375 145.61891 35.890625 145.32204Q36.3125 145.00954 36.546875 144.35329ZM33.09375 142.65016L36.5625 142.65016Q36.5 141.85329 36.171875 141.46266Q35.65625 140.85329 34.859375 140.85329Q34.125 140.85329 33.625 141.33766Q33.140625 141.82204 33.09375 142.65016ZM39.28125 146.35329L39.28125 140.13454L40.234375 140.13454L40.234375 141.07204Q40.59375 140.41579 40.890625 140.21266Q41.203125 139.99391 41.578125 139.99391Q42.109375 139.99391 42.65625 140.32204L42.296875 141.30641Q41.90625 141.07204 41.53125 141.07204Q41.171875 141.07204 40.890625 141.29079Q40.625 141.49391 40.515625 141.86891Q40.328125 142.43141 40.328125 143.08766L40.328125 146.35329L39.28125 146.35329ZM47.546875 144.35329L48.640625 144.47829Q48.390625 145.43141 47.6875 145.96266Q46.984375 146.49391 45.90625 146.49391Q44.546875 146.49391 43.734375 145.65016Q42.9375 144.80641 42.9375 143.29079Q42.9375 141.72829 43.75 140.86891Q44.5625 139.99391 45.84375 139.99391Q47.09375 139.99391 47.875 140.83766Q48.671875 141.68141 48.671875 143.22829Q48.671875 143.32204 48.671875 143.50954L44.03125 143.50954Q44.09375 144.54079 44.609375 145.08766Q45.125 145.61891 45.90625 145.61891Q46.484375 145.61891 46.890625 145.32204Q47.3125 145.00954 47.546875 144.35329ZM44.09375 142.65016L47.5625 142.65016Q47.5 141.85329 47.171875 141.46266Q46.65625 140.85329 45.859375 140.85329Q45.125 140.85329 44.625 141.33766Q44.140625 141.82204 44.09375 142.65016ZM54.359375 144.07204L55.390625 144.21266Q55.21875 145.27516 54.515625 145.88454Q53.8125 146.49391 52.796875 146.49391Q51.515625 146.49391 50.734375 145.66579Q49.96875 144.82204 49.96875 143.25954Q49.96875 142.25954 50.296875 141.50954Q50.640625 140.74391 51.3125 140.36891Q52.0 139.99391 52.8125 139.99391Q53.8125 139.99391 54.453125 140.50954Q55.109375 141.00954 55.296875 141.96266L54.265625 142.11891Q54.125 141.49391 53.75 141.18141Q53.375 140.85329 52.84375 140.85329Q52.046875 140.85329 51.546875 141.43141Q51.046875 141.99391 51.046875 143.22829Q51.046875 144.49391 51.53125 145.05641Q52.015625 145.61891 52.78125 145.61891Q53.40625 145.61891 53.8125 145.24391Q54.234375 144.86891 54.359375 144.07204ZM56.296875 146.35329L56.296875 137.75954L57.34375 137.75954L57.34375 140.83766Q58.078125 139.99391 59.203125 139.99391Q59.90625 139.99391 60.40625 140.27516Q60.921875 140.54079 61.140625 141.02516Q61.359375 141.49391 61.359375 142.41579L61.359375 146.35329L60.3125 146.35329L60.3125 142.41579Q60.3125 141.61891 59.96875 141.25954Q59.625 140.90016 59.0 140.90016Q58.53125 140.90016 58.109375 141.15016Q57.703125 141.38454 57.515625 141.80641Q57.34375 142.21266 57.34375 142.94704L57.34375 146.35329L56.296875 146.35329ZM62.90625 143.24391Q62.90625 141.50954 63.859375 140.68141Q64.65625 139.99391 65.8125 139.99391Q67.09375 139.99391 67.90625 140.83766Q68.734375 141.66579 68.734375 143.15016Q68.734375 144.35329 68.375 145.04079Q68.015625 145.72829 67.3125 146.11891Q66.625 146.49391 65.8125 146.49391Q64.515625 146.49391 63.703125 145.66579Q62.90625 144.82204 62.90625 143.24391ZM63.984375 143.24391Q63.984375 144.43141 64.5 145.02516Q65.03125 145.61891 65.8125 145.61891Q66.609375 145.61891 67.125 145.02516Q67.640625 144.43141 67.640625 143.21266Q67.640625 142.05641 67.109375 141.46266Q66.59375 140.86891 65.8125 140.86891Q65.03125 140.86891 64.5 141.46266Q63.984375 142.04079 63.984375 143.24391ZM69.875 144.49391L70.90625 144.33766Q71.0 144.96266 71.390625 145.29079Q71.796875 145.61891 72.53125 145.61891Q73.25 145.61891 73.59375 145.33766Q73.953125 145.04079 73.953125 144.63454Q73.953125 144.27516 73.640625 144.07204Q73.421875 143.93141 72.5625 143.71266Q71.40625 143.41579 70.953125 143.21266Q70.515625 142.99391 70.28125 142.61891Q70.046875 142.24391 70.046875 141.77516Q70.046875 141.36891 70.234375 141.00954Q70.421875 140.65016 70.75 140.41579Q71.0 140.24391 71.421875 140.11891Q71.84375 139.99391 72.34375 139.99391Q73.0625 139.99391 73.609375 140.21266Q74.171875 140.41579 74.4375 140.77516Q74.703125 141.13454 74.796875 141.72829L73.765625 141.86891Q73.703125 141.40016 73.359375 141.13454Q73.03125 140.85329 72.40625 140.85329Q71.6875 140.85329 71.375 141.10329Q71.0625 141.33766 71.0625 141.66579Q71.0625 141.86891 71.1875 142.02516Q71.328125 142.19704 71.59375 142.30641Q71.75 142.36891 72.53125 142.57204Q73.65625 142.88454 74.09375 143.07204Q74.53125 143.25954 74.78125 143.61891Q75.03125 143.97829 75.03125 144.52516Q75.03125 145.05641 74.71875 145.52516Q74.421875 145.97829 73.84375 146.24391Q73.265625 146.49391 72.53125 146.49391Q71.3125 146.49391 70.671875 145.99391Q70.046875 145.47829 69.875 144.49391ZM76.3125 148.74391L76.3125 147.97829L83.3125 147.97829L83.3125 148.74391L76.3125 148.74391ZM84.296875 146.35329L84.296875 137.75954L85.34375 137.75954L85.34375 140.83766Q86.078125 139.99391 87.203125 139.99391Q87.90625 139.99391 88.40625 140.27516Q88.921875 140.54079 89.140625 141.02516Q89.359375 141.49391 89.359375 142.41579L89.359375 146.35329L88.3125 146.35329L88.3125 142.41579Q88.3125 141.61891 87.96875 141.25954Q87.625 140.90016 87.0 140.90016Q86.53125 140.90016 86.109375 141.15016Q85.703125 141.38454 85.515625 141.80641Q85.34375 142.21266 85.34375 142.94704L85.34375 146.35329L84.296875 146.35329ZM95.375 146.35329L95.375 145.43141Q94.640625 146.49391 93.390625 146.49391Q92.84375 146.49391 92.359375 146.29079Q91.890625 146.07204 91.65625 145.75954Q91.421875 145.43141 91.328125 144.96266Q91.265625 144.66579 91.265625 143.97829L91.265625 140.13454L92.328125 140.13454L92.328125 143.58766Q92.328125 144.40016 92.390625 144.69704Q92.484375 145.10329 92.796875 145.35329Q93.125 145.58766 93.609375 145.58766Q94.078125 145.58766 94.484375 145.35329Q94.90625 145.10329 95.078125 144.68141Q95.265625 144.25954 95.265625 143.46266L95.265625 140.13454L96.3125 140.13454L96.3125 146.35329L95.375 146.35329ZM98.296875 146.35329L98.296875 140.13454L99.234375 140.13454L99.234375 141.00954Q99.53125 140.54079 100.015625 140.27516Q100.5 139.99391 101.125 139.99391Q101.8125 139.99391 102.25 140.27516Q102.703125 140.55641 102.875 141.07204Q103.625 139.99391 104.796875 139.99391Q105.734375 139.99391 106.21875 140.50954Q106.71875 141.00954 106.71875 142.08766L106.71875 146.35329L105.671875 146.35329L105.671875 142.43141Q105.671875 141.80641 105.5625 141.52516Q105.46875 141.24391 105.203125 141.07204Q104.9375 140.90016 104.5625 140.90016Q103.90625 140.90016 103.46875 141.33766Q103.046875 141.77516 103.046875 142.74391L103.046875 146.35329L101.984375 146.35329L101.984375 142.30641Q101.984375 141.60329 101.71875 141.25954Q101.46875 140.90016 100.890625 140.90016Q100.4375 140.90016 100.0625 141.13454Q99.6875 141.36891 99.515625 141.82204Q99.34375 142.27516 99.34375 143.11891L99.34375 146.35329L98.296875 146.35329ZM113.359375 145.58766Q112.765625 146.08766 112.21875 146.29079Q111.6875 146.49391 111.0625 146.49391Q110.03125 146.49391 109.484375 145.99391Q108.9375 145.49391 108.9375 144.71266Q108.9375 144.25954 109.140625 143.88454Q109.34375 143.49391 109.6875 143.27516Q110.03125 143.04079 110.453125 142.93141Q110.75 142.83766 111.390625 142.75954Q112.65625 142.61891 113.265625 142.40016Q113.265625 142.18141 113.265625 142.13454Q113.265625 141.47829 112.96875 141.21266Q112.5625 140.86891 111.765625 140.86891Q111.03125 140.86891 110.671875 141.13454Q110.3125 141.38454 110.140625 142.04079L109.109375 141.90016Q109.25 141.24391 109.578125 140.83766Q109.90625 140.43141 110.515625 140.21266Q111.125 139.99391 111.921875 139.99391Q112.71875 139.99391 113.21875 140.18141Q113.71875 140.36891 113.953125 140.65016Q114.1875 140.93141 114.28125 141.36891Q114.328125 141.63454 114.328125 142.33766L114.328125 143.74391Q114.328125 145.21266 114.390625 145.60329Q114.46875 145.99391 114.671875 146.35329L113.5625 146.35329Q113.40625 146.02516 113.359375 145.58766ZM113.265625 143.22829Q112.6875 143.46266 111.546875 143.63454Q110.890625 143.72829 110.625 143.85329Q110.359375 143.96266 110.203125 144.18141Q110.0625 144.40016 110.0625 144.68141Q110.0625 145.10329 110.375 145.38454Q110.703125 145.66579 111.3125 145.66579Q111.921875 145.66579 112.390625 145.40016Q112.875 145.13454 113.09375 144.66579Q113.265625 144.30641 113.265625 143.61891L113.265625 143.22829ZM116.296875 146.35329L116.296875 140.13454L117.234375 140.13454L117.234375 141.00954Q117.921875 139.99391 119.21875 139.99391Q119.78125 139.99391 120.25 140.19704Q120.734375 140.40016 120.96875 140.72829Q121.203125 141.05641 121.296875 141.49391Q121.34375 141.79079 121.34375 142.52516L121.34375 146.35329L120.296875 146.35329L120.296875 142.57204Q120.296875 141.91579 120.171875 141.60329Q120.046875 141.29079 119.734375 141.10329Q119.421875 140.90016 119.0 140.90016Q118.328125 140.90016 117.828125 141.33766Q117.34375 141.75954 117.34375 142.94704L117.34375 146.35329L116.296875 146.35329ZM122.90625 143.24391Q122.90625 141.50954 123.859375 140.68141Q124.65625 139.99391 125.8125 139.99391Q127.09375 139.99391 127.90625 140.83766Q128.73438 141.66579 128.73438 143.15016Q128.73438 144.35329 128.375 145.04079Q128.01562 145.72829 127.3125 146.11891Q126.625 146.49391 125.8125 146.49391Q124.515625 146.49391 123.703125 145.66579Q122.90625 144.82204 122.90625 143.24391ZM123.984375 143.24391Q123.984375 144.43141 124.5 145.02516Q125.03125 145.61891 125.8125 145.61891Q126.609375 145.61891 127.125 145.02516Q127.640625 144.43141 127.640625 143.21266Q127.640625 142.05641 127.109375 141.46266Q126.59375 140.86891 125.8125 140.86891Q125.03125 140.86891 124.5 141.46266Q123.984375 142.04079 123.984375 143.24391ZM129.875 144.49391L130.90625 144.33766Q131.0 144.96266 131.39062 145.29079Q131.79688 145.61891 132.53125 145.61891Q133.25 145.61891 133.59375 145.33766Q133.95312 145.04079 133.95312 144.63454Q133.95312 144.27516 133.64062 144.07204Q133.42188 143.93141 132.5625 143.71266Q131.40625 143.41579 130.95312 143.21266Q130.51562 142.99391 130.28125 142.61891Q130.04688 142.24391 130.04688 141.77516Q130.04688 141.36891 130.23438 141.00954Q130.42188 140.65016 130.75 140.41579Q131.0 140.24391 131.42188 140.11891Q131.84375 139.99391 132.34375 139.99391Q133.0625 139.99391 133.60938 140.21266Q134.17188 140.41579 134.4375 140.77516Q134.70312 141.13454 134.79688 141.72829L133.76562 141.86891Q133.70312 141.40016 133.35938 141.13454Q133.03125 140.85329 132.40625 140.85329Q131.6875 140.85329 131.375 141.10329Q131.0625 141.33766 131.0625 141.66579Q131.0625 141.86891 131.1875 142.02516Q131.32812 142.19704 131.59375 142.30641Q131.75 142.36891 132.53125 142.57204Q133.65625 142.88454 134.09375 143.07204Q134.53125 143.25954 134.78125 143.61891Q135.03125 143.97829 135.03125 144.52516Q135.03125 145.05641 134.71875 145.52516Q134.42188 145.97829 133.84375 146.24391Q133.26562 146.49391 132.53125 146.49391Q131.3125 146.49391 130.67188 145.99391Q130.04688 145.47829 129.875 144.49391Z" fill-rule="nonzero"/><path fill="#000000" d="M60.875 188.92505L61.90625 188.7688Q62.0 189.3938 62.390625 189.72192Q62.796875 190.05005 63.53125 190.05005Q64.25 190.05005 64.59375 189.7688Q64.953125 189.47192 64.953125 189.06567Q64.953125 188.7063 64.640625 188.50317Q64.421875 188.36255 63.5625 188.1438Q62.40625 187.84692 61.953125 187.6438Q61.515625 187.42505 61.28125 187.05005Q61.046875 186.67505 61.046875 186.2063Q61.046875 185.80005 61.234375 185.44067Q61.421875 185.0813 61.75 184.84692Q62.0 184.67505 62.421875 184.55005Q62.84375 184.42505 63.34375 184.42505Q64.0625 184.42505 64.609375 184.6438Q65.171875 184.84692 65.4375 185.2063Q65.703125 185.56567 65.796875 186.15942L64.765625 186.30005Q64.703125 185.8313 64.359375 185.56567Q64.03125 185.28442 63.40625 185.28442Q62.6875 185.28442 62.375 185.53442Q62.0625 185.7688 62.0625 186.09692Q62.0625 186.30005 62.1875 186.4563Q62.328125 186.62817 62.59375 186.73755Q62.75 186.80005 63.53125 187.00317Q64.65625 187.31567 65.09375 187.50317Q65.53125 187.69067 65.78125 188.05005Q66.03125 188.40942 66.03125 188.9563Q66.03125 189.48755 65.71875 189.9563Q65.421875 190.40942 64.84375 190.67505Q64.265625 190.92505 63.53125 190.92505Q62.3125 190.92505 61.671875 190.42505Q61.046875 189.90942 60.875 188.92505ZM72.359375 190.0188Q71.765625 190.5188 71.21875 190.72192Q70.6875 190.92505 70.0625 190.92505Q69.03125 190.92505 68.484375 190.42505Q67.9375 189.92505 67.9375 189.1438Q67.9375 188.69067 68.140625 188.31567Q68.34375 187.92505 68.6875 187.7063Q69.03125 187.47192 69.453125 187.36255Q69.75 187.2688 70.390625 187.19067Q71.65625 187.05005 72.265625 186.8313Q72.265625 186.61255 72.265625 186.56567Q72.265625 185.90942 71.96875 185.6438Q71.5625 185.30005 70.765625 185.30005Q70.03125 185.30005 69.671875 185.56567Q69.3125 185.81567 69.140625 186.47192L68.109375 186.3313Q68.25 185.67505 68.578125 185.2688Q68.90625 184.86255 69.515625 184.6438Q70.125 184.42505 70.921875 184.42505Q71.71875 184.42505 72.21875 184.61255Q72.71875 184.80005 72.953125 185.0813Q73.1875 185.36255 73.28125 185.80005Q73.328125 186.06567 73.328125 186.7688L73.328125 188.17505Q73.328125 189.6438 73.390625 190.03442Q73.46875 190.42505 73.671875 190.78442L72.5625 190.78442Q72.40625 190.4563 72.359375 190.0188ZM72.265625 187.65942Q71.6875 187.8938 70.546875 188.06567Q69.890625 188.15942 69.625 188.28442Q69.359375 188.3938 69.203125 188.61255Q69.0625 188.8313 69.0625 189.11255Q69.0625 189.53442 69.375 189.81567Q69.703125 190.09692 70.3125 190.09692Q70.921875 190.09692 71.390625 189.8313Q71.875 189.56567 72.09375 189.09692Q72.265625 188.73755 72.265625 188.05005L72.265625 187.65942ZM75.265625 190.78442L75.265625 182.19067L76.328125 182.19067L76.328125 190.78442L75.265625 190.78442ZM82.375 190.78442L82.375 189.86255Q81.640625 190.92505 80.390625 190.92505Q79.84375 190.92505 79.359375 190.72192Q78.890625 190.50317 78.65625 190.19067Q78.421875 189.86255 78.328125 189.3938Q78.265625 189.09692 78.265625 188.40942L78.265625 184.56567L79.328125 184.56567L79.328125 188.0188Q79.328125 188.8313 79.390625 189.12817Q79.484375 189.53442 79.796875 189.78442Q80.125 190.0188 80.609375 190.0188Q81.078125 190.0188 81.484375 189.78442Q81.90625 189.53442 82.078125 189.11255Q82.265625 188.69067 82.265625 187.8938L82.265625 184.56567L83.3125 184.56567L83.3125 190.78442L82.375 190.78442ZM89.328125 190.78442L89.328125 190.00317Q88.734375 190.92505 87.59375 190.92505Q86.84375 190.92505 86.21875 190.5188Q85.59375 190.09692 85.25 189.36255Q84.90625 188.62817 84.90625 187.67505Q84.90625 186.75317 85.21875 185.98755Q85.53125 185.22192 86.15625 184.8313Q86.78125 184.42505 87.546875 184.42505Q88.109375 184.42505 88.546875 184.65942Q88.984375 184.8938 89.265625 185.2688L89.265625 182.19067L90.3125 182.19067L90.3125 190.78442L89.328125 190.78442ZM86.0 187.67505Q86.0 188.87817 86.5 189.47192Q87.0 190.05005 87.6875 190.05005Q88.375 190.05005 88.859375 189.48755Q89.34375 188.92505 89.34375 187.7688Q89.34375 186.48755 88.84375 185.8938Q88.359375 185.30005 87.640625 185.30005Q86.9375 185.30005 86.46875 185.87817Q86.0 186.44067 86.0 187.67505ZM91.3125 193.17505L91.3125 192.40942L98.3125 192.40942L98.3125 193.17505L91.3125 193.17505ZM99.296875 190.78442L99.296875 184.56567L100.234375 184.56567L100.234375 185.44067Q100.53125 184.97192 101.015625 184.7063Q101.5 184.42505 102.125 184.42505Q102.8125 184.42505 103.25 184.7063Q103.703125 184.98755 103.875 185.50317Q104.625 184.42505 105.796875 184.42505Q106.734375 184.42505 107.21875 184.94067Q107.71875 185.44067 107.71875 186.5188L107.71875 190.78442L106.671875 190.78442L106.671875 186.86255Q106.671875 186.23755 106.5625 185.9563Q106.46875 185.67505 106.203125 185.50317Q105.9375 185.3313 105.5625 185.3313Q104.90625 185.3313 104.46875 185.7688Q104.046875 186.2063 104.046875 187.17505L104.046875 190.78442L102.984375 190.78442L102.984375 186.73755Q102.984375 186.03442 102.71875 185.69067Q102.46875 185.3313 101.890625 185.3313Q101.4375 185.3313 101.0625 185.56567Q100.6875 185.80005 100.515625 186.25317Q100.34375 186.7063 100.34375 187.55005L100.34375 190.78442L99.296875 190.78442ZM114.546875 188.78442L115.640625 188.90942Q115.390625 189.86255 114.6875 190.3938Q113.984375 190.92505 112.90625 190.92505Q111.546875 190.92505 110.734375 190.0813Q109.9375 189.23755 109.9375 187.72192Q109.9375 186.15942 110.75 185.30005Q111.5625 184.42505 112.84375 184.42505Q114.09375 184.42505 114.875 185.2688Q115.671875 186.11255 115.671875 187.65942Q115.671875 187.75317 115.671875 187.94067L111.03125 187.94067Q111.09375 188.97192 111.609375 189.5188Q112.125 190.05005 112.90625 190.05005Q113.484375 190.05005 113.890625 189.75317Q114.3125 189.44067 114.546875 188.78442ZM111.09375 187.0813L114.5625 187.0813Q114.5 186.28442 114.171875 185.8938Q113.65625 185.28442 112.859375 185.28442Q112.125 185.28442 111.625 185.7688Q111.140625 186.25317 111.09375 187.0813ZM117.296875 190.78442L117.296875 184.56567L118.234375 184.56567L118.234375 185.44067Q118.921875 184.42505 120.21875 184.42505Q120.78125 184.42505 121.25 184.62817Q121.734375 184.8313 121.96875 185.15942Q122.203125 185.48755 122.296875 185.92505Q122.34375 186.22192 122.34375 186.9563L122.34375 190.78442L121.296875 190.78442L121.296875 187.00317Q121.296875 186.34692 121.171875 186.03442Q121.046875 185.72192 120.734375 185.53442Q120.421875 185.3313 120.0 185.3313Q119.328125 185.3313 118.828125 185.7688Q118.34375 186.19067 118.34375 187.37817L118.34375 190.78442L117.296875 190.78442ZM126.59375 189.84692L126.75 190.7688Q126.296875 190.86255 125.953125 190.86255Q125.375 190.86255 125.0625 190.69067Q124.75 190.50317 124.609375 190.2063Q124.484375 189.90942 124.484375 188.9563L124.484375 185.37817L123.71875 185.37817L123.71875 184.56567L124.484375 184.56567L124.484375 183.0188L125.53125 182.3938L125.53125 184.56567L126.59375 184.56567L126.59375 185.37817L125.53125 185.37817L125.53125 189.0188Q125.53125 189.47192 125.578125 189.59692Q125.640625 189.72192 125.765625 189.80005Q125.890625 189.87817 126.125 189.87817Q126.3125 189.87817 126.59375 189.84692ZM131.35938 190.0188Q130.76562 190.5188 130.21875 190.72192Q129.6875 190.92505 129.0625 190.92505Q128.03125 190.92505 127.484375 190.42505Q126.9375 189.92505 126.9375 189.1438Q126.9375 188.69067 127.140625 188.31567Q127.34375 187.92505 127.6875 187.7063Q128.03125 187.47192 128.45312 187.36255Q128.75 187.2688 129.39062 187.19067Q130.65625 187.05005 131.26562 186.8313Q131.26562 186.61255 131.26562 186.56567Q131.26562 185.90942 130.96875 185.6438Q130.5625 185.30005 129.76562 185.30005Q129.03125 185.30005 128.67188 185.56567Q128.3125 185.81567 128.14062 186.47192L127.109375 186.3313Q127.25 185.67505 127.578125 185.2688Q127.90625 184.86255 128.51562 184.6438Q129.125 184.42505 129.92188 184.42505Q130.71875 184.42505 131.21875 184.61255Q131.71875 184.80005 131.95312 185.0813Q132.1875 185.36255 132.28125 185.80005Q132.32812 186.06567 132.32812 186.7688L132.32812 188.17505Q132.32812 189.6438 132.39062 190.03442Q132.46875 190.42505 132.67188 190.78442L131.5625 190.78442Q131.40625 190.4563 131.35938 190.0188ZM131.26562 187.65942Q130.6875 187.8938 129.54688 188.06567Q128.89062 188.15942 128.625 188.28442Q128.35938 188.3938 128.20312 188.61255Q128.0625 188.8313 128.0625 189.11255Q128.0625 189.53442 128.375 189.81567Q128.70312 190.09692 129.3125 190.09692Q129.92188 190.09692 130.39062 189.8313Q130.875 189.56567 131.09375 189.09692Q131.26562 188.73755 131.26562 188.05005L131.26562 187.65942ZM134.26562 190.78442L134.26562 182.19067L135.32812 182.19067L135.32812 190.78442L134.26562 190.78442Z" fill-rule="nonzero"/><path fill="#000000" d="M77.359375 232.93433L78.390625 233.07495Q78.21875 234.13745 77.515625 234.74683Q76.8125 235.3562 75.796875 235.3562Q74.515625 235.3562 73.734375 234.52808Q72.96875 233.68433 72.96875 232.12183Q72.96875 231.12183 73.296875 230.37183Q73.640625 229.6062 74.3125 229.2312Q75.0 228.8562 75.8125 228.8562Q76.8125 228.8562 77.453125 229.37183Q78.109375 229.87183 78.296875 230.82495L77.265625 230.9812Q77.125 230.3562 76.75 230.0437Q76.375 229.71558 75.84375 229.71558Q75.046875 229.71558 74.546875 230.2937Q74.046875 230.8562 74.046875 232.09058Q74.046875 233.3562 74.53125 233.9187Q75.015625 234.4812 75.78125 234.4812Q76.40625 234.4812 76.8125 234.1062Q77.234375 233.7312 77.359375 232.93433ZM83.359375 234.44995Q82.765625 234.94995 82.21875 235.15308Q81.6875 235.3562 81.0625 235.3562Q80.03125 235.3562 79.484375 234.8562Q78.9375 234.3562 78.9375 233.57495Q78.9375 233.12183 79.140625 232.74683Q79.34375 232.3562 79.6875 232.13745Q80.03125 231.90308 80.453125 231.7937Q80.75 231.69995 81.390625 231.62183Q82.65625 231.4812 83.265625 231.26245Q83.265625 231.0437 83.265625 230.99683Q83.265625 230.34058 82.96875 230.07495Q82.5625 229.7312 81.765625 229.7312Q81.03125 229.7312 80.671875 229.99683Q80.3125 230.24683 80.140625 230.90308L79.109375 230.76245Q79.25 230.1062 79.578125 229.69995Q79.90625 229.2937 80.515625 229.07495Q81.125 228.8562 81.921875 228.8562Q82.71875 228.8562 83.21875 229.0437Q83.71875 229.2312 83.953125 229.51245Q84.1875 229.7937 84.28125 230.2312Q84.328125 230.49683 84.328125 231.19995L84.328125 232.6062Q84.328125 234.07495 84.390625 234.46558Q84.46875 234.8562 84.671875 235.21558L83.5625 235.21558Q83.40625 234.88745 83.359375 234.44995ZM83.265625 232.09058Q82.6875 232.32495 81.546875 232.49683Q80.890625 232.59058 80.625 232.71558Q80.359375 232.82495 80.203125 233.0437Q80.0625 233.26245 80.0625 233.5437Q80.0625 233.96558 80.375 234.24683Q80.703125 234.52808 81.3125 234.52808Q81.921875 234.52808 82.390625 234.26245Q82.875 233.99683 83.09375 233.52808Q83.265625 233.1687 83.265625 232.4812L83.265625 232.09058ZM86.296875 235.21558L86.296875 228.99683L87.234375 228.99683L87.234375 229.87183Q87.921875 228.8562 89.21875 228.8562Q89.78125 228.8562 90.25 229.05933Q90.734375 229.26245 90.96875 229.59058Q91.203125 229.9187 91.296875 230.3562Q91.34375 230.65308 91.34375 231.38745L91.34375 235.21558L90.296875 235.21558L90.296875 231.43433Q90.296875 230.77808 90.171875 230.46558Q90.046875 230.15308 89.734375 229.96558Q89.421875 229.76245 89.0 229.76245Q88.328125 229.76245 87.828125 230.19995Q87.34375 230.62183 87.34375 231.80933L87.34375 235.21558L86.296875 235.21558ZM97.359375 234.44995Q96.765625 234.94995 96.21875 235.15308Q95.6875 235.3562 95.0625 235.3562Q94.03125 235.3562 93.484375 234.8562Q92.9375 234.3562 92.9375 233.57495Q92.9375 233.12183 93.140625 232.74683Q93.34375 232.3562 93.6875 232.13745Q94.03125 231.90308 94.453125 231.7937Q94.75 231.69995 95.390625 231.62183Q96.65625 231.4812 97.265625 231.26245Q97.265625 231.0437 97.265625 230.99683Q97.265625 230.34058 96.96875 230.07495Q96.5625 229.7312 95.765625 229.7312Q95.03125 229.7312 94.671875 229.99683Q94.3125 230.24683 94.140625 230.90308L93.109375 230.76245Q93.25 230.1062 93.578125 229.69995Q93.90625 229.2937 94.515625 229.07495Q95.125 228.8562 95.921875 228.8562Q96.71875 228.8562 97.21875 229.0437Q97.71875 229.2312 97.953125 229.51245Q98.1875 229.7937 98.28125 230.2312Q98.328125 230.49683 98.328125 231.19995L98.328125 232.6062Q98.328125 234.07495 98.390625 234.46558Q98.46875 234.8562 98.671875 235.21558L97.5625 235.21558Q97.40625 234.88745 97.359375 234.44995ZM97.265625 232.09058Q96.6875 232.32495 95.546875 232.49683Q94.890625 232.59058 94.625 232.71558Q94.359375 232.82495 94.203125 233.0437Q94.0625 233.26245 94.0625 233.5437Q94.0625 233.96558 94.375 234.24683Q94.703125 234.52808 95.3125 234.52808Q95.921875 234.52808 96.390625 234.26245Q96.875 233.99683 97.09375 233.52808Q97.265625 233.1687 97.265625 232.4812L97.265625 232.09058ZM100.265625 235.21558L100.265625 226.62183L101.328125 226.62183L101.328125 235.21558L100.265625 235.21558ZM102.3125 237.6062L102.3125 236.84058L109.3125 236.84058L109.3125 237.6062L102.3125 237.6062ZM114.328125 235.21558L114.328125 234.43433Q113.734375 235.3562 112.59375 235.3562Q111.84375 235.3562 111.21875 234.94995Q110.59375 234.52808 110.25 233.7937Q109.90625 233.05933 109.90625 232.1062Q109.90625 231.18433 110.21875 230.4187Q110.53125 229.65308 111.15625 229.26245Q111.78125 228.8562 112.546875 228.8562Q113.109375 228.8562 113.546875 229.09058Q113.984375 229.32495 114.265625 229.69995L114.265625 226.62183L115.3125 226.62183L115.3125 235.21558L114.328125 235.21558ZM111.0 232.1062Q111.0 233.30933 111.5 233.90308Q112.0 234.4812 112.6875 234.4812Q113.375 234.4812 113.859375 233.9187Q114.34375 233.3562 114.34375 232.19995Q114.34375 230.9187 113.84375 230.32495Q113.359375 229.7312 112.640625 229.7312Q111.9375 229.7312 111.46875 230.30933Q111.0 230.87183 111.0 232.1062ZM116.90625 232.1062Q116.90625 230.37183 117.859375 229.5437Q118.65625 228.8562 119.8125 228.8562Q121.09375 228.8562 121.90625 229.69995Q122.734375 230.52808 122.734375 232.01245Q122.734375 233.21558 122.375 233.90308Q122.015625 234.59058 121.3125 234.9812Q120.625 235.3562 119.8125 235.3562Q118.515625 235.3562 117.703125 234.52808Q116.90625 233.68433 116.90625 232.1062ZM117.984375 232.1062Q117.984375 233.2937 118.5 233.88745Q119.03125 234.4812 119.8125 234.4812Q120.609375 234.4812 121.125 233.88745Q121.640625 233.2937 121.640625 232.07495Q121.640625 230.9187 121.109375 230.32495Q120.59375 229.7312 119.8125 229.7312Q119.03125 229.7312 118.5 230.32495Q117.984375 230.90308 117.984375 232.1062ZM128.35938 232.93433L129.39062 233.07495Q129.21875 234.13745 128.51562 234.74683Q127.8125 235.3562 126.796875 235.3562Q125.515625 235.3562 124.734375 234.52808Q123.96875 233.68433 123.96875 232.12183Q123.96875 231.12183 124.296875 230.37183Q124.640625 229.6062 125.3125 229.2312Q126.0 228.8562 126.8125 228.8562Q127.8125 228.8562 128.45312 229.37183Q129.10938 229.87183 129.29688 230.82495L128.26562 230.9812Q128.125 230.3562 127.75 230.0437Q127.375 229.71558 126.84375 229.71558Q126.046875 229.71558 125.546875 230.2937Q125.046875 230.8562 125.046875 232.09058Q125.046875 233.3562 125.53125 233.9187Q126.015625 234.4812 126.78125 234.4812Q127.40625 234.4812 127.8125 234.1062Q128.23438 233.7312 128.35938 232.93433ZM134.54688 233.21558L135.64062 233.34058Q135.39062 234.2937 134.6875 234.82495Q133.98438 235.3562 132.90625 235.3562Q131.54688 235.3562 130.73438 234.51245Q129.9375 233.6687 129.9375 232.15308Q129.9375 230.59058 130.75 229.7312Q131.5625 228.8562 132.84375 228.8562Q134.09375 228.8562 134.875 229.69995Q135.67188 230.5437 135.67188 232.09058Q135.67188 232.18433 135.67188 232.37183L131.03125 232.37183Q131.09375 233.40308 131.60938 233.94995Q132.125 234.4812 132.90625 234.4812Q133.48438 234.4812 133.89062 234.18433Q134.3125 233.87183 134.54688 233.21558ZM131.09375 231.51245L134.5625 231.51245Q134.5 230.71558 134.17188 230.32495Q133.65625 229.71558 132.85938 229.71558Q132.125 229.71558 131.625 230.19995Q131.14062 230.68433 131.09375 231.51245Z" fill-rule="nonzero"/><path fill="#000000" d="M85.359375 277.36545L86.390625 277.50607Q86.21875 278.56857 85.515625 279.17795Q84.8125 279.78732 83.796875 279.78732Q82.515625 279.78732 81.734375 278.9592Q80.96875 278.11545 80.96875 276.55295Q80.96875 275.55295 81.296875 274.80295Q81.640625 274.03732 82.3125 273.66232Q83.0 273.28732 83.8125 273.28732Q84.8125 273.28732 85.453125 273.80295Q86.109375 274.30295 86.296875 275.25607L85.265625 275.41232Q85.125 274.78732 84.75 274.47482Q84.375 274.1467 83.84375 274.1467Q83.046875 274.1467 82.546875 274.72482Q82.046875 275.28732 82.046875 276.5217Q82.046875 277.78732 82.53125 278.34982Q83.015625 278.91232 83.78125 278.91232Q84.40625 278.91232 84.8125 278.53732Q85.234375 278.16232 85.359375 277.36545ZM91.359375 278.88107Q90.765625 279.38107 90.21875 279.5842Q89.6875 279.78732 89.0625 279.78732Q88.03125 279.78732 87.484375 279.28732Q86.9375 278.78732 86.9375 278.00607Q86.9375 277.55295 87.140625 277.17795Q87.34375 276.78732 87.6875 276.56857Q88.03125 276.3342 88.453125 276.22482Q88.75 276.13107 89.390625 276.05295Q90.65625 275.91232 91.265625 275.69357Q91.265625 275.47482 91.265625 275.42795Q91.265625 274.7717 90.96875 274.50607Q90.5625 274.16232 89.765625 274.16232Q89.03125 274.16232 88.671875 274.42795Q88.3125 274.67795 88.140625 275.3342L87.109375 275.19357Q87.25 274.53732 87.578125 274.13107Q87.90625 273.72482 88.515625 273.50607Q89.125 273.28732 89.921875 273.28732Q90.71875 273.28732 91.21875 273.47482Q91.71875 273.66232 91.953125 273.94357Q92.1875 274.22482 92.28125 274.66232Q92.328125 274.92795 92.328125 275.63107L92.328125 277.03732Q92.328125 278.50607 92.390625 278.8967Q92.46875 279.28732 92.671875 279.6467L91.5625 279.6467Q91.40625 279.31857 91.359375 278.88107ZM91.265625 276.5217Q90.6875 276.75607 89.546875 276.92795Q88.890625 277.0217 88.625 277.1467Q88.359375 277.25607 88.203125 277.47482Q88.0625 277.69357 88.0625 277.97482Q88.0625 278.3967 88.375 278.67795Q88.703125 278.9592 89.3125 278.9592Q89.921875 278.9592 90.390625 278.69357Q90.875 278.42795 91.09375 277.9592Q91.265625 277.59982 91.265625 276.91232L91.265625 276.5217ZM94.28125 279.6467L94.28125 273.42795L95.234375 273.42795L95.234375 274.36545Q95.59375 273.7092 95.890625 273.50607Q96.203125 273.28732 96.578125 273.28732Q97.109375 273.28732 97.65625 273.61545L97.296875 274.59982Q96.90625 274.36545 96.53125 274.36545Q96.171875 274.36545 95.890625 274.5842Q95.625 274.78732 95.515625 275.16232Q95.328125 275.72482 95.328125 276.38107L95.328125 279.6467L94.28125 279.6467ZM102.359375 278.88107Q101.765625 279.38107 101.21875 279.5842Q100.6875 279.78732 100.0625 279.78732Q99.03125 279.78732 98.484375 279.28732Q97.9375 278.78732 97.9375 278.00607Q97.9375 277.55295 98.140625 277.17795Q98.34375 276.78732 98.6875 276.56857Q99.03125 276.3342 99.453125 276.22482Q99.75 276.13107 100.390625 276.05295Q101.65625 275.91232 102.265625 275.69357Q102.265625 275.47482 102.265625 275.42795Q102.265625 274.7717 101.96875 274.50607Q101.5625 274.16232 100.765625 274.16232Q100.03125 274.16232 99.671875 274.42795Q99.3125 274.67795 99.140625 275.3342L98.109375 275.19357Q98.25 274.53732 98.578125 274.13107Q98.90625 273.72482 99.515625 273.50607Q100.125 273.28732 100.921875 273.28732Q101.71875 273.28732 102.21875 273.47482Q102.71875 273.66232 102.953125 273.94357Q103.1875 274.22482 103.28125 274.66232Q103.328125 274.92795 103.328125 275.63107L103.328125 277.03732Q103.328125 278.50607 103.390625 278.8967Q103.46875 279.28732 103.671875 279.6467L102.5625 279.6467Q102.40625 279.31857 102.359375 278.88107ZM102.265625 276.5217Q101.6875 276.75607 100.546875 276.92795Q99.890625 277.0217 99.625 277.1467Q99.359375 277.25607 99.203125 277.47482Q99.0625 277.69357 99.0625 277.97482Q99.0625 278.3967 99.375 278.67795Q99.703125 278.9592 100.3125 278.9592Q100.921875 278.9592 101.390625 278.69357Q101.875 278.42795 102.09375 277.9592Q102.265625 277.59982 102.265625 276.91232L102.265625 276.5217ZM104.3125 282.03732L104.3125 281.2717L111.3125 281.2717L111.3125 282.03732L104.3125 282.03732ZM116.328125 279.6467L116.328125 278.86545Q115.734375 279.78732 114.59375 279.78732Q113.84375 279.78732 113.21875 279.38107Q112.59375 278.9592 112.25 278.22482Q111.90625 277.49045 111.90625 276.53732Q111.90625 275.61545 112.21875 274.84982Q112.53125 274.0842 113.15625 273.69357Q113.78125 273.28732 114.546875 273.28732Q115.109375 273.28732 115.546875 273.5217Q115.984375 273.75607 116.265625 274.13107L116.265625 271.05295L117.3125 271.05295L117.3125 279.6467L116.328125 279.6467ZM113.0 276.53732Q113.0 277.74045 113.5 278.3342Q114.0 278.91232 114.6875 278.91232Q115.375 278.91232 115.859375 278.34982Q116.34375 277.78732 116.34375 276.63107Q116.34375 275.34982 115.84375 274.75607Q115.359375 274.16232 114.640625 274.16232Q113.9375 274.16232 113.46875 274.74045Q113.0 275.30295 113.0 276.53732ZM123.375 279.6467L123.375 278.72482Q122.640625 279.78732 121.390625 279.78732Q120.84375 279.78732 120.359375 279.5842Q119.890625 279.36545 119.65625 279.05295Q119.421875 278.72482 119.328125 278.25607Q119.265625 277.9592 119.265625 277.2717L119.265625 273.42795L120.328125 273.42795L120.328125 276.88107Q120.328125 277.69357 120.390625 277.99045Q120.484375 278.3967 120.796875 278.6467Q121.125 278.88107 121.609375 278.88107Q122.078125 278.88107 122.484375 278.6467Q122.90625 278.3967 123.078125 277.97482Q123.265625 277.55295 123.265625 276.75607L123.265625 273.42795L124.3125 273.42795L124.3125 279.6467L123.375 279.6467ZM126.28125 279.6467L126.28125 273.42795L127.234375 273.42795L127.234375 274.36545Q127.59375 273.7092 127.890625 273.50607Q128.20312 273.28732 128.57812 273.28732Q129.10938 273.28732 129.65625 273.61545L129.29688 274.59982Q128.90625 274.36545 128.53125 274.36545Q128.17188 274.36545 127.890625 274.5842Q127.625 274.78732 127.515625 275.16232Q127.328125 275.72482 127.328125 276.38107L127.328125 279.6467L126.28125 279.6467ZM134.35938 278.88107Q133.76562 279.38107 133.21875 279.5842Q132.6875 279.78732 132.0625 279.78732Q131.03125 279.78732 130.48438 279.28732Q129.9375 278.78732 129.9375 278.00607Q129.9375 277.55295 130.14062 277.17795Q130.34375 276.78732 130.6875 276.56857Q131.03125 276.3342 131.45312 276.22482Q131.75 276.13107 132.39062 276.05295Q133.65625 275.91232 134.26562 275.69357Q134.26562 275.47482 134.26562 275.42795Q134.26562 274.7717 133.96875 274.50607Q133.5625 274.16232 132.76562 274.16232Q132.03125 274.16232 131.67188 274.42795Q131.3125 274.67795 131.14062 275.3342L130.10938 275.19357Q130.25 274.53732 130.57812 274.13107Q130.90625 273.72482 131.51562 273.50607Q132.125 273.28732 132.92188 273.28732Q133.71875 273.28732 134.21875 273.47482Q134.71875 273.66232 134.95312 273.94357Q135.1875 274.22482 135.28125 274.66232Q135.32812 274.92795 135.32812 275.63107L135.32812 277.03732Q135.32812 278.50607 135.39062 278.8967Q135.46875 279.28732 135.67188 279.6467L134.5625 279.6467Q134.40625 279.31857 134.35938 278.88107ZM134.26562 276.5217Q133.6875 276.75607 132.54688 276.92795Q131.89062 277.0217 131.625 277.1467Q131.35938 277.25607 131.20312 277.47482Q131.0625 277.69357 131.0625 277.97482Q131.0625 278.3967 131.375 278.67795Q131.70312 278.9592 132.3125 278.9592Q132.92188 278.9592 133.39062 278.69357Q133.875 278.42795 134.09375 277.9592Q134.26562 277.59982 134.26562 276.91232L134.26562 276.5217Z" fill-rule="nonzero"/><path fill="#000000" d="M77.359375 321.7966L78.390625 321.93723Q78.21875 322.99973 77.515625 323.6091Q76.8125 324.21848 75.796875 324.21848Q74.515625 324.21848 73.734375 323.39035Q72.96875 322.5466 72.96875 320.9841Q72.96875 319.9841 73.296875 319.2341Q73.640625 318.46848 74.3125 318.09348Q75.0 317.71848 75.8125 317.71848Q76.8125 317.71848 77.453125 318.2341Q78.109375 318.7341 78.296875 319.68723L77.265625 319.84348Q77.125 319.21848 76.75 318.90598Q76.375 318.57785 75.84375 318.57785Q75.046875 318.57785 74.546875 319.15598Q74.046875 319.71848 74.046875 320.95285Q74.046875 322.21848 74.53125 322.78098Q75.015625 323.34348 75.78125 323.34348Q76.40625 323.34348 76.8125 322.96848Q77.234375 322.59348 77.359375 321.7966ZM83.359375 323.31223Q82.765625 323.81223 82.21875 324.01535Q81.6875 324.21848 81.0625 324.21848Q80.03125 324.21848 79.484375 323.71848Q78.9375 323.21848 78.9375 322.43723Q78.9375 321.9841 79.140625 321.6091Q79.34375 321.21848 79.6875 320.99973Q80.03125 320.76535 80.453125 320.65598Q80.75 320.56223 81.390625 320.4841Q82.65625 320.34348 83.265625 320.12473Q83.265625 319.90598 83.265625 319.8591Q83.265625 319.20285 82.96875 318.93723Q82.5625 318.59348 81.765625 318.59348Q81.03125 318.59348 80.671875 318.8591Q80.3125 319.1091 80.140625 319.76535L79.109375 319.62473Q79.25 318.96848 79.578125 318.56223Q79.90625 318.15598 80.515625 317.93723Q81.125 317.71848 81.921875 317.71848Q82.71875 317.71848 83.21875 317.90598Q83.71875 318.09348 83.953125 318.37473Q84.1875 318.65598 84.28125 319.09348Q84.328125 319.3591 84.328125 320.06223L84.328125 321.46848Q84.328125 322.93723 84.390625 323.32785Q84.46875 323.71848 84.671875 324.07785L83.5625 324.07785Q83.40625 323.74973 83.359375 323.31223ZM83.265625 320.95285Q82.6875 321.18723 81.546875 321.3591Q80.890625 321.45285 80.625 321.57785Q80.359375 321.68723 80.203125 321.90598Q80.0625 322.12473 80.0625 322.40598Q80.0625 322.82785 80.375 323.1091Q80.703125 323.39035 81.3125 323.39035Q81.921875 323.39035 82.390625 323.12473Q82.875 322.8591 83.09375 322.39035Q83.265625 322.03098 83.265625 321.34348L83.265625 320.95285ZM85.875 322.21848L86.90625 322.06223Q87.0 322.68723 87.390625 323.01535Q87.796875 323.34348 88.53125 323.34348Q89.25 323.34348 89.59375 323.06223Q89.953125 322.76535 89.953125 322.3591Q89.953125 321.99973 89.640625 321.7966Q89.421875 321.65598 88.5625 321.43723Q87.40625 321.14035 86.953125 320.93723Q86.515625 320.71848 86.28125 320.34348Q86.046875 319.96848 86.046875 319.49973Q86.046875 319.09348 86.234375 318.7341Q86.421875 318.37473 86.75 318.14035Q87.0 317.96848 87.421875 317.84348Q87.84375 317.71848 88.34375 317.71848Q89.0625 317.71848 89.609375 317.93723Q90.171875 318.14035 90.4375 318.49973Q90.703125 318.8591 90.796875 319.45285L89.765625 319.59348Q89.703125 319.12473 89.359375 318.8591Q89.03125 318.57785 88.40625 318.57785Q87.6875 318.57785 87.375 318.82785Q87.0625 319.06223 87.0625 319.39035Q87.0625 319.59348 87.1875 319.74973Q87.328125 319.9216 87.59375 320.03098Q87.75 320.09348 88.53125 320.2966Q89.65625 320.6091 90.09375 320.7966Q90.53125 320.9841 90.78125 321.34348Q91.03125 321.70285 91.03125 322.24973Q91.03125 322.78098 90.71875 323.24973Q90.421875 323.70285 89.84375 323.96848Q89.265625 324.21848 88.53125 324.21848Q87.3125 324.21848 86.671875 323.71848Q86.046875 323.20285 85.875 322.21848ZM92.90625 320.96848Q92.90625 319.2341 93.859375 318.40598Q94.65625 317.71848 95.8125 317.71848Q97.09375 317.71848 97.90625 318.56223Q98.734375 319.39035 98.734375 320.87473Q98.734375 322.07785 98.375 322.76535Q98.015625 323.45285 97.3125 323.84348Q96.625 324.21848 95.8125 324.21848Q94.515625 324.21848 93.703125 323.39035Q92.90625 322.5466 92.90625 320.96848ZM93.984375 320.96848Q93.984375 322.15598 94.5 322.74973Q95.03125 323.34348 95.8125 323.34348Q96.609375 323.34348 97.125 322.74973Q97.640625 322.15598 97.640625 320.93723Q97.640625 319.78098 97.109375 319.18723Q96.59375 318.59348 95.8125 318.59348Q95.03125 318.59348 94.5 319.18723Q93.984375 319.76535 93.984375 320.96848ZM99.3125 326.46848L99.3125 325.70285L106.3125 325.70285L106.3125 326.46848L99.3125 326.46848ZM107.265625 324.07785L107.265625 315.4841L108.328125 315.4841L108.328125 324.07785L107.265625 324.07785ZM110.65625 324.07785L110.65625 317.8591L111.71875 317.8591L111.71875 324.07785L110.65625 324.07785ZM110.609375 317.07785L111.390625 315.43723L112.78125 315.43723L111.484375 317.07785L110.609375 317.07785ZM113.296875 324.07785L113.296875 317.8591L114.234375 317.8591L114.234375 318.7341Q114.53125 318.26535 115.015625 317.99973Q115.5 317.71848 116.125 317.71848Q116.8125 317.71848 117.25 317.99973Q117.703125 318.28098 117.875 318.7966Q118.625 317.71848 119.796875 317.71848Q120.734375 317.71848 121.21875 318.2341Q121.71875 318.7341 121.71875 319.81223L121.71875 324.07785L120.671875 324.07785L120.671875 320.15598Q120.671875 319.53098 120.5625 319.24973Q120.46875 318.96848 120.203125 318.7966Q119.9375 318.62473 119.5625 318.62473Q118.90625 318.62473 118.46875 319.06223Q118.046875 319.49973 118.046875 320.46848L118.046875 324.07785L116.984375 324.07785L116.984375 320.03098Q116.984375 319.32785 116.71875 318.9841Q116.46875 318.62473 115.890625 318.62473Q115.4375 318.62473 115.0625 318.8591Q114.6875 319.09348 114.515625 319.5466Q114.34375 319.99973 114.34375 320.84348L114.34375 324.07785L113.296875 324.07785ZM124.296875 316.70285L124.296875 315.4841L125.359375 315.4841L125.359375 316.70285L124.296875 316.70285ZM124.296875 324.07785L124.296875 317.8591L125.359375 317.8591L125.359375 324.07785L124.296875 324.07785ZM129.59375 323.14035L129.75 324.06223Q129.29688 324.15598 128.95312 324.15598Q128.375 324.15598 128.0625 323.9841Q127.75 323.7966 127.609375 323.49973Q127.484375 323.20285 127.484375 322.24973L127.484375 318.6716L126.71875 318.6716L126.71875 317.8591L127.484375 317.8591L127.484375 316.31223L128.53125 315.68723L128.53125 317.8591L129.59375 317.8591L129.59375 318.6716L128.53125 318.6716L128.53125 322.31223Q128.53125 322.76535 128.57812 322.89035Q128.64062 323.01535 128.76562 323.09348Q128.89062 323.1716 129.125 323.1716Q129.3125 323.1716 129.59375 323.14035ZM134.54688 322.07785L135.64062 322.20285Q135.39062 323.15598 134.6875 323.68723Q133.98438 324.21848 132.90625 324.21848Q131.54688 324.21848 130.73438 323.37473Q129.9375 322.53098 129.9375 321.01535Q129.9375 319.45285 130.75 318.59348Q131.5625 317.71848 132.84375 317.71848Q134.09375 317.71848 134.875 318.56223Q135.67188 319.40598 135.67188 320.95285Q135.67188 321.0466 135.67188 321.2341L131.03125 321.2341Q131.09375 322.26535 131.60938 322.81223Q132.125 323.34348 132.90625 323.34348Q133.48438 323.34348 133.89062 323.0466Q134.3125 322.7341 134.54688 322.07785ZM131.09375 320.37473L134.5625 320.37473Q134.5 319.57785 134.17188 319.18723Q133.65625 318.57785 132.85938 318.57785Q132.125 318.57785 131.625 319.06223Q131.14062 319.5466 131.09375 320.37473Z" fill-rule="nonzero"/><path fill="#000000" d="M28.359375 366.22772L29.390625 366.36835Q29.21875 367.43085 28.515625 368.04022Q27.8125 368.6496 26.796875 368.6496Q25.515625 368.6496 24.734375 367.82147Q23.96875 366.97772 23.96875 365.41522Q23.96875 364.41522 24.296875 363.66522Q24.640625 362.8996 25.3125 362.5246Q26.0 362.1496 26.8125 362.1496Q27.8125 362.1496 28.453125 362.66522Q29.109375 363.16522 29.296875 364.11835L28.265625 364.2746Q28.125 363.6496 27.75 363.3371Q27.375 363.00897 26.84375 363.00897Q26.046875 363.00897 25.546875 363.5871Q25.046875 364.1496 25.046875 365.38397Q25.046875 366.6496 25.53125 367.2121Q26.015625 367.7746 26.78125 367.7746Q27.40625 367.7746 27.8125 367.3996Q28.234375 367.0246 28.359375 366.22772ZM29.90625 365.3996Q29.90625 363.66522 30.859375 362.8371Q31.65625 362.1496 32.8125 362.1496Q34.09375 362.1496 34.90625 362.99335Q35.734375 363.82147 35.734375 365.30585Q35.734375 366.50897 35.375 367.19647Q35.015625 367.88397 34.3125 368.2746Q33.625 368.6496 32.8125 368.6496Q31.515625 368.6496 30.703125 367.82147Q29.90625 366.97772 29.90625 365.3996ZM30.984375 365.3996Q30.984375 366.5871 31.5 367.18085Q32.03125 367.7746 32.8125 367.7746Q33.609375 367.7746 34.125 367.18085Q34.640625 366.5871 34.640625 365.36835Q34.640625 364.2121 34.109375 363.61835Q33.59375 363.0246 32.8125 363.0246Q32.03125 363.0246 31.5 363.61835Q30.984375 364.19647 30.984375 365.3996ZM37.296875 368.50897L37.296875 362.29022L38.234375 362.29022L38.234375 363.16522Q38.53125 362.69647 39.015625 362.43085Q39.5 362.1496 40.125 362.1496Q40.8125 362.1496 41.25 362.43085Q41.703125 362.7121 41.875 363.22772Q42.625 362.1496 43.796875 362.1496Q44.734375 362.1496 45.21875 362.66522Q45.71875 363.16522 45.71875 364.24335L45.71875 368.50897L44.671875 368.50897L44.671875 364.5871Q44.671875 363.9621 44.5625 363.68085Q44.46875 363.3996 44.203125 363.22772Q43.9375 363.05585 43.5625 363.05585Q42.90625 363.05585 42.46875 363.49335Q42.046875 363.93085 42.046875 364.8996L42.046875 368.50897L40.984375 368.50897L40.984375 364.4621Q40.984375 363.75897 40.71875 363.41522Q40.46875 363.05585 39.890625 363.05585Q39.4375 363.05585 39.0625 363.29022Q38.6875 363.5246 38.515625 363.97772Q38.34375 364.43085 38.34375 365.2746L38.34375 368.50897L37.296875 368.50897ZM52.546875 366.50897L53.640625 366.63397Q53.390625 367.5871 52.6875 368.11835Q51.984375 368.6496 50.90625 368.6496Q49.546875 368.6496 48.734375 367.80585Q47.9375 366.9621 47.9375 365.44647Q47.9375 363.88397 48.75 363.0246Q49.5625 362.1496 50.84375 362.1496Q52.09375 362.1496 52.875 362.99335Q53.671875 363.8371 53.671875 365.38397Q53.671875 365.47772 53.671875 365.66522L49.03125 365.66522Q49.09375 366.69647 49.609375 367.24335Q50.125 367.7746 50.90625 367.7746Q51.484375 367.7746 51.890625 367.47772Q52.3125 367.16522 52.546875 366.50897ZM49.09375 364.80585L52.5625 364.80585Q52.5 364.00897 52.171875 363.61835Q51.65625 363.00897 50.859375 363.00897Q50.125 363.00897 49.625 363.49335Q49.140625 363.97772 49.09375 364.80585ZM57.59375 367.57147L57.75 368.49335Q57.296875 368.5871 56.953125 368.5871Q56.375 368.5871 56.0625 368.41522Q55.75 368.22772 55.609375 367.93085Q55.484375 367.63397 55.484375 366.68085L55.484375 363.10272L54.71875 363.10272L54.71875 362.29022L55.484375 362.29022L55.484375 360.74335L56.53125 360.11835L56.53125 362.29022L57.59375 362.29022L57.59375 363.10272L56.53125 363.10272L56.53125 366.74335Q56.53125 367.19647 56.578125 367.32147Q56.640625 367.44647 56.765625 367.5246Q56.890625 367.60272 57.125 367.60272Q57.3125 367.60272 57.59375 367.57147ZM62.546875 366.50897L63.640625 366.63397Q63.390625 367.5871 62.6875 368.11835Q61.984375 368.6496 60.90625 368.6496Q59.546875 368.6496 58.734375 367.80585Q57.9375 366.9621 57.9375 365.44647Q57.9375 363.88397 58.75 363.0246Q59.5625 362.1496 60.84375 362.1496Q62.09375 362.1496 62.875 362.99335Q63.671875 363.8371 63.671875 365.38397Q63.671875 365.47772 63.671875 365.66522L59.03125 365.66522Q59.09375 366.69647 59.609375 367.24335Q60.125 367.7746 60.90625 367.7746Q61.484375 367.7746 61.890625 367.47772Q62.3125 367.16522 62.546875 366.50897ZM59.09375 364.80585L62.5625 364.80585Q62.5 364.00897 62.171875 363.61835Q61.65625 363.00897 60.859375 363.00897Q60.125 363.00897 59.625 363.49335Q59.140625 363.97772 59.09375 364.80585ZM65.296875 368.50897L65.296875 362.29022L66.234375 362.29022L66.234375 363.16522Q66.53125 362.69647 67.015625 362.43085Q67.5 362.1496 68.125 362.1496Q68.8125 362.1496 69.25 362.43085Q69.703125 362.7121 69.875 363.22772Q70.625 362.1496 71.796875 362.1496Q72.734375 362.1496 73.21875 362.66522Q73.71875 363.16522 73.71875 364.24335L73.71875 368.50897L72.671875 368.50897L72.671875 364.5871Q72.671875 363.9621 72.5625 363.68085Q72.46875 363.3996 72.203125 363.22772Q71.9375 363.05585 71.5625 363.05585Q70.90625 363.05585 70.46875 363.49335Q70.046875 363.93085 70.046875 364.8996L70.046875 368.50897L68.984375 368.50897L68.984375 364.4621Q68.984375 363.75897 68.71875 363.41522Q68.46875 363.05585 67.890625 363.05585Q67.4375 363.05585 67.0625 363.29022Q66.6875 363.5246 66.515625 363.97772Q66.34375 364.43085 66.34375 365.2746L66.34375 368.50897L65.296875 368.50897ZM75.90625 365.3996Q75.90625 363.66522 76.859375 362.8371Q77.65625 362.1496 78.8125 362.1496Q80.09375 362.1496 80.90625 362.99335Q81.734375 363.82147 81.734375 365.30585Q81.734375 366.50897 81.375 367.19647Q81.015625 367.88397 80.3125 368.2746Q79.625 368.6496 78.8125 368.6496Q77.515625 368.6496 76.703125 367.82147Q75.90625 366.97772 75.90625 365.3996ZM76.984375 365.3996Q76.984375 366.5871 77.5 367.18085Q78.03125 367.7746 78.8125 367.7746Q79.609375 367.7746 80.125 367.18085Q80.640625 366.5871 80.640625 365.36835Q80.640625 364.2121 80.109375 363.61835Q79.59375 363.0246 78.8125 363.0246Q78.03125 363.0246 77.5 363.61835Q76.984375 364.19647 76.984375 365.3996ZM82.875 366.6496L83.90625 366.49335Q84.0 367.11835 84.390625 367.44647Q84.796875 367.7746 85.53125 367.7746Q86.25 367.7746 86.59375 367.49335Q86.953125 367.19647 86.953125 366.79022Q86.953125 366.43085 86.640625 366.22772Q86.421875 366.0871 85.5625 365.86835Q84.40625 365.57147 83.953125 365.36835Q83.515625 365.1496 83.28125 364.7746Q83.046875 364.3996 83.046875 363.93085Q83.046875 363.5246 83.234375 363.16522Q83.421875 362.80585 83.75 362.57147Q84.0 362.3996 84.421875 362.2746Q84.84375 362.1496 85.34375 362.1496Q86.0625 362.1496 86.609375 362.36835Q87.171875 362.57147 87.4375 362.93085Q87.703125 363.29022 87.796875 363.88397L86.765625 364.0246Q86.703125 363.55585 86.359375 363.29022Q86.03125 363.00897 85.40625 363.00897Q84.6875 363.00897 84.375 363.25897Q84.0625 363.49335 84.0625 363.82147Q84.0625 364.0246 84.1875 364.18085Q84.328125 364.35272 84.59375 364.4621Q84.75 364.5246 85.53125 364.72772Q86.65625 365.04022 87.09375 365.22772Q87.53125 365.41522 87.78125 365.7746Q88.03125 366.13397 88.03125 366.68085Q88.03125 367.2121 87.71875 367.68085Q87.421875 368.13397 86.84375 368.3996Q86.265625 368.6496 85.53125 368.6496Q84.3125 368.6496 83.671875 368.1496Q83.046875 367.63397 82.875 366.6496ZM89.3125 370.8996L89.3125 370.13397L96.3125 370.13397L96.3125 370.8996L89.3125 370.8996ZM101.546875 366.50897L102.640625 366.63397Q102.390625 367.5871 101.6875 368.11835Q100.984375 368.6496 99.90625 368.6496Q98.546875 368.6496 97.734375 367.80585Q96.9375 366.9621 96.9375 365.44647Q96.9375 363.88397 97.75 363.0246Q98.5625 362.1496 99.84375 362.1496Q101.09375 362.1496 101.875 362.99335Q102.671875 363.8371 102.671875 365.38397Q102.671875 365.47772 102.671875 365.66522L98.03125 365.66522Q98.09375 366.69647 98.609375 367.24335Q99.125 367.7746 99.90625 367.7746Q100.484375 367.7746 100.890625 367.47772Q101.3125 367.16522 101.546875 366.50897ZM98.09375 364.80585L101.5625 364.80585Q101.5 364.00897 101.171875 363.61835Q100.65625 363.00897 99.859375 363.00897Q99.125 363.00897 98.625 363.49335Q98.140625 363.97772 98.09375 364.80585ZM104.28125 368.50897L104.28125 362.29022L105.234375 362.29022L105.234375 363.22772Q105.59375 362.57147 105.890625 362.36835Q106.203125 362.1496 106.578125 362.1496Q107.109375 362.1496 107.65625 362.47772L107.296875 363.4621Q106.90625 363.22772 106.53125 363.22772Q106.171875 363.22772 105.890625 363.44647Q105.625 363.6496 105.515625 364.0246Q105.328125 364.5871 105.328125 365.24335L105.328125 368.50897L104.28125 368.50897ZM108.28125 368.50897L108.28125 362.29022L109.234375 362.29022L109.234375 363.22772Q109.59375 362.57147 109.890625 362.36835Q110.203125 362.1496 110.578125 362.1496Q111.109375 362.1496 111.65625 362.47772L111.296875 363.4621Q110.90625 363.22772 110.53125 363.22772Q110.171875 363.22772 109.890625 363.44647Q109.625 363.6496 109.515625 364.0246Q109.328125 364.5871 109.328125 365.24335L109.328125 368.50897L108.28125 368.50897ZM111.90625 365.3996Q111.90625 363.66522 112.859375 362.8371Q113.65625 362.1496 114.8125 362.1496Q116.09375 362.1496 116.90625 362.99335Q117.734375 363.82147 117.734375 365.30585Q117.734375 366.50897 117.375 367.19647Q117.015625 367.88397 116.3125 368.2746Q115.625 368.6496 114.8125 368.6496Q113.515625 368.6496 112.703125 367.82147Q111.90625 366.97772 111.90625 365.3996ZM112.984375 365.3996Q112.984375 366.5871 113.5 367.18085Q114.03125 367.7746 114.8125 367.7746Q115.609375 367.7746 116.125 367.18085Q116.640625 366.5871 116.640625 365.36835Q116.640625 364.2121 116.109375 363.61835Q115.59375 363.0246 114.8125 363.0246Q114.03125 363.0246 113.5 363.61835Q112.984375 364.19647 112.984375 365.3996ZM119.28125 368.50897L119.28125 362.29022L120.234375 362.29022L120.234375 363.22772Q120.59375 362.57147 120.890625 362.36835Q121.203125 362.1496 121.578125 362.1496Q122.109375 362.1496 122.65625 362.47772L122.296875 363.4621Q121.90625 363.22772 121.53125 363.22772Q121.171875 363.22772 120.890625 363.44647Q120.625 363.6496 120.515625 364.0246Q120.328125 364.5871 120.328125 365.24335L120.328125 368.50897L119.28125 368.50897ZM127.546875 366.50897L128.64062 366.63397Q128.39062 367.5871 127.6875 368.11835Q126.984375 368.6496 125.90625 368.6496Q124.546875 368.6496 123.734375 367.80585Q122.9375 366.9621 122.9375 365.44647Q122.9375 363.88397 123.75 363.0246Q124.5625 362.1496 125.84375 362.1496Q127.09375 362.1496 127.875 362.99335Q128.67188 363.8371 128.67188 365.38397Q128.67188 365.47772 128.67188 365.66522L124.03125 365.66522Q124.09375 366.69647 124.609375 367.24335Q125.125 367.7746 125.90625 367.7746Q126.484375 367.7746 126.890625 367.47772Q127.3125 367.16522 127.546875 366.50897ZM124.09375 364.80585L127.5625 364.80585Q127.5 364.00897 127.171875 363.61835Q126.65625 363.00897 125.859375 363.00897Q125.125 363.00897 124.625 363.49335Q124.140625 363.97772 124.09375 364.80585ZM129.875 366.6496L130.90625 366.49335Q131.0 367.11835 131.39062 367.44647Q131.79688 367.7746 132.53125 367.7746Q133.25 367.7746 133.59375 367.49335Q133.95312 367.19647 133.95312 366.79022Q133.95312 366.43085 133.64062 366.22772Q133.42188 366.0871 132.5625 365.86835Q131.40625 365.57147 130.95312 365.36835Q130.51562 365.1496 130.28125 364.7746Q130.04688 364.3996 130.04688 363.93085Q130.04688 363.5246 130.23438 363.16522Q130.42188 362.80585 130.75 362.57147Q131.0 362.3996 131.42188 362.2746Q131.84375 362.1496 132.34375 362.1496Q133.0625 362.1496 133.60938 362.36835Q134.17188 362.57147 134.4375 362.93085Q134.70312 363.29022 134.79688 363.88397L133.76562 364.0246Q133.70312 363.55585 133.35938 363.29022Q133.03125 363.00897 132.40625 363.00897Q131.6875 363.00897 131.375 363.25897Q131.0625 363.49335 131.0625 363.82147Q131.0625 364.0246 131.1875 364.18085Q131.32812 364.35272 131.59375 364.4621Q131.75 364.5246 132.53125 364.72772Q133.65625 365.04022 134.09375 365.22772Q134.53125 365.41522 134.78125 365.7746Q135.03125 366.13397 135.03125 366.68085Q135.03125 367.2121 134.71875 367.68085Q134.42188 368.13397 133.84375 368.3996Q133.26562 368.6496 132.53125 368.6496Q131.3125 368.6496 130.67188 368.1496Q130.04688 367.63397 129.875 366.6496Z" fill-rule="nonzero"/><path fill="#000000" d="M139.5 407.26562Q139.5 405.73438 139.8125 404.8125Q140.125 403.875 140.73438 403.375Q141.35938 402.875 142.29688 402.875Q142.98438 402.875 143.5 403.15625Q144.03125 403.4375 144.375 403.96875Q144.71875 404.48438 144.90625 405.23438Q145.09375 405.98438 145.09375 407.26562Q145.09375 408.78125 144.78125 409.70312Q144.48438 410.625 143.85938 411.14062Q143.25 411.64062 142.29688 411.64062Q141.0625 411.64062 140.34375 410.75Q139.5 409.6875 139.5 407.26562ZM140.57812 407.26562Q140.57812 409.375 141.07812 410.07812Q141.57812 410.78125 142.29688 410.78125Q143.03125 410.78125 143.51562 410.07812Q144.01562 409.375 144.01562 407.26562Q144.01562 405.14062 143.51562 404.45312Q143.03125 403.75 142.28125 403.75Q141.5625 403.75 141.125 404.35938Q140.57812 405.14062 140.57812 407.26562Z" fill-rule="nonzero"/><path fill="#000000" d="M292.21875 411.5L291.17188 411.5L291.17188 404.78125Q290.78125 405.14062 290.15625 405.51562Q289.54688 405.875 289.0625 406.04688L289.0625 405.03125Q289.9375 404.60938 290.59375 404.03125Q291.26562 403.4375 291.54688 402.875L292.21875 402.875L292.21875 411.5Z" fill-rule="nonzero"/><path fill="#000000" d="M442.54688 410.48438L442.54688 411.5L436.85938 411.5Q436.85938 411.125 436.98438 410.76562Q437.20312 410.1875 437.67188 409.625Q438.15625 409.0625 439.0625 408.32812Q440.46875 407.17188 440.95312 406.5Q441.45312 405.82812 441.45312 405.23438Q441.45312 404.60938 441.0 404.1875Q440.54688 403.75 439.82812 403.75Q439.0625 403.75 438.60938 404.20312Q438.15625 404.65625 438.14062 405.46875L437.0625 405.35938Q437.17188 404.14062 437.89062 403.51562Q438.625 402.875 439.85938 402.875Q441.09375 402.875 441.8125 403.5625Q442.53125 404.25 442.53125 405.26562Q442.53125 405.78125 442.3125 406.28125Q442.10938 406.76562 441.60938 407.32812Q441.125 407.875 440.0 408.82812Q439.04688 409.625 438.76562 409.92188Q438.5 410.20312 438.32812 410.48438L442.54688 410.48438Z" fill-rule="nonzero"/><path fill="#000000" d="M585.75 409.23438L586.8125 409.09375Q586.9844 409.98438 587.4219 410.39062Q587.8594 410.78125 588.4844 410.78125Q589.2344 410.78125 589.75 410.26562Q590.2656 409.75 590.2656 408.98438Q590.2656 408.26562 589.78125 407.79688Q589.3125 407.3125 588.5781 407.3125Q588.28125 407.3125 587.8281 407.4375L587.9531 406.5Q588.0625 406.51562 588.125 406.51562Q588.7969 406.51562 589.3281 406.17188Q589.875 405.8125 589.875 405.07812Q589.875 404.5 589.4844 404.125Q589.09375 403.73438 588.46875 403.73438Q587.8594 403.73438 587.4375 404.125Q587.03125 404.51562 586.9219 405.28125L585.8594 405.09375Q586.0469 404.04688 586.7344 403.46875Q587.4219 402.875 588.4375 402.875Q589.1406 402.875 589.7344 403.1875Q590.3281 403.48438 590.6406 404.0Q590.9531 404.51562 590.9531 405.10938Q590.9531 405.65625 590.65625 406.125Q590.3594 406.57812 589.78125 406.84375Q590.53125 407.01562 590.9531 407.57812Q591.375 408.125 591.375 408.96875Q591.375 410.09375 590.5469 410.875Q589.7344 411.65625 588.4844 411.65625Q587.3594 411.65625 586.6094 410.98438Q585.8594 410.29688 585.75 409.23438Z" fill-rule="nonzero"/><path fill="#000000" d="M737.875 411.5L737.875 409.4375L734.15625 409.4375L734.15625 408.46875L738.0781 402.90625L738.9375 402.90625L738.9375 408.46875L740.09375 408.46875L740.09375 409.4375L738.9375 409.4375L738.9375 411.5L737.875 411.5ZM737.875 408.46875L737.875 404.60938L735.1875 408.46875L737.875 408.46875Z" fill-rule="nonzero"/></svg>