<svg version="1.1" viewBox="0.0 0.0 728.0 450.0" fill="none" stroke="none" stroke-linecap="square" stroke-miterlimit="10" width="728" height="450" xmlns:xlink="http://www.w3.org/1999/xlink" xmlns="http://www.w3.org/2000/svg"><path fill="#ffffff" d="M0 0L728.0 0L728.0 450.0L0 450.0L0 0Z" fill-rule="nonzero"/><path stroke="#333333" stroke-width="1.0" stroke-linecap="butt" d="M92.5 22.5L92.5 407.5" fill-rule="nonzero"/><path stroke="#cccccc" stroke-width="1.0" stroke-linecap="butt" d="M215.5 22.5L215.5 407.5" fill-rule="nonzero"/><path stroke="#cccccc" stroke-width="1.0" stroke-linecap="butt" d="M337.5 22.5L337.5 407.5" fill-rule="nonzero"/><path stroke="#cccccc" stroke-width="1.0" stroke-linecap="butt" d="M460.5 22.5L460.5 407.5" fill-rule="nonzero"/><path stroke="#cccccc" stroke-width="1.0" stroke-linecap="butt" d="M582.5 22.5L582.5 407.5" fill-rule="nonzero"/><path stroke="#cccccc" stroke-width="1.0" stroke-linecap="butt" d="M705.5 22.5L705.5 407.5" fill-rule="nonzero"/><clipPath id="id_0"><path d="M92.5 22.5L705.5 22.5L705.5 407.5L92.5 407.5L92.5 22.5Z" clip-rule="nonzero"/></clipPath><path stroke="#000000" stroke-width="2.0" stroke-linecap="butt" stroke-opacity="0.0" clip-path="url(#id_0)" d="M92.0 50.0L92.0 33.0L703.0 33.0C704.10455 33.0 705.0 33.89543 705.0 35.0L705.0 48.0C705.0 49.10457 704.10455 50.0 703.0 50.0Z" fill-rule="nonzero"/><path fill="#4285f4" fill-opacity="0.3019608" clip-path="url(#id_0)" d="M92.0 50.0L92.0 33.0L703.0 33.0C704.10455 33.0 705.0 33.89543 705.0 35.0L705.0 48.0C705.0 49.10457 704.10455 50.0 703.0 50.0Z" fill-rule="nonzero"/><path stroke="#000000" stroke-width="2.0" stroke-linecap="butt" stroke-opacity="0.0" clip-path="url(#id_0)" d="M92.0 76.0L92.0 59.0L605.0 59.0C606.10455 59.0 607.0 59.89543 607.0 61.0L607.0 74.0C607.0 75.10457 606.10455 76.0 605.0 76.0Z" fill-rule="nonzero"/><path fill="#4285f4" fill-opacity="0.3019608" clip-path="url(#id_0)" d="M92.0 76.0L92.0 59.0L605.0 59.0C606.10455 59.0 607.0 59.89543 607.0 61.0L607.0 74.0C607.0 75.10457 606.10455 76.0 605.0 76.0Z" fill-rule="nonzero"/><path stroke="#000000" stroke-width="2.0" stroke-linecap="butt" stroke-opacity="0.0" clip-path="url(#id_0)" d="M92.0 103.0L92.0 86.0L581.0 86.0C582.10455 86.0 583.0 86.89543 583.0 88.0L583.0 101.0C583.0 102.10457 582.10455 103.0 581.0 103.0Z" fill-rule="nonzero"/><path fill="#4285f4" fill-opacity="0.3019608" clip-path="url(#id_0)" d="M92.0 103.0L92.0 86.0L581.0 86.0C582.10455 86.0 583.0 86.89543 583.0 88.0L583.0 101.0C583.0 102.10457 582.10455 103.0 581.0 103.0Z" fill-rule="nonzero"/><path stroke="#000000" stroke-width="2.0" stroke-linecap="butt" stroke-opacity="0.0" clip-path="url(#id_0)" d="M92.0 130.0L92.0 113.0L483.0 113.0C484.10458 113.0 485.0 113.89543 485.0 115.0L485.0 128.0C485.0 129.10457 484.10458 130.0 483.0 130.0Z" fill-rule="nonzero"/><path fill="#4285f4" fill-opacity="0.3019608" clip-path="url(#id_0)" d="M92.0 130.0L92.0 113.0L483.0 113.0C484.10458 113.0 485.0 113.89543 485.0 115.0L485.0 128.0C485.0 129.10457 484.10458 130.0 483.0 130.0Z" fill-rule="nonzero"/><path stroke="#000000" stroke-width="2.0" stroke-linecap="butt" stroke-opacity="0.0" clip-path="url(#id_0)" d="M92.0 157.0L92.0 140.0L483.0 140.0C484.10458 140.0 485.0 140.89543 485.0 142.0L485.0 155.0C485.0 156.10457 484.10458 157.0 483.0 157.0Z" fill-rule="nonzero"/><path fill="#4285f4" fill-opacity="0.3019608" clip-path="url(#id_0)" d="M92.0 157.0L92.0 140.0L483.0 140.0C484.10458 140.0 485.0 140.89543 485.0 142.0L485.0 155.0C485.0 156.10457 484.10458 157.0 483.0 157.0Z" fill-rule="nonzero"/><path stroke="#000000" stroke-width="2.0" stroke-linecap="butt" stroke-opacity="0.0" clip-path="url(#id_0)" d="M92.0 184.0L92.0 167.0L434.0 167.0C435.10458 167.0 436.0 167.89543 436.0 169.0L436.0 182.0C436.0 183.10457 435.10458 184.0 434.0 184.0Z" fill-rule="nonzero"/><path fill="#4285f4" fill-opacity="0.3019608" clip-path="url(#id_0)" d="M92.0 184.0L92.0 167.0L434.0 167.0C435.10458 167.0 436.0 167.89543 436.0 169.0L436.0 182.0C436.0 183.10457 435.10458 184.0 434.0 184.0Z" fill-rule="nonzero"/><path stroke="#000000" stroke-width="2.0" stroke-linecap="butt" stroke-opacity="0.0" clip-path="url(#id_0)" d="M92.0 211.0L92.0 194.0L409.0 194.0C410.10458 194.0 411.0 194.89543 411.0 196.0L411.0 209.0C411.0 210.10457 410.10458 211.0 409.0 211.0Z" fill-rule="nonzero"/><path fill="#4285f4" fill-opacity="0.3019608" clip-path="url(#id_0)" d="M92.0 211.0L92.0 194.0L409.0 194.0C410.10458 194.0 411.0 194.89543 411.0 196.0L411.0 209.0C411.0 210.10457 410.10458 211.0 409.0 211.0Z" fill-rule="nonzero"/><path stroke="#000000" stroke-width="2.0" stroke-linecap="butt" stroke-opacity="0.0" clip-path="url(#id_0)" d="M92.0 237.0L92.0 220.0L385.0 220.0C386.10458 220.0 387.0 220.89543 387.0 222.0L387.0 235.0C387.0 236.10457 386.10458 237.0 385.0 237.0Z" fill-rule="nonzero"/><path fill="#4285f4" fill-opacity="0.3019608" clip-path="url(#id_0)" d="M92.0 237.0L92.0 220.0L385.0 220.0C386.10458 220.0 387.0 220.89543 387.0 222.0L387.0 235.0C387.0 236.10457 386.10458 237.0 385.0 237.0Z" fill-rule="nonzero"/><path stroke="#000000" stroke-width="2.0" stroke-linecap="butt" stroke-opacity="0.0" clip-path="url(#id_0)" d="M92.0 264.0L92.0 247.0L360.0 247.0C361.10458 247.0 362.0 247.89543 362.0 249.0L362.0 262.0C362.0 263.10458 361.10458 264.0 360.0 264.0Z" fill-rule="nonzero"/><path fill="#4285f4" fill-opacity="0.3019608" clip-path="url(#id_0)" d="M92.0 264.0L92.0 247.0L360.0 247.0C361.10458 247.0 362.0 247.89543 362.0 249.0L362.0 262.0C362.0 263.10458 361.10458 264.0 360.0 264.0Z" fill-rule="nonzero"/><path stroke="#000000" stroke-width="2.0" stroke-linecap="butt" stroke-opacity="0.0" clip-path="url(#id_0)" d="M92.0 291.0L92.0 274.0L336.0 274.0C337.10458 274.0 338.0 274.89542 338.0 276.0L338.0 289.0C338.0 290.10458 337.10458 291.0 336.0 291.0Z" fill-rule="nonzero"/><path fill="#4285f4" fill-opacity="0.3019608" clip-path="url(#id_0)" d="M92.0 291.0L92.0 274.0L336.0 274.0C337.10458 274.0 338.0 274.89542 338.0 276.0L338.0 289.0C338.0 290.10458 337.10458 291.0 336.0 291.0Z" fill-rule="nonzero"/><path stroke="#000000" stroke-width="2.0" stroke-linecap="butt" stroke-opacity="0.0" clip-path="url(#id_0)" d="M92.0 318.0L92.0 301.0L311.0 301.0C312.10458 301.0 313.0 301.89542 313.0 303.0L313.0 316.0C313.0 317.10458 312.10458 318.0 311.0 318.0Z" fill-rule="nonzero"/><path fill="#4285f4" fill-opacity="0.3019608" clip-path="url(#id_0)" d="M92.0 318.0L92.0 301.0L311.0 301.0C312.10458 301.0 313.0 301.89542 313.0 303.0L313.0 316.0C313.0 317.10458 312.10458 318.0 311.0 318.0Z" fill-rule="nonzero"/><path stroke="#000000" stroke-width="2.0" stroke-linecap="butt" stroke-opacity="0.0" clip-path="url(#id_0)" d="M92.0 345.0L92.0 328.0L311.0 328.0C312.10458 328.0 313.0 328.89542 313.0 330.0L313.0 343.0C313.0 344.10458 312.10458 345.0 311.0 345.0Z" fill-rule="nonzero"/><path fill="#4285f4" fill-opacity="0.3019608" clip-path="url(#id_0)" d="M92.0 345.0L92.0 328.0L311.0 328.0C312.10458 328.0 313.0 328.89542 313.0 330.0L313.0 343.0C313.0 344.10458 312.10458 345.0 311.0 345.0Z" fill-rule="nonzero"/><path stroke="#000000" stroke-width="2.0" stroke-linecap="butt" stroke-opacity="0.0" clip-path="url(#id_0)" d="M92.0 372.0L92.0 355.0L311.0 355.0C312.10458 355.0 313.0 355.89542 313.0 357.0L313.0 370.0C313.0 371.10458 312.10458 372.0 311.0 372.0Z" fill-rule="nonzero"/><path fill="#4285f4" fill-opacity="0.3019608" clip-path="url(#id_0)" d="M92.0 372.0L92.0 355.0L311.0 355.0C312.10458 355.0 313.0 355.89542 313.0 357.0L313.0 370.0C313.0 371.10458 312.10458 372.0 311.0 372.0Z" fill-rule="nonzero"/><path stroke="#000000" stroke-width="2.0" stroke-linecap="butt" stroke-opacity="0.0" clip-path="url(#id_0)" d="M92.0 398.0L92.0 381.0L311.0 381.0C312.10458 381.0 313.0 381.89542 313.0 383.0L313.0 396.0C313.0 397.10458 312.10458 398.0 311.0 398.0Z" fill-rule="nonzero"/><path fill="#4285f4" fill-opacity="0.3019608" clip-path="url(#id_0)" d="M92.0 398.0L92.0 381.0L311.0 381.0C312.10458 381.0 313.0 381.89542 313.0 383.0L313.0 396.0C313.0 397.10458 312.10458 398.0 311.0 398.0Z" fill-rule="nonzero"/><path fill="#000000" d="M64.265625 44.609756L63.28125 44.609756L63.28125 36.016006L64.34375 36.016006L64.34375 39.078506Q65.015625 38.25038 66.046875 38.25038Q66.625 38.25038 67.125 38.484756Q67.640625 38.703506 67.96875 39.12538Q68.3125 39.547256 68.5 40.141006Q68.6875 40.734756 68.6875 41.40663Q68.6875 43.00038 67.890625 43.87538Q67.09375 44.75038 66.0 44.75038Q64.890625 44.75038 64.265625 43.828506L64.265625 44.609756ZM64.25 41.453506Q64.25 42.56288 64.5625 43.06288Q65.0625 43.87538 65.90625 43.87538Q66.59375 43.87538 67.09375 43.28163Q67.609375 42.68788 67.609375 41.484756Q67.609375 40.266006 67.125 39.68788Q66.640625 39.109756 65.953125 39.109756Q65.265625 39.109756 64.75 39.71913Q64.25 40.31288 64.25 41.453506ZM70.265625 44.609756L70.265625 36.016006L71.328125 36.016006L71.328125 44.609756L70.265625 44.609756ZM77.359375 43.84413Q76.765625 44.34413 76.21875 44.547256Q75.6875 44.75038 75.0625 44.75038Q74.03125 44.75038 73.484375 44.25038Q72.9375 43.75038 72.9375 42.96913Q72.9375 42.516006 73.140625 42.141006Q73.34375 41.75038 73.6875 41.53163Q74.03125 41.297256 74.453125 41.18788Q74.75 41.09413 75.390625 41.016006Q76.65625 40.87538 77.265625 40.65663Q77.265625 40.43788 77.265625 40.391006Q77.265625 39.734756 76.96875 39.46913Q76.5625 39.12538 75.765625 39.12538Q75.03125 39.12538 74.671875 39.391006Q74.3125 39.641006 74.140625 40.297256L73.109375 40.15663Q73.25 39.50038 73.578125 39.09413Q73.90625 38.68788 74.515625 38.46913Q75.125 38.25038 75.921875 38.25038Q76.71875 38.25038 77.21875 38.43788Q77.71875 38.62538 77.953125 38.90663Q78.1875 39.18788 78.28125 39.62538Q78.328125 39.891006 78.328125 40.59413L78.328125 42.00038Q78.328125 43.46913 78.390625 43.859756Q78.46875 44.25038 78.671875 44.609756L77.5625 44.609756Q77.40625 44.28163 77.359375 43.84413ZM77.265625 41.484756Q76.6875 41.71913 75.546875 41.891006Q74.890625 41.984756 74.625 42.109756Q74.359375 42.21913 74.203125 42.43788Q74.0625 42.65663 74.0625 42.93788Q74.0625 43.359756 74.375 43.641006Q74.703125 43.922256 75.3125 43.922256Q75.921875 43.922256 76.390625 43.65663Q76.875 43.391006 77.09375 42.922256Q77.265625 42.56288 77.265625 41.87538L77.265625 41.484756ZM79.875 42.75038L80.90625 42.59413Q81.0 43.21913 81.390625 43.547256Q81.796875 43.87538 82.53125 43.87538Q83.25 43.87538 83.59375 43.59413Q83.953125 43.297256 83.953125 42.891006Q83.953125 42.53163 83.640625 42.328506Q83.421875 42.18788 82.5625 41.96913Q81.40625 41.672256 80.953125 41.46913Q80.515625 41.25038 80.28125 40.87538Q80.046875 40.50038 80.046875 40.03163Q80.046875 39.62538 80.234375 39.266006Q80.421875 38.90663 80.75 38.672256Q81.0 38.50038 81.421875 38.37538Q81.84375 38.25038 82.34375 38.25038Q83.0625 38.25038 83.609375 38.46913Q84.171875 38.672256 84.4375 39.03163Q84.703125 39.391006 84.796875 39.984756L83.765625 40.12538Q83.703125 39.65663 83.359375 39.391006Q83.03125 39.109756 82.40625 39.109756Q81.6875 39.109756 81.375 39.359756Q81.0625 39.59413 81.0625 39.922256Q81.0625 40.12538 81.1875 40.28163Q81.328125 40.453506 81.59375 40.56288Q81.75 40.62538 82.53125 40.828506Q83.65625 41.141006 84.09375 41.328506Q84.53125 41.516006 84.78125 41.87538Q85.03125 42.234756 85.03125 42.78163Q85.03125 43.31288 84.71875 43.78163Q84.421875 44.234756 83.84375 44.50038Q83.265625 44.75038 82.53125 44.75038Q81.3125 44.75038 80.671875 44.25038Q80.046875 43.734756 79.875 42.75038Z" fill-rule="nonzero"/><path fill="#000000" d="M23.09375 71.95465L24.125 72.1109Q24.1875 72.57965 24.484375 72.7984Q24.875 73.095276 25.546875 73.095276Q26.28125 73.095276 26.671875 72.7984Q27.078125 72.501526 27.21875 71.9859Q27.3125 71.657776 27.296875 70.626526Q26.609375 71.439026 25.578125 71.439026Q24.296875 71.439026 23.59375 70.51715Q22.890625 69.57965 22.890625 68.2984Q22.890625 67.407776 23.203125 66.657776Q23.53125 65.89215 24.140625 65.4859Q24.75 65.07965 25.578125 65.07965Q26.6875 65.07965 27.40625 65.970276L27.40625 65.220276L28.375 65.220276L28.375 70.595276Q28.375 72.0484 28.078125 72.657776Q27.78125 73.26715 27.140625 73.6109Q26.5 73.970276 25.5625 73.970276Q24.453125 73.970276 23.765625 73.470276Q23.078125 72.970276 23.09375 71.95465ZM23.96875 68.220276Q23.96875 69.439026 24.453125 70.001526Q24.9375 70.564026 25.671875 70.564026Q26.40625 70.564026 26.890625 70.001526Q27.390625 69.439026 27.390625 68.251526Q27.390625 67.1109 26.875 66.532776Q26.375 65.95465 25.65625 65.95465Q24.953125 65.95465 24.453125 66.532776Q23.96875 67.095276 23.96875 68.220276ZM29.90625 68.32965Q29.90625 66.595276 30.859375 65.76715Q31.65625 65.07965 32.8125 65.07965Q34.09375 65.07965 34.90625 65.9234Q35.734375 66.751526 35.734375 68.2359Q35.734375 69.439026 35.375 70.126526Q35.015625 70.814026 34.3125 71.20465Q33.625 71.57965 32.8125 71.57965Q31.515625 71.57965 30.703125 70.751526Q29.90625 69.907776 29.90625 68.32965ZM30.984375 68.32965Q30.984375 69.51715 31.5 70.1109Q32.03125 70.70465 32.8125 70.70465Q33.609375 70.70465 34.125 70.1109Q34.640625 69.51715 34.640625 68.2984Q34.640625 67.14215 34.109375 66.5484Q33.59375 65.95465 32.8125 65.95465Q32.03125 65.95465 31.5 66.5484Q30.984375 67.126526 30.984375 68.32965ZM38.265625 71.439026L37.28125 71.439026L37.28125 62.845276L38.34375 62.845276L38.34375 65.907776Q39.015625 65.07965 40.046875 65.07965Q40.625 65.07965 41.125 65.314026Q41.640625 65.532776 41.96875 65.95465Q42.3125 66.376526 42.5 66.970276Q42.6875 67.564026 42.6875 68.2359Q42.6875 69.82965 41.890625 70.70465Q41.09375 71.57965 40.0 71.57965Q38.890625 71.57965 38.265625 70.657776L38.265625 71.439026ZM38.25 68.282776Q38.25 69.39215 38.5625 69.89215Q39.0625 70.70465 39.90625 70.70465Q40.59375 70.70465 41.09375 70.1109Q41.609375 69.51715 41.609375 68.314026Q41.609375 67.095276 41.125 66.51715Q40.640625 65.939026 39.953125 65.939026Q39.265625 65.939026 38.75 66.5484Q38.25 67.14215 38.25 68.282776ZM48.546875 69.439026L49.640625 69.564026Q49.390625 70.51715 48.6875 71.0484Q47.984375 71.57965 46.90625 71.57965Q45.546875 71.57965 44.734375 70.7359Q43.9375 69.89215 43.9375 68.376526Q43.9375 66.814026 44.75 65.95465Q45.5625 65.07965 46.84375 65.07965Q48.09375 65.07965 48.875 65.9234Q49.671875 66.76715 49.671875 68.314026Q49.671875 68.407776 49.671875 68.595276L45.03125 68.595276Q45.09375 69.626526 45.609375 70.1734Q46.125 70.70465 46.90625 70.70465Q47.484375 70.70465 47.890625 70.407776Q48.3125 70.095276 48.546875 69.439026ZM45.09375 67.7359L48.5625 67.7359Q48.5 66.939026 48.171875 66.5484Q47.65625 65.939026 46.859375 65.939026Q46.125 65.939026 45.625 66.4234Q45.140625 66.907776 45.09375 67.7359ZM51.28125 71.439026L51.28125 65.220276L52.234375 65.220276L52.234375 66.157776Q52.59375 65.501526 52.890625 65.2984Q53.203125 65.07965 53.578125 65.07965Q54.109375 65.07965 54.65625 65.407776L54.296875 66.39215Q53.90625 66.157776 53.53125 66.157776Q53.171875 66.157776 52.890625 66.376526Q52.625 66.57965 52.515625 66.95465Q52.328125 67.51715 52.328125 68.1734L52.328125 71.439026L51.28125 71.439026ZM55.296875 71.439026L55.296875 65.220276L56.234375 65.220276L56.234375 66.095276Q56.921875 65.07965 58.21875 65.07965Q58.78125 65.07965 59.25 65.282776Q59.734375 65.4859 59.96875 65.814026Q60.203125 66.14215 60.296875 66.57965Q60.34375 66.876526 60.34375 67.6109L60.34375 71.439026L59.296875 71.439026L59.296875 67.657776Q59.296875 67.001526 59.171875 66.689026Q59.046875 66.376526 58.734375 66.189026Q58.421875 65.9859 58.0 65.9859Q57.328125 65.9859 56.828125 66.4234Q56.34375 66.845276 56.34375 68.032776L56.34375 71.439026L55.296875 71.439026ZM66.359375 70.6734Q65.765625 71.1734 65.21875 71.376526Q64.6875 71.57965 64.0625 71.57965Q63.03125 71.57965 62.484375 71.07965Q61.9375 70.57965 61.9375 69.7984Q61.9375 69.345276 62.140625 68.970276Q62.34375 68.57965 62.6875 68.3609Q63.03125 68.126526 63.453125 68.01715Q63.75 67.9234 64.390625 67.845276Q65.65625 67.70465 66.265625 67.4859Q66.265625 67.26715 66.265625 67.220276Q66.265625 66.564026 65.96875 66.2984Q65.5625 65.95465 64.765625 65.95465Q64.03125 65.95465 63.671875 66.220276Q63.3125 66.470276 63.140625 67.126526L62.109375 66.9859Q62.25 66.32965 62.578125 65.9234Q62.90625 65.51715 63.515625 65.2984Q64.125 65.07965 64.921875 65.07965Q65.71875 65.07965 66.21875 65.26715Q66.71875 65.45465 66.953125 65.7359Q67.1875 66.01715 67.28125 66.45465Q67.328125 66.720276 67.328125 67.4234L67.328125 68.82965Q67.328125 70.2984 67.390625 70.689026Q67.46875 71.07965 67.671875 71.439026L66.5625 71.439026Q66.40625 71.1109 66.359375 70.6734ZM66.265625 68.314026Q65.6875 68.5484 64.546875 68.720276Q63.890625 68.814026 63.625 68.939026Q63.359375 69.0484 63.203125 69.26715Q63.0625 69.4859 63.0625 69.76715Q63.0625 70.189026 63.375 70.470276Q63.703125 70.751526 64.3125 70.751526Q64.921875 70.751526 65.390625 70.4859Q65.875 70.220276 66.09375 69.751526Q66.265625 69.39215 66.265625 68.70465L66.265625 68.314026ZM73.328125 71.439026L73.328125 70.657776Q72.734375 71.57965 71.59375 71.57965Q70.84375 71.57965 70.21875 71.1734Q69.59375 70.751526 69.25 70.01715Q68.90625 69.282776 68.90625 68.32965Q68.90625 67.407776 69.21875 66.64215Q69.53125 65.876526 70.15625 65.4859Q70.78125 65.07965 71.546875 65.07965Q72.109375 65.07965 72.546875 65.314026Q72.984375 65.5484 73.265625 65.9234L73.265625 62.845276L74.3125 62.845276L74.3125 71.439026L73.328125 71.439026ZM70.0 68.32965Q70.0 69.532776 70.5 70.126526Q71.0 70.70465 71.6875 70.70465Q72.375 70.70465 72.859375 70.14215Q73.34375 69.57965 73.34375 68.4234Q73.34375 67.14215 72.84375 66.5484Q72.359375 65.95465 71.640625 65.95465Q70.9375 65.95465 70.46875 66.532776Q70.0 67.095276 70.0 68.32965ZM75.90625 68.32965Q75.90625 66.595276 76.859375 65.76715Q77.65625 65.07965 78.8125 65.07965Q80.09375 65.07965 80.90625 65.9234Q81.734375 66.751526 81.734375 68.2359Q81.734375 69.439026 81.375 70.126526Q81.015625 70.814026 80.3125 71.20465Q79.625 71.57965 78.8125 71.57965Q77.515625 71.57965 76.703125 70.751526Q75.90625 69.907776 75.90625 68.32965ZM76.984375 68.32965Q76.984375 69.51715 77.5 70.1109Q78.03125 70.70465 78.8125 70.70465Q79.609375 70.70465 80.125 70.1109Q80.640625 69.51715 80.640625 68.2984Q80.640625 67.14215 80.109375 66.5484Q79.59375 65.95465 78.8125 65.95465Q78.03125 65.95465 77.5 66.5484Q76.984375 67.126526 76.984375 68.32965ZM83.28125 71.439026L83.28125 65.220276L84.234375 65.220276L84.234375 66.157776Q84.59375 65.501526 84.890625 65.2984Q85.203125 65.07965 85.578125 65.07965Q86.109375 65.07965 86.65625 65.407776L86.296875 66.39215Q85.90625 66.157776 85.53125 66.157776Q85.171875 66.157776 84.890625 66.376526Q84.625 66.57965 84.515625 66.95465Q84.328125 67.51715 84.328125 68.1734L84.328125 71.439026L83.28125 71.439026Z" fill-rule="nonzero"/><path fill="#000000" d="M49.359375 95.987045L50.390625 96.12767Q50.21875 97.19017 49.515625 97.799545Q48.8125 98.40892 47.796875 98.40892Q46.515625 98.40892 45.734375 97.580795Q44.96875 96.737045 44.96875 95.174545Q44.96875 94.174545 45.296875 93.424545Q45.640625 92.65892 46.3125 92.28392Q47.0 91.90892 47.8125 91.90892Q48.8125 91.90892 49.453125 92.424545Q50.109375 92.924545 50.296875 93.87767L49.265625 94.03392Q49.125 93.40892 48.75 93.09642Q48.375 92.768295 47.84375 92.768295Q47.046875 92.768295 46.546875 93.34642Q46.046875 93.90892 46.046875 95.143295Q46.046875 96.40892 46.53125 96.97142Q47.015625 97.53392 47.78125 97.53392Q48.40625 97.53392 48.8125 97.15892Q49.234375 96.78392 49.359375 95.987045ZM50.90625 95.15892Q50.90625 93.424545 51.859375 92.59642Q52.65625 91.90892 53.8125 91.90892Q55.09375 91.90892 55.90625 92.75267Q56.734375 93.580795 56.734375 95.06517Q56.734375 96.268295 56.375 96.955795Q56.015625 97.643295 55.3125 98.03392Q54.625 98.40892 53.8125 98.40892Q52.515625 98.40892 51.703125 97.580795Q50.90625 96.737045 50.90625 95.15892ZM51.984375 95.15892Q51.984375 96.34642 52.5 96.94017Q53.03125 97.53392 53.8125 97.53392Q54.609375 97.53392 55.125 96.94017Q55.640625 96.34642 55.640625 95.12767Q55.640625 93.97142 55.109375 93.37767Q54.59375 92.78392 53.8125 92.78392Q53.03125 92.78392 52.5 93.37767Q51.984375 93.955795 51.984375 95.15892ZM58.28125 98.268295L58.28125 92.049545L59.234375 92.049545L59.234375 92.987045Q59.59375 92.330795 59.890625 92.12767Q60.203125 91.90892 60.578125 91.90892Q61.109375 91.90892 61.65625 92.237045L61.296875 93.22142Q60.90625 92.987045 60.53125 92.987045Q60.171875 92.987045 59.890625 93.205795Q59.625 93.40892 59.515625 93.78392Q59.328125 94.34642 59.328125 95.00267L59.328125 98.268295L58.28125 98.268295ZM62.28125 98.268295L62.28125 92.049545L63.234375 92.049545L63.234375 92.987045Q63.59375 92.330795 63.890625 92.12767Q64.203125 91.90892 64.578125 91.90892Q65.109375 91.90892 65.65625 92.237045L65.296875 93.22142Q64.90625 92.987045 64.53125 92.987045Q64.171875 92.987045 63.890625 93.205795Q63.625 93.40892 63.515625 93.78392Q63.328125 94.34642 63.328125 95.00267L63.328125 98.268295L62.28125 98.268295ZM70.546875 96.268295L71.640625 96.393295Q71.390625 97.34642 70.6875 97.87767Q69.984375 98.40892 68.90625 98.40892Q67.546875 98.40892 66.734375 97.56517Q65.9375 96.72142 65.9375 95.205795Q65.9375 93.643295 66.75 92.78392Q67.5625 91.90892 68.84375 91.90892Q70.09375 91.90892 70.875 92.75267Q71.671875 93.59642 71.671875 95.143295Q71.671875 95.237045 71.671875 95.424545L67.03125 95.424545Q67.09375 96.455795 67.609375 97.00267Q68.125 97.53392 68.90625 97.53392Q69.484375 97.53392 69.890625 97.237045Q70.3125 96.924545 70.546875 96.268295ZM67.09375 94.56517L70.5625 94.56517Q70.5 93.768295 70.171875 93.37767Q69.65625 92.768295 68.859375 92.768295Q68.125 92.768295 67.625 93.25267Q67.140625 93.737045 67.09375 94.56517ZM77.359375 97.50267Q76.765625 98.00267 76.21875 98.205795Q75.6875 98.40892 75.0625 98.40892Q74.03125 98.40892 73.484375 97.90892Q72.9375 97.40892 72.9375 96.62767Q72.9375 96.174545 73.140625 95.799545Q73.34375 95.40892 73.6875 95.19017Q74.03125 94.955795 74.453125 94.84642Q74.75 94.75267 75.390625 94.674545Q76.65625 94.53392 77.265625 94.31517Q77.265625 94.09642 77.265625 94.049545Q77.265625 93.393295 76.96875 93.12767Q76.5625 92.78392 75.765625 92.78392Q75.03125 92.78392 74.671875 93.049545Q74.3125 93.299545 74.140625 93.955795L73.109375 93.81517Q73.25 93.15892 73.578125 92.75267Q73.90625 92.34642 74.515625 92.12767Q75.125 91.90892 75.921875 91.90892Q76.71875 91.90892 77.21875 92.09642Q77.71875 92.28392 77.953125 92.56517Q78.1875 92.84642 78.28125 93.28392Q78.328125 93.549545 78.328125 94.25267L78.328125 95.65892Q78.328125 97.12767 78.390625 97.518295Q78.46875 97.90892 78.671875 98.268295L77.5625 98.268295Q77.40625 97.94017 77.359375 97.50267ZM77.265625 95.143295Q76.6875 95.37767 75.546875 95.549545Q74.890625 95.643295 74.625 95.768295Q74.359375 95.87767 74.203125 96.09642Q74.0625 96.31517 74.0625 96.59642Q74.0625 97.018295 74.375 97.299545Q74.703125 97.580795 75.3125 97.580795Q75.921875 97.580795 76.390625 97.31517Q76.875 97.049545 77.09375 96.580795Q77.265625 96.22142 77.265625 95.53392L77.265625 95.143295ZM79.875 96.40892L80.90625 96.25267Q81.0 96.87767 81.390625 97.205795Q81.796875 97.53392 82.53125 97.53392Q83.25 97.53392 83.59375 97.25267Q83.953125 96.955795 83.953125 96.549545Q83.953125 96.19017 83.640625 95.987045Q83.421875 95.84642 82.5625 95.62767Q81.40625 95.330795 80.953125 95.12767Q80.515625 94.90892 80.28125 94.53392Q80.046875 94.15892 80.046875 93.69017Q80.046875 93.28392 80.234375 92.924545Q80.421875 92.56517 80.75 92.330795Q81.0 92.15892 81.421875 92.03392Q81.84375 91.90892 82.34375 91.90892Q83.0625 91.90892 83.609375 92.12767Q84.171875 92.330795 84.4375 92.69017Q84.703125 93.049545 84.796875 93.643295L83.765625 93.78392Q83.703125 93.31517 83.359375 93.049545Q83.03125 92.768295 82.40625 92.768295Q81.6875 92.768295 81.375 93.018295Q81.0625 93.25267 81.0625 93.580795Q81.0625 93.78392 81.1875 93.94017Q81.328125 94.112045 81.59375 94.22142Q81.75 94.28392 82.53125 94.487045Q83.65625 94.799545 84.09375 94.987045Q84.53125 95.174545 84.78125 95.53392Q85.03125 95.893295 85.03125 96.44017Q85.03125 96.97142 84.71875 97.44017Q84.421875 97.893295 83.84375 98.15892Q83.265625 98.40892 82.53125 98.40892Q81.3125 98.40892 80.671875 97.90892Q80.046875 97.393295 79.875 96.40892Z" fill-rule="nonzero"/><path fill="#000000" d="M48.296875 127.48819L48.296875 118.878815L49.25 118.878815L49.25 119.67569Q49.59375 119.20694 50.015625 118.972565Q50.453125 118.73819 51.0625 118.73819Q51.859375 118.73819 52.46875 119.14444Q53.078125 119.55069 53.375 120.30069Q53.6875 121.05069 53.6875 121.941315Q53.6875 122.89444 53.34375 123.660065Q53.015625 124.42569 52.359375 124.83194Q51.703125 125.23819 50.984375 125.23819Q50.453125 125.23819 50.03125 125.01944Q49.609375 124.785065 49.34375 124.45694L49.34375 127.48819L48.296875 127.48819ZM49.25 122.01944Q49.25 123.222565 49.734375 123.80069Q50.21875 124.36319 50.90625 124.36319Q51.609375 124.36319 52.109375 123.76944Q52.609375 123.17569 52.609375 121.92569Q52.609375 120.73819 52.125 120.160065Q51.640625 119.566315 50.953125 119.566315Q50.28125 119.566315 49.765625 120.191315Q49.25 120.816315 49.25 122.01944ZM54.90625 121.98819Q54.90625 120.253815 55.859375 119.42569Q56.65625 118.73819 57.8125 118.73819Q59.09375 118.73819 59.90625 119.58194Q60.734375 120.410065 60.734375 121.89444Q60.734375 123.097565 60.375 123.785065Q60.015625 124.472565 59.3125 124.86319Q58.625 125.23819 57.8125 125.23819Q56.515625 125.23819 55.703125 124.410065Q54.90625 123.566315 54.90625 121.98819ZM55.984375 121.98819Q55.984375 123.17569 56.5 123.76944Q57.03125 124.36319 57.8125 124.36319Q58.609375 124.36319 59.125 123.76944Q59.640625 123.17569 59.640625 121.95694Q59.640625 120.80069 59.109375 120.20694Q58.59375 119.61319 57.8125 119.61319Q57.03125 119.61319 56.5 120.20694Q55.984375 120.785065 55.984375 121.98819ZM62.265625 125.097565L62.265625 116.503815L63.328125 116.503815L63.328125 125.097565L62.265625 125.097565ZM65.296875 117.722565L65.296875 116.503815L66.359375 116.503815L66.359375 117.722565L65.296875 117.722565ZM65.296875 125.097565L65.296875 118.878815L66.359375 118.878815L66.359375 125.097565L65.296875 125.097565ZM72.359375 122.816315L73.390625 122.95694Q73.21875 124.01944 72.515625 124.628815Q71.8125 125.23819 70.796875 125.23819Q69.515625 125.23819 68.734375 124.410065Q67.96875 123.566315 67.96875 122.003815Q67.96875 121.003815 68.296875 120.253815Q68.640625 119.48819 69.3125 119.11319Q70.0 118.73819 70.8125 118.73819Q71.8125 118.73819 72.453125 119.253815Q73.109375 119.753815 73.296875 120.70694L72.265625 120.86319Q72.125 120.23819 71.75 119.92569Q71.375 119.597565 70.84375 119.597565Q70.046875 119.597565 69.546875 120.17569Q69.046875 120.73819 69.046875 121.972565Q69.046875 123.23819 69.53125 123.80069Q70.015625 124.36319 70.78125 124.36319Q71.40625 124.36319 71.8125 123.98819Q72.234375 123.61319 72.359375 122.816315ZM74.296875 117.722565L74.296875 116.503815L75.359375 116.503815L75.359375 117.722565L74.296875 117.722565ZM74.296875 125.097565L74.296875 118.878815L75.359375 118.878815L75.359375 125.097565L74.296875 125.097565ZM81.359375 124.33194Q80.765625 124.83194 80.21875 125.035065Q79.6875 125.23819 79.0625 125.23819Q78.03125 125.23819 77.484375 124.73819Q76.9375 124.23819 76.9375 123.45694Q76.9375 123.003815 77.140625 122.628815Q77.34375 122.23819 77.6875 122.01944Q78.03125 121.785065 78.453125 121.67569Q78.75 121.58194 79.390625 121.503815Q80.65625 121.36319 81.265625 121.14444Q81.265625 120.92569 81.265625 120.878815Q81.265625 120.222565 80.96875 119.95694Q80.5625 119.61319 79.765625 119.61319Q79.03125 119.61319 78.671875 119.878815Q78.3125 120.128815 78.140625 120.785065L77.109375 120.64444Q77.25 119.98819 77.578125 119.58194Q77.90625 119.17569 78.515625 118.95694Q79.125 118.73819 79.921875 118.73819Q80.71875 118.73819 81.21875 118.92569Q81.71875 119.11319 81.953125 119.39444Q82.1875 119.67569 82.28125 120.11319Q82.328125 120.378815 82.328125 121.08194L82.328125 122.48819Q82.328125 123.95694 82.390625 124.347565Q82.46875 124.73819 82.671875 125.097565L81.5625 125.097565Q81.40625 124.76944 81.359375 124.33194ZM81.265625 121.972565Q80.6875 122.20694 79.546875 122.378815Q78.890625 122.472565 78.625 122.597565Q78.359375 122.70694 78.203125 122.92569Q78.0625 123.14444 78.0625 123.42569Q78.0625 123.847565 78.375 124.128815Q78.703125 124.410065 79.3125 124.410065Q79.921875 124.410065 80.390625 124.14444Q80.875 123.878815 81.09375 123.410065Q81.265625 123.05069 81.265625 122.36319L81.265625 121.972565ZM84.265625 125.097565L84.265625 116.503815L85.328125 116.503815L85.328125 125.097565L84.265625 125.097565Z" fill-rule="nonzero"/><path fill="#000000" d="M58.28125 151.92683L58.28125 145.70808L59.234375 145.70808L59.234375 146.64558Q59.59375 145.98933 59.890625 145.78621Q60.203125 145.56746 60.578125 145.56746Q61.109375 145.56746 61.65625 145.89558L61.296875 146.87996Q60.90625 146.64558 60.53125 146.64558Q60.171875 146.64558 59.890625 146.86433Q59.625 147.06746 59.515625 147.44246Q59.328125 148.00496 59.328125 148.66121L59.328125 151.92683L58.28125 151.92683ZM61.90625 148.81746Q61.90625 147.08308 62.859375 146.25496Q63.65625 145.56746 64.8125 145.56746Q66.09375 145.56746 66.90625 146.41121Q67.734375 147.23933 67.734375 148.72371Q67.734375 149.92683 67.375 150.61433Q67.015625 151.30183 66.3125 151.69246Q65.625 152.06746 64.8125 152.06746Q63.515625 152.06746 62.703125 151.23933Q61.90625 150.39558 61.90625 148.81746ZM62.984375 148.81746Q62.984375 150.00496 63.5 150.59871Q64.03125 151.19246 64.8125 151.19246Q65.609375 151.19246 66.125 150.59871Q66.640625 150.00496 66.640625 148.78621Q66.640625 147.62996 66.109375 147.03621Q65.59375 146.44246 64.8125 146.44246Q64.03125 146.44246 63.5 147.03621Q62.984375 147.61433 62.984375 148.81746ZM69.296875 151.92683L69.296875 145.70808L70.234375 145.70808L70.234375 146.58308Q70.53125 146.11433 71.015625 145.84871Q71.5 145.56746 72.125 145.56746Q72.8125 145.56746 73.25 145.84871Q73.703125 146.12996 73.875 146.64558Q74.625 145.56746 75.796875 145.56746Q76.734375 145.56746 77.21875 146.08308Q77.71875 146.58308 77.71875 147.66121L77.71875 151.92683L76.671875 151.92683L76.671875 148.00496Q76.671875 147.37996 76.5625 147.09871Q76.46875 146.81746 76.203125 146.64558Q75.9375 146.47371 75.5625 146.47371Q74.90625 146.47371 74.46875 146.91121Q74.046875 147.34871 74.046875 148.31746L74.046875 151.92683L72.984375 151.92683L72.984375 147.87996Q72.984375 147.17683 72.71875 146.83308Q72.46875 146.47371 71.890625 146.47371Q71.4375 146.47371 71.0625 146.70808Q70.6875 146.94246 70.515625 147.39558Q70.34375 147.84871 70.34375 148.69246L70.34375 151.92683L69.296875 151.92683ZM79.90625 148.81746Q79.90625 147.08308 80.859375 146.25496Q81.65625 145.56746 82.8125 145.56746Q84.09375 145.56746 84.90625 146.41121Q85.734375 147.23933 85.734375 148.72371Q85.734375 149.92683 85.375 150.61433Q85.015625 151.30183 84.3125 151.69246Q83.625 152.06746 82.8125 152.06746Q81.515625 152.06746 80.703125 151.23933Q79.90625 150.39558 79.90625 148.81746ZM80.984375 148.81746Q80.984375 150.00496 81.5 150.59871Q82.03125 151.19246 82.8125 151.19246Q83.609375 151.19246 84.125 150.59871Q84.640625 150.00496 84.640625 148.78621Q84.640625 147.62996 84.109375 147.03621Q83.59375 146.44246 82.8125 146.44246Q82.03125 146.44246 81.5 147.03621Q80.984375 147.61433 80.984375 148.81746Z" fill-rule="nonzero"/><path fill="#000000" d="M36.875 176.89673L37.90625 176.74048Q38.0 177.36548 38.390625 177.6936Q38.796875 178.02173 39.53125 178.02173Q40.25 178.02173 40.59375 177.74048Q40.953125 177.4436 40.953125 177.03735Q40.953125 176.67798 40.640625 176.47485Q40.421875 176.33423 39.5625 176.11548Q38.40625 175.8186 37.953125 175.61548Q37.515625 175.39673 37.28125 175.02173Q37.046875 174.64673 37.046875 174.17798Q37.046875 173.77173 37.234375 173.41235Q37.421875 173.05298 37.75 172.8186Q38.0 172.64673 38.421875 172.52173Q38.84375 172.39673 39.34375 172.39673Q40.0625 172.39673 40.609375 172.61548Q41.171875 172.8186 41.4375 173.17798Q41.703125 173.53735 41.796875 174.1311L40.765625 174.27173Q40.703125 173.80298 40.359375 173.53735Q40.03125 173.2561 39.40625 173.2561Q38.6875 173.2561 38.375 173.5061Q38.0625 173.74048 38.0625 174.0686Q38.0625 174.27173 38.1875 174.42798Q38.328125 174.59985 38.59375 174.70923Q38.75 174.77173 39.53125 174.97485Q40.65625 175.28735 41.09375 175.47485Q41.53125 175.66235 41.78125 176.02173Q42.03125 176.3811 42.03125 176.92798Q42.03125 177.45923 41.71875 177.92798Q41.421875 178.3811 40.84375 178.64673Q40.265625 178.89673 39.53125 178.89673Q38.3125 178.89673 37.671875 178.39673Q37.046875 177.8811 36.875 176.89673ZM48.359375 176.47485L49.390625 176.61548Q49.21875 177.67798 48.515625 178.28735Q47.8125 178.89673 46.796875 178.89673Q45.515625 178.89673 44.734375 178.0686Q43.96875 177.22485 43.96875 175.66235Q43.96875 174.66235 44.296875 173.91235Q44.640625 173.14673 45.3125 172.77173Q46.0 172.39673 46.8125 172.39673Q47.8125 172.39673 48.453125 172.91235Q49.109375 173.41235 49.296875 174.36548L48.265625 174.52173Q48.125 173.89673 47.75 173.58423Q47.375 173.2561 46.84375 173.2561Q46.046875 173.2561 45.546875 173.83423Q45.046875 174.39673 45.046875 175.6311Q45.046875 176.89673 45.53125 177.45923Q46.015625 178.02173 46.78125 178.02173Q47.40625 178.02173 47.8125 177.64673Q48.234375 177.27173 48.359375 176.47485ZM50.296875 178.7561L50.296875 170.16235L51.34375 170.16235L51.34375 173.24048Q52.078125 172.39673 53.203125 172.39673Q53.90625 172.39673 54.40625 172.67798Q54.921875 172.9436 55.140625 173.42798Q55.359375 173.89673 55.359375 174.8186L55.359375 178.7561L54.3125 178.7561L54.3125 174.8186Q54.3125 174.02173 53.96875 173.66235Q53.625 173.30298 53.0 173.30298Q52.53125 173.30298 52.109375 173.55298Q51.703125 173.78735 51.515625 174.20923Q51.34375 174.61548 51.34375 175.34985L51.34375 178.7561L50.296875 178.7561ZM57.296875 171.3811L57.296875 170.16235L58.359375 170.16235L58.359375 171.3811L57.296875 171.3811ZM57.296875 178.7561L57.296875 172.53735L58.359375 172.53735L58.359375 178.7561L57.296875 178.7561ZM64.359375 177.99048Q63.765625 178.49048 63.21875 178.6936Q62.6875 178.89673 62.0625 178.89673Q61.03125 178.89673 60.484375 178.39673Q59.9375 177.89673 59.9375 177.11548Q59.9375 176.66235 60.140625 176.28735Q60.34375 175.89673 60.6875 175.67798Q61.03125 175.4436 61.453125 175.33423Q61.75 175.24048 62.390625 175.16235Q63.65625 175.02173 64.265625 174.80298Q64.265625 174.58423 64.265625 174.53735Q64.265625 173.8811 63.96875 173.61548Q63.5625 173.27173 62.765625 173.27173Q62.03125 173.27173 61.671875 173.53735Q61.3125 173.78735 61.140625 174.4436L60.109375 174.30298Q60.25 173.64673 60.578125 173.24048Q60.90625 172.83423 61.515625 172.61548Q62.125 172.39673 62.921875 172.39673Q63.71875 172.39673 64.21875 172.58423Q64.71875 172.77173 64.953125 173.05298Q65.1875 173.33423 65.28125 173.77173Q65.328125 174.03735 65.328125 174.74048L65.328125 176.14673Q65.328125 177.61548 65.390625 178.0061Q65.46875 178.39673 65.671875 178.7561L64.5625 178.7561Q64.40625 178.42798 64.359375 177.99048ZM64.265625 175.6311Q63.6875 175.86548 62.546875 176.03735Q61.890625 176.1311 61.625 176.2561Q61.359375 176.36548 61.203125 176.58423Q61.0625 176.80298 61.0625 177.08423Q61.0625 177.5061 61.375 177.78735Q61.703125 178.0686 62.3125 178.0686Q62.921875 178.0686 63.390625 177.80298Q63.875 177.53735 64.09375 177.0686Q64.265625 176.70923 64.265625 176.02173L64.265625 175.6311ZM67.28125 178.7561L67.28125 172.53735L68.234375 172.53735L68.234375 173.47485Q68.59375 172.8186 68.890625 172.61548Q69.203125 172.39673 69.578125 172.39673Q70.109375 172.39673 70.65625 172.72485L70.296875 173.70923Q69.90625 173.47485 69.53125 173.47485Q69.171875 173.47485 68.890625 173.6936Q68.625 173.89673 68.515625 174.27173Q68.328125 174.83423 68.328125 175.49048L68.328125 178.7561L67.28125 178.7561ZM75.546875 176.7561L76.640625 176.8811Q76.390625 177.83423 75.6875 178.36548Q74.984375 178.89673 73.90625 178.89673Q72.546875 178.89673 71.734375 178.05298Q70.9375 177.20923 70.9375 175.6936Q70.9375 174.1311 71.75 173.27173Q72.5625 172.39673 73.84375 172.39673Q75.09375 172.39673 75.875 173.24048Q76.671875 174.08423 76.671875 175.6311Q76.671875 175.72485 76.671875 175.91235L72.03125 175.91235Q72.09375 176.9436 72.609375 177.49048Q73.125 178.02173 73.90625 178.02173Q74.484375 178.02173 74.890625 177.72485Q75.3125 177.41235 75.546875 176.7561ZM72.09375 175.05298L75.5625 175.05298Q75.5 174.2561 75.171875 173.86548Q74.65625 173.2561 73.859375 173.2561Q73.125 173.2561 72.625 173.74048Q72.140625 174.22485 72.09375 175.05298ZM80.59375 177.8186L80.75 178.74048Q80.296875 178.83423 79.953125 178.83423Q79.375 178.83423 79.0625 178.66235Q78.75 178.47485 78.609375 178.17798Q78.484375 177.8811 78.484375 176.92798L78.484375 173.34985L77.71875 173.34985L77.71875 172.53735L78.484375 172.53735L78.484375 170.99048L79.53125 170.36548L79.53125 172.53735L80.59375 172.53735L80.59375 173.34985L79.53125 173.34985L79.53125 176.99048Q79.53125 177.4436 79.578125 177.5686Q79.640625 177.6936 79.765625 177.77173Q79.890625 177.84985 80.125 177.84985Q80.3125 177.84985 80.59375 177.8186ZM83.59375 177.8186L83.75 178.74048Q83.296875 178.83423 82.953125 178.83423Q82.375 178.83423 82.0625 178.66235Q81.75 178.47485 81.609375 178.17798Q81.484375 177.8811 81.484375 176.92798L81.484375 173.34985L80.71875 173.34985L80.71875 172.53735L81.484375 172.53735L81.484375 170.99048L82.53125 170.36548L82.53125 172.53735L83.59375 172.53735L83.59375 173.34985L82.53125 173.34985L82.53125 176.99048Q82.53125 177.4436 82.578125 177.5686Q82.640625 177.6936 82.765625 177.77173Q82.890625 177.84985 83.125 177.84985Q83.3125 177.84985 83.59375 177.8186ZM84.296875 171.3811L84.296875 170.16235L85.359375 170.16235L85.359375 171.3811L84.296875 171.3811ZM84.296875 178.7561L84.296875 172.53735L85.359375 172.53735L85.359375 178.7561L84.296875 178.7561Z" fill-rule="nonzero"/><path fill="#000000" d="M51.296875 205.58537L51.296875 199.36662L52.234375 199.36662L52.234375 200.24162Q52.53125 199.77287 53.015625 199.50725Q53.5 199.226 54.125 199.226Q54.8125 199.226 55.25 199.50725Q55.703125 199.7885 55.875 200.30412Q56.625 199.226 57.796875 199.226Q58.734375 199.226 59.21875 199.74162Q59.71875 200.24162 59.71875 201.31975L59.71875 205.58537L58.671875 205.58537L58.671875 201.6635Q58.671875 201.0385 58.5625 200.75725Q58.46875 200.476 58.203125 200.30412Q57.9375 200.13225 57.5625 200.13225Q56.90625 200.13225 56.46875 200.56975Q56.046875 201.00725 56.046875 201.976L56.046875 205.58537L54.984375 205.58537L54.984375 201.5385Q54.984375 200.83537 54.71875 200.49162Q54.46875 200.13225 53.890625 200.13225Q53.4375 200.13225 53.0625 200.36662Q52.6875 200.601 52.515625 201.05412Q52.34375 201.50725 52.34375 202.351L52.34375 205.58537L51.296875 205.58537ZM66.359375 204.81975Q65.765625 205.31975 65.21875 205.52287Q64.6875 205.726 64.0625 205.726Q63.03125 205.726 62.484375 205.226Q61.9375 204.726 61.9375 203.94475Q61.9375 203.49162 62.140625 203.11662Q62.34375 202.726 62.6875 202.50725Q63.03125 202.27287 63.453125 202.1635Q63.75 202.06975 64.390625 201.99162Q65.65625 201.851 66.265625 201.63225Q66.265625 201.4135 66.265625 201.36662Q66.265625 200.71037 65.96875 200.44475Q65.5625 200.101 64.765625 200.101Q64.03125 200.101 63.671875 200.36662Q63.3125 200.61662 63.140625 201.27287L62.109375 201.13225Q62.25 200.476 62.578125 200.06975Q62.90625 199.6635 63.515625 199.44475Q64.125 199.226 64.921875 199.226Q65.71875 199.226 66.21875 199.4135Q66.71875 199.601 66.953125 199.88225Q67.1875 200.1635 67.28125 200.601Q67.328125 200.86662 67.328125 201.56975L67.328125 202.976Q67.328125 204.44475 67.390625 204.83537Q67.46875 205.226 67.671875 205.58537L66.5625 205.58537Q66.40625 205.25725 66.359375 204.81975ZM66.265625 202.46037Q65.6875 202.69475 64.546875 202.86662Q63.890625 202.96037 63.625 203.08537Q63.359375 203.19475 63.203125 203.4135Q63.0625 203.63225 63.0625 203.9135Q63.0625 204.33537 63.375 204.61662Q63.703125 204.89787 64.3125 204.89787Q64.921875 204.89787 65.390625 204.63225Q65.875 204.36662 66.09375 203.89787Q66.265625 203.5385 66.265625 202.851L66.265625 202.46037ZM73.328125 205.58537L73.328125 204.80412Q72.734375 205.726 71.59375 205.726Q70.84375 205.726 70.21875 205.31975Q69.59375 204.89787 69.25 204.1635Q68.90625 203.42912 68.90625 202.476Q68.90625 201.55412 69.21875 200.7885Q69.53125 200.02287 70.15625 199.63225Q70.78125 199.226 71.546875 199.226Q72.109375 199.226 72.546875 199.46037Q72.984375 199.69475 73.265625 200.06975L73.265625 196.99162L74.3125 196.99162L74.3125 205.58537L73.328125 205.58537ZM70.0 202.476Q70.0 203.67912 70.5 204.27287Q71.0 204.851 71.6875 204.851Q72.375 204.851 72.859375 204.2885Q73.34375 203.726 73.34375 202.56975Q73.34375 201.2885 72.84375 200.69475Q72.359375 200.101 71.640625 200.101Q70.9375 200.101 70.46875 200.67912Q70.0 201.24162 70.0 202.476ZM76.28125 205.58537L76.28125 199.36662L77.234375 199.36662L77.234375 200.30412Q77.59375 199.64787 77.890625 199.44475Q78.203125 199.226 78.578125 199.226Q79.109375 199.226 79.65625 199.55412L79.296875 200.5385Q78.90625 200.30412 78.53125 200.30412Q78.171875 200.30412 77.890625 200.52287Q77.625 200.726 77.515625 201.101Q77.328125 201.6635 77.328125 202.31975L77.328125 205.58537L76.28125 205.58537ZM84.546875 203.58537L85.640625 203.71037Q85.390625 204.6635 84.6875 205.19475Q83.984375 205.726 82.90625 205.726Q81.546875 205.726 80.734375 204.88225Q79.9375 204.0385 79.9375 202.52287Q79.9375 200.96037 80.75 200.101Q81.5625 199.226 82.84375 199.226Q84.09375 199.226 84.875 200.06975Q85.671875 200.9135 85.671875 202.46037Q85.671875 202.55412 85.671875 202.74162L81.03125 202.74162Q81.09375 203.77287 81.609375 204.31975Q82.125 204.851 82.90625 204.851Q83.484375 204.851 83.890625 204.55412Q84.3125 204.24162 84.546875 203.58537ZM81.09375 201.88225L84.5625 201.88225Q84.5 201.08537 84.171875 200.69475Q83.65625 200.08537 82.859375 200.08537Q82.125 200.08537 81.625 200.56975Q81.140625 201.05412 81.09375 201.88225Z" fill-rule="nonzero"/><path fill="#000000" d="M48.296875 232.41463L48.296875 226.19588L49.234375 226.19588L49.234375 227.07088Q49.53125 226.60213 50.015625 226.3365Q50.5 226.05525 51.125 226.05525Q51.8125 226.05525 52.25 226.3365Q52.703125 226.61775 52.875 227.13338Q53.625 226.05525 54.796875 226.05525Q55.734375 226.05525 56.21875 226.57088Q56.71875 227.07088 56.71875 228.149L56.71875 232.41463L55.671875 232.41463L55.671875 228.49275Q55.671875 227.86775 55.5625 227.5865Q55.46875 227.30525 55.203125 227.13338Q54.9375 226.9615 54.5625 226.9615Q53.90625 226.9615 53.46875 227.399Q53.046875 227.8365 53.046875 228.80525L53.046875 232.41463L51.984375 232.41463L51.984375 228.36775Q51.984375 227.66463 51.71875 227.32088Q51.46875 226.9615 50.890625 226.9615Q50.4375 226.9615 50.0625 227.19588Q49.6875 227.43025 49.515625 227.88338Q49.34375 228.3365 49.34375 229.18025L49.34375 232.41463L48.296875 232.41463ZM63.375 232.41463L63.375 231.49275Q62.640625 232.55525 61.390625 232.55525Q60.84375 232.55525 60.359375 232.35213Q59.890625 232.13338 59.65625 231.82088Q59.421875 231.49275 59.328125 231.024Q59.265625 230.72713 59.265625 230.03963L59.265625 226.19588L60.328125 226.19588L60.328125 229.649Q60.328125 230.4615 60.390625 230.75838Q60.484375 231.16463 60.796875 231.41463Q61.125 231.649 61.609375 231.649Q62.078125 231.649 62.484375 231.41463Q62.90625 231.16463 63.078125 230.74275Q63.265625 230.32088 63.265625 229.524L63.265625 226.19588L64.3125 226.19588L64.3125 232.41463L63.375 232.41463ZM70.546875 230.41463L71.640625 230.53963Q71.390625 231.49275 70.6875 232.024Q69.984375 232.55525 68.90625 232.55525Q67.546875 232.55525 66.734375 231.7115Q65.9375 230.86775 65.9375 229.35213Q65.9375 227.78963 66.75 226.93025Q67.5625 226.05525 68.84375 226.05525Q70.09375 226.05525 70.875 226.899Q71.671875 227.74275 71.671875 229.28963Q71.671875 229.38338 71.671875 229.57088L67.03125 229.57088Q67.09375 230.60213 67.609375 231.149Q68.125 231.68025 68.90625 231.68025Q69.484375 231.68025 69.890625 231.38338Q70.3125 231.07088 70.546875 230.41463ZM67.09375 228.7115L70.5625 228.7115Q70.5 227.91463 70.171875 227.524Q69.65625 226.91463 68.859375 226.91463Q68.125 226.91463 67.625 227.399Q67.140625 227.88338 67.09375 228.7115ZM73.28125 232.41463L73.28125 226.19588L74.234375 226.19588L74.234375 227.13338Q74.59375 226.47713 74.890625 226.274Q75.203125 226.05525 75.578125 226.05525Q76.109375 226.05525 76.65625 226.38338L76.296875 227.36775Q75.90625 227.13338 75.53125 227.13338Q75.171875 227.13338 74.890625 227.35213Q74.625 227.55525 74.515625 227.93025Q74.328125 228.49275 74.328125 229.149L74.328125 232.41463L73.28125 232.41463ZM79.59375 231.47713L79.75 232.399Q79.296875 232.49275 78.953125 232.49275Q78.375 232.49275 78.0625 232.32088Q77.75 232.13338 77.609375 231.8365Q77.484375 231.53963 77.484375 230.5865L77.484375 227.00838L76.71875 227.00838L76.71875 226.19588L77.484375 226.19588L77.484375 224.649L78.53125 224.024L78.53125 226.19588L79.59375 226.19588L79.59375 227.00838L78.53125 227.00838L78.53125 230.649Q78.53125 231.10213 78.578125 231.22713Q78.640625 231.35213 78.765625 231.43025Q78.890625 231.50838 79.125 231.50838Q79.3125 231.50838 79.59375 231.47713ZM84.546875 230.41463L85.640625 230.53963Q85.390625 231.49275 84.6875 232.024Q83.984375 232.55525 82.90625 232.55525Q81.546875 232.55525 80.734375 231.7115Q79.9375 230.86775 79.9375 229.35213Q79.9375 227.78963 80.75 226.93025Q81.5625 226.05525 82.84375 226.05525Q84.09375 226.05525 84.875 226.899Q85.671875 227.74275 85.671875 229.28963Q85.671875 229.38338 85.671875 229.57088L81.03125 229.57088Q81.09375 230.60213 81.609375 231.149Q82.125 231.68025 82.90625 231.68025Q83.484375 231.68025 83.890625 231.38338Q84.3125 231.07088 84.546875 230.41463ZM81.09375 228.7115L84.5625 228.7115Q84.5 227.91463 84.171875 227.524Q83.65625 226.91463 82.859375 226.91463Q82.125 226.91463 81.625 227.399Q81.140625 227.88338 81.09375 228.7115Z" fill-rule="nonzero"/><path fill="#000000" d="M39.28125 251.88452L39.28125 250.65015L40.34375 250.65015L40.34375 251.88452L39.28125 251.88452ZM37.953125 261.66577L38.140625 260.75952Q38.46875 260.83765 38.640625 260.83765Q38.96875 260.83765 39.125 260.6189Q39.28125 260.41577 39.28125 259.5564L39.28125 253.02515L40.34375 253.02515L40.34375 259.58765Q40.34375 260.72827 40.046875 261.1814Q39.65625 261.77515 38.78125 261.77515Q38.34375 261.77515 37.953125 261.66577ZM41.90625 256.13452Q41.90625 254.40015 42.859375 253.57202Q43.65625 252.88452 44.8125 252.88452Q46.09375 252.88452 46.90625 253.72827Q47.734375 254.5564 47.734375 256.04077Q47.734375 257.2439 47.375 257.9314Q47.015625 258.6189 46.3125 259.00952Q45.625 259.38452 44.8125 259.38452Q43.515625 259.38452 42.703125 258.5564Q41.90625 257.71265 41.90625 256.13452ZM42.984375 256.13452Q42.984375 257.32202 43.5 257.91577Q44.03125 258.50952 44.8125 258.50952Q45.609375 258.50952 46.125 257.91577Q46.640625 257.32202 46.640625 256.10327Q46.640625 254.94702 46.109375 254.35327Q45.59375 253.75952 44.8125 253.75952Q44.03125 253.75952 43.5 254.35327Q42.984375 254.9314 42.984375 256.13452ZM49.296875 259.2439L49.296875 253.02515L50.234375 253.02515L50.234375 253.90015Q50.921875 252.88452 52.21875 252.88452Q52.78125 252.88452 53.25 253.08765Q53.734375 253.29077 53.96875 253.6189Q54.203125 253.94702 54.296875 254.38452Q54.34375 254.6814 54.34375 255.41577L54.34375 259.2439L53.296875 259.2439L53.296875 255.46265Q53.296875 254.8064 53.171875 254.4939Q53.046875 254.1814 52.734375 253.9939Q52.421875 253.79077 52.0 253.79077Q51.328125 253.79077 50.828125 254.22827Q50.34375 254.65015 50.34375 255.83765L50.34375 259.2439L49.296875 259.2439ZM60.359375 258.47827Q59.765625 258.97827 59.21875 259.1814Q58.6875 259.38452 58.0625 259.38452Q57.03125 259.38452 56.484375 258.88452Q55.9375 258.38452 55.9375 257.60327Q55.9375 257.15015 56.140625 256.77515Q56.34375 256.38452 56.6875 256.16577Q57.03125 255.9314 57.453125 255.82202Q57.75 255.72827 58.390625 255.65015Q59.65625 255.50952 60.265625 255.29077Q60.265625 255.07202 60.265625 255.02515Q60.265625 254.3689 59.96875 254.10327Q59.5625 253.75952 58.765625 253.75952Q58.03125 253.75952 57.671875 254.02515Q57.3125 254.27515 57.140625 254.9314L56.109375 254.79077Q56.25 254.13452 56.578125 253.72827Q56.90625 253.32202 57.515625 253.10327Q58.125 252.88452 58.921875 252.88452Q59.71875 252.88452 60.21875 253.07202Q60.71875 253.25952 60.953125 253.54077Q61.1875 253.82202 61.28125 254.25952Q61.328125 254.52515 61.328125 255.22827L61.328125 256.63452Q61.328125 258.10327 61.390625 258.4939Q61.46875 258.88452 61.671875 259.2439L60.5625 259.2439Q60.40625 258.91577 60.359375 258.47827ZM60.265625 256.1189Q59.6875 256.35327 58.546875 256.52515Q57.890625 256.6189 57.625 256.7439Q57.359375 256.85327 57.203125 257.07202Q57.0625 257.29077 57.0625 257.57202Q57.0625 257.9939 57.375 258.27515Q57.703125 258.5564 58.3125 258.5564Q58.921875 258.5564 59.390625 258.29077Q59.875 258.02515 60.09375 257.5564Q60.265625 257.19702 60.265625 256.50952L60.265625 256.1189ZM65.59375 258.3064L65.75 259.22827Q65.296875 259.32202 64.953125 259.32202Q64.375 259.32202 64.0625 259.15015Q63.75 258.96265 63.609375 258.66577Q63.484375 258.3689 63.484375 257.41577L63.484375 253.83765L62.71875 253.83765L62.71875 253.02515L63.484375 253.02515L63.484375 251.47827L64.53125 250.85327L64.53125 253.02515L65.59375 253.02515L65.59375 253.83765L64.53125 253.83765L64.53125 257.47827Q64.53125 257.9314 64.578125 258.0564Q64.640625 258.1814 64.765625 258.25952Q64.890625 258.33765 65.125 258.33765Q65.3125 258.33765 65.59375 258.3064ZM66.296875 259.2439L66.296875 250.65015L67.34375 250.65015L67.34375 253.72827Q68.078125 252.88452 69.203125 252.88452Q69.90625 252.88452 70.40625 253.16577Q70.921875 253.4314 71.140625 253.91577Q71.359375 254.38452 71.359375 255.3064L71.359375 259.2439L70.3125 259.2439L70.3125 255.3064Q70.3125 254.50952 69.96875 254.15015Q69.625 253.79077 69.0 253.79077Q68.53125 253.79077 68.109375 254.04077Q67.703125 254.27515 67.515625 254.69702Q67.34375 255.10327 67.34375 255.83765L67.34375 259.2439L66.296875 259.2439ZM77.359375 258.47827Q76.765625 258.97827 76.21875 259.1814Q75.6875 259.38452 75.0625 259.38452Q74.03125 259.38452 73.484375 258.88452Q72.9375 258.38452 72.9375 257.60327Q72.9375 257.15015 73.140625 256.77515Q73.34375 256.38452 73.6875 256.16577Q74.03125 255.9314 74.453125 255.82202Q74.75 255.72827 75.390625 255.65015Q76.65625 255.50952 77.265625 255.29077Q77.265625 255.07202 77.265625 255.02515Q77.265625 254.3689 76.96875 254.10327Q76.5625 253.75952 75.765625 253.75952Q75.03125 253.75952 74.671875 254.02515Q74.3125 254.27515 74.140625 254.9314L73.109375 254.79077Q73.25 254.13452 73.578125 253.72827Q73.90625 253.32202 74.515625 253.10327Q75.125 252.88452 75.921875 252.88452Q76.71875 252.88452 77.21875 253.07202Q77.71875 253.25952 77.953125 253.54077Q78.1875 253.82202 78.28125 254.25952Q78.328125 254.52515 78.328125 255.22827L78.328125 256.63452Q78.328125 258.10327 78.390625 258.4939Q78.46875 258.88452 78.671875 259.2439L77.5625 259.2439Q77.40625 258.91577 77.359375 258.47827ZM77.265625 256.1189Q76.6875 256.35327 75.546875 256.52515Q74.890625 256.6189 74.625 256.7439Q74.359375 256.85327 74.203125 257.07202Q74.0625 257.29077 74.0625 257.57202Q74.0625 257.9939 74.375 258.27515Q74.703125 258.5564 75.3125 258.5564Q75.921875 258.5564 76.390625 258.29077Q76.875 258.02515 77.09375 257.5564Q77.265625 257.19702 77.265625 256.50952L77.265625 256.1189ZM80.296875 259.2439L80.296875 253.02515L81.234375 253.02515L81.234375 253.90015Q81.921875 252.88452 83.21875 252.88452Q83.78125 252.88452 84.25 253.08765Q84.734375 253.29077 84.96875 253.6189Q85.203125 253.94702 85.296875 254.38452Q85.34375 254.6814 85.34375 255.41577L85.34375 259.2439L84.296875 259.2439L84.296875 255.46265Q84.296875 254.8064 84.171875 254.4939Q84.046875 254.1814 83.734375 253.9939Q83.421875 253.79077 83.0 253.79077Q82.328125 253.79077 81.828125 254.22827Q81.34375 254.65015 81.34375 255.83765L81.34375 259.2439L80.296875 259.2439Z" fill-rule="nonzero"/><path fill="#000000" d="M34.28125 278.7138L34.28125 277.47943L35.34375 277.47943L35.34375 278.7138L34.28125 278.7138ZM32.953125 288.49506L33.140625 287.5888Q33.46875 287.66693 33.640625 287.66693Q33.96875 287.66693 34.125 287.44818Q34.28125 287.24506 34.28125 286.38568L34.28125 279.85443L35.34375 279.85443L35.34375 286.41693Q35.34375 287.55756 35.046875 288.01068Q34.65625 288.60443 33.78125 288.60443Q33.34375 288.60443 32.953125 288.49506ZM36.875 284.2138L37.90625 284.05756Q38.0 284.68256 38.390625 285.01068Q38.796875 285.3388 39.53125 285.3388Q40.25 285.3388 40.59375 285.05756Q40.953125 284.76068 40.953125 284.35443Q40.953125 283.99506 40.640625 283.79193Q40.421875 283.6513 39.5625 283.43256Q38.40625 283.13568 37.953125 282.93256Q37.515625 282.7138 37.28125 282.3388Q37.046875 281.9638 37.046875 281.49506Q37.046875 281.0888 37.234375 280.72943Q37.421875 280.37006 37.75 280.13568Q38.0 279.9638 38.421875 279.8388Q38.84375 279.7138 39.34375 279.7138Q40.0625 279.7138 40.609375 279.93256Q41.171875 280.13568 41.4375 280.49506Q41.703125 280.85443 41.796875 281.44818L40.765625 281.5888Q40.703125 281.12006 40.359375 280.85443Q40.03125 280.57318 39.40625 280.57318Q38.6875 280.57318 38.375 280.82318Q38.0625 281.05756 38.0625 281.38568Q38.0625 281.5888 38.1875 281.74506Q38.328125 281.91693 38.59375 282.0263Q38.75 282.0888 39.53125 282.29193Q40.65625 282.60443 41.09375 282.79193Q41.53125 282.97943 41.78125 283.3388Q42.03125 283.69818 42.03125 284.24506Q42.03125 284.7763 41.71875 285.24506Q41.421875 285.69818 40.84375 285.9638Q40.265625 286.2138 39.53125 286.2138Q38.3125 286.2138 37.671875 285.7138Q37.046875 285.19818 36.875 284.2138ZM48.359375 283.79193L49.390625 283.93256Q49.21875 284.99506 48.515625 285.60443Q47.8125 286.2138 46.796875 286.2138Q45.515625 286.2138 44.734375 285.38568Q43.96875 284.54193 43.96875 282.97943Q43.96875 281.97943 44.296875 281.22943Q44.640625 280.4638 45.3125 280.0888Q46.0 279.7138 46.8125 279.7138Q47.8125 279.7138 48.453125 280.22943Q49.109375 280.72943 49.296875 281.68256L48.265625 281.8388Q48.125 281.2138 47.75 280.9013Q47.375 280.57318 46.84375 280.57318Q46.046875 280.57318 45.546875 281.1513Q45.046875 281.7138 45.046875 282.94818Q45.046875 284.2138 45.53125 284.7763Q46.015625 285.3388 46.78125 285.3388Q47.40625 285.3388 47.8125 284.9638Q48.234375 284.5888 48.359375 283.79193ZM50.296875 286.07318L50.296875 277.47943L51.34375 277.47943L51.34375 280.55756Q52.078125 279.7138 53.203125 279.7138Q53.90625 279.7138 54.40625 279.99506Q54.921875 280.26068 55.140625 280.74506Q55.359375 281.2138 55.359375 282.13568L55.359375 286.07318L54.3125 286.07318L54.3125 282.13568Q54.3125 281.3388 53.96875 280.97943Q53.625 280.62006 53.0 280.62006Q52.53125 280.62006 52.109375 280.87006Q51.703125 281.10443 51.515625 281.5263Q51.34375 281.93256 51.34375 282.66693L51.34375 286.07318L50.296875 286.07318ZM57.296875 278.69818L57.296875 277.47943L58.359375 277.47943L58.359375 278.69818L57.296875 278.69818ZM57.296875 286.07318L57.296875 279.85443L58.359375 279.85443L58.359375 286.07318L57.296875 286.07318ZM64.359375 285.30756Q63.765625 285.80756 63.21875 286.01068Q62.6875 286.2138 62.0625 286.2138Q61.03125 286.2138 60.484375 285.7138Q59.9375 285.2138 59.9375 284.43256Q59.9375 283.97943 60.140625 283.60443Q60.34375 283.2138 60.6875 282.99506Q61.03125 282.76068 61.453125 282.6513Q61.75 282.55756 62.390625 282.47943Q63.65625 282.3388 64.265625 282.12006Q64.265625 281.9013 64.265625 281.85443Q64.265625 281.19818 63.96875 280.93256Q63.5625 280.5888 62.765625 280.5888Q62.03125 280.5888 61.671875 280.85443Q61.3125 281.10443 61.140625 281.76068L60.109375 281.62006Q60.25 280.9638 60.578125 280.55756Q60.90625 280.1513 61.515625 279.93256Q62.125 279.7138 62.921875 279.7138Q63.71875 279.7138 64.21875 279.9013Q64.71875 280.0888 64.953125 280.37006Q65.1875 280.6513 65.28125 281.0888Q65.328125 281.35443 65.328125 282.05756L65.328125 283.4638Q65.328125 284.93256 65.390625 285.32318Q65.46875 285.7138 65.671875 286.07318L64.5625 286.07318Q64.40625 285.74506 64.359375 285.30756ZM64.265625 282.94818Q63.6875 283.18256 62.546875 283.35443Q61.890625 283.44818 61.625 283.57318Q61.359375 283.68256 61.203125 283.9013Q61.0625 284.12006 61.0625 284.4013Q61.0625 284.82318 61.375 285.10443Q61.703125 285.38568 62.3125 285.38568Q62.921875 285.38568 63.390625 285.12006Q63.875 284.85443 64.09375 284.38568Q64.265625 284.0263 64.265625 283.3388L64.265625 282.94818ZM67.28125 286.07318L67.28125 279.85443L68.234375 279.85443L68.234375 280.79193Q68.59375 280.13568 68.890625 279.93256Q69.203125 279.7138 69.578125 279.7138Q70.109375 279.7138 70.65625 280.04193L70.296875 281.0263Q69.90625 280.79193 69.53125 280.79193Q69.171875 280.79193 68.890625 281.01068Q68.625 281.2138 68.515625 281.5888Q68.328125 282.1513 68.328125 282.80756L68.328125 286.07318L67.28125 286.07318ZM75.546875 284.07318L76.640625 284.19818Q76.390625 285.1513 75.6875 285.68256Q74.984375 286.2138 73.90625 286.2138Q72.546875 286.2138 71.734375 285.37006Q70.9375 284.5263 70.9375 283.01068Q70.9375 281.44818 71.75 280.5888Q72.5625 279.7138 73.84375 279.7138Q75.09375 279.7138 75.875 280.55756Q76.671875 281.4013 76.671875 282.94818Q76.671875 283.04193 76.671875 283.22943L72.03125 283.22943Q72.09375 284.26068 72.609375 284.80756Q73.125 285.3388 73.90625 285.3388Q74.484375 285.3388 74.890625 285.04193Q75.3125 284.72943 75.546875 284.07318ZM72.09375 282.37006L75.5625 282.37006Q75.5 281.57318 75.171875 281.18256Q74.65625 280.57318 73.859375 280.57318Q73.125 280.57318 72.625 281.05756Q72.140625 281.54193 72.09375 282.37006ZM80.59375 285.13568L80.75 286.05756Q80.296875 286.1513 79.953125 286.1513Q79.375 286.1513 79.0625 285.97943Q78.75 285.79193 78.609375 285.49506Q78.484375 285.19818 78.484375 284.24506L78.484375 280.66693L77.71875 280.66693L77.71875 279.85443L78.484375 279.85443L78.484375 278.30756L79.53125 277.68256L79.53125 279.85443L80.59375 279.85443L80.59375 280.66693L79.53125 280.66693L79.53125 284.30756Q79.53125 284.76068 79.578125 284.88568Q79.640625 285.01068 79.765625 285.0888Q79.890625 285.16693 80.125 285.16693Q80.3125 285.16693 80.59375 285.13568ZM83.59375 285.13568L83.75 286.05756Q83.296875 286.1513 82.953125 286.1513Q82.375 286.1513 82.0625 285.97943Q81.75 285.79193 81.609375 285.49506Q81.484375 285.19818 81.484375 284.24506L81.484375 280.66693L80.71875 280.66693L80.71875 279.85443L81.484375 279.85443L81.484375 278.30756L82.53125 277.68256L82.53125 279.85443L83.59375 279.85443L83.59375 280.66693L82.53125 280.66693L82.53125 284.30756Q82.53125 284.76068 82.578125 284.88568Q82.640625 285.01068 82.765625 285.0888Q82.890625 285.16693 83.125 285.16693Q83.3125 285.16693 83.59375 285.13568ZM84.296875 278.69818L84.296875 277.47943L85.359375 277.47943L85.359375 278.69818L84.296875 278.69818ZM84.296875 286.07318L84.296875 279.85443L85.359375 279.85443L85.359375 286.07318L84.296875 286.07318Z" fill-rule="nonzero"/><path fill="#000000" d="M33.546875 310.90244L34.640625 311.02744Q34.390625 311.98056 33.6875 312.5118Q32.984375 313.04306 31.90625 313.04306Q30.546875 313.04306 29.734375 312.1993Q28.9375 311.35556 28.9375 309.83994Q28.9375 308.27744 29.75 307.41806Q30.5625 306.54306 31.84375 306.54306Q33.09375 306.54306 33.875 307.3868Q34.671875 308.23056 34.671875 309.77744Q34.671875 309.8712 34.671875 310.0587L30.03125 310.0587Q30.09375 311.08994 30.609375 311.6368Q31.125 312.16806 31.90625 312.16806Q32.484375 312.16806 32.890625 311.8712Q33.3125 311.5587 33.546875 310.90244ZM30.09375 309.1993L33.5625 309.1993Q33.5 308.40244 33.171875 308.0118Q32.65625 307.40244 31.859375 307.40244Q31.125 307.40244 30.625 307.8868Q30.140625 308.3712 30.09375 309.1993ZM35.875 311.04306L36.90625 310.8868Q37.0 311.5118 37.390625 311.83994Q37.796875 312.16806 38.53125 312.16806Q39.25 312.16806 39.59375 311.8868Q39.953125 311.58994 39.953125 311.1837Q39.953125 310.8243 39.640625 310.6212Q39.421875 310.48056 38.5625 310.2618Q37.40625 309.96494 36.953125 309.7618Q36.515625 309.54306 36.28125 309.16806Q36.046875 308.79306 36.046875 308.3243Q36.046875 307.91806 36.234375 307.5587Q36.421875 307.1993 36.75 306.96494Q37.0 306.79306 37.421875 306.66806Q37.84375 306.54306 38.34375 306.54306Q39.0625 306.54306 39.609375 306.7618Q40.171875 306.96494 40.4375 307.3243Q40.703125 307.6837 40.796875 308.27744L39.765625 308.41806Q39.703125 307.9493 39.359375 307.6837Q39.03125 307.40244 38.40625 307.40244Q37.6875 307.40244 37.375 307.65244Q37.0625 307.8868 37.0625 308.21494Q37.0625 308.41806 37.1875 308.5743Q37.328125 308.7462 37.59375 308.85556Q37.75 308.91806 38.53125 309.1212Q39.65625 309.4337 40.09375 309.6212Q40.53125 309.8087 40.78125 310.16806Q41.03125 310.52744 41.03125 311.0743Q41.03125 311.60556 40.71875 312.0743Q40.421875 312.52744 39.84375 312.79306Q39.265625 313.04306 38.53125 313.04306Q37.3125 313.04306 36.671875 312.54306Q36.046875 312.02744 35.875 311.04306ZM45.59375 311.96494L45.75 312.8868Q45.296875 312.98056 44.953125 312.98056Q44.375 312.98056 44.0625 312.8087Q43.75 312.6212 43.609375 312.3243Q43.484375 312.02744 43.484375 311.0743L43.484375 307.4962L42.71875 307.4962L42.71875 306.6837L43.484375 306.6837L43.484375 305.1368L44.53125 304.5118L44.53125 306.6837L45.59375 306.6837L45.59375 307.4962L44.53125 307.4962L44.53125 311.1368Q44.53125 311.58994 44.578125 311.71494Q44.640625 311.83994 44.765625 311.91806Q44.890625 311.9962 45.125 311.9962Q45.3125 311.9962 45.59375 311.96494ZM46.28125 312.90244L46.28125 306.6837L47.234375 306.6837L47.234375 307.6212Q47.59375 306.96494 47.890625 306.7618Q48.203125 306.54306 48.578125 306.54306Q49.109375 306.54306 49.65625 306.8712L49.296875 307.85556Q48.90625 307.6212 48.53125 307.6212Q48.171875 307.6212 47.890625 307.83994Q47.625 308.04306 47.515625 308.41806Q47.328125 308.98056 47.328125 309.6368L47.328125 312.90244L46.28125 312.90244ZM54.375 312.90244L54.375 311.98056Q53.640625 313.04306 52.390625 313.04306Q51.84375 313.04306 51.359375 312.83994Q50.890625 312.6212 50.65625 312.3087Q50.421875 311.98056 50.328125 311.5118Q50.265625 311.21494 50.265625 310.52744L50.265625 306.6837L51.328125 306.6837L51.328125 310.1368Q51.328125 310.9493 51.390625 311.2462Q51.484375 311.65244 51.796875 311.90244Q52.125 312.1368 52.609375 312.1368Q53.078125 312.1368 53.484375 311.90244Q53.90625 311.65244 54.078125 311.23056Q54.265625 310.8087 54.265625 310.0118L54.265625 306.6837L55.3125 306.6837L55.3125 312.90244L54.375 312.90244ZM61.359375 310.6212L62.390625 310.7618Q62.21875 311.8243 61.515625 312.4337Q60.8125 313.04306 59.796875 313.04306Q58.515625 313.04306 57.734375 312.21494Q56.96875 311.3712 56.96875 309.8087Q56.96875 308.8087 57.296875 308.0587Q57.640625 307.29306 58.3125 306.91806Q59.0 306.54306 59.8125 306.54306Q60.8125 306.54306 61.453125 307.0587Q62.109375 307.5587 62.296875 308.5118L61.265625 308.66806Q61.125 308.04306 60.75 307.73056Q60.375 307.40244 59.84375 307.40244Q59.046875 307.40244 58.546875 307.98056Q58.046875 308.54306 58.046875 309.77744Q58.046875 311.04306 58.53125 311.60556Q59.015625 312.16806 59.78125 312.16806Q60.40625 312.16806 60.8125 311.79306Q61.234375 311.41806 61.359375 310.6212ZM65.59375 311.96494L65.75 312.8868Q65.296875 312.98056 64.953125 312.98056Q64.375 312.98056 64.0625 312.8087Q63.75 312.6212 63.609375 312.3243Q63.484375 312.02744 63.484375 311.0743L63.484375 307.4962L62.71875 307.4962L62.71875 306.6837L63.484375 306.6837L63.484375 305.1368L64.53125 304.5118L64.53125 306.6837L65.59375 306.6837L65.59375 307.4962L64.53125 307.4962L64.53125 311.1368Q64.53125 311.58994 64.578125 311.71494Q64.640625 311.83994 64.765625 311.91806Q64.890625 311.9962 65.125 311.9962Q65.3125 311.9962 65.59375 311.96494ZM70.375 312.90244L70.375 311.98056Q69.640625 313.04306 68.390625 313.04306Q67.84375 313.04306 67.359375 312.83994Q66.890625 312.6212 66.65625 312.3087Q66.421875 311.98056 66.328125 311.5118Q66.265625 311.21494 66.265625 310.52744L66.265625 306.6837L67.328125 306.6837L67.328125 310.1368Q67.328125 310.9493 67.390625 311.2462Q67.484375 311.65244 67.796875 311.90244Q68.125 312.1368 68.609375 312.1368Q69.078125 312.1368 69.484375 311.90244Q69.90625 311.65244 70.078125 311.23056Q70.265625 310.8087 70.265625 310.0118L70.265625 306.6837L71.3125 306.6837L71.3125 312.90244L70.375 312.90244ZM73.28125 312.90244L73.28125 306.6837L74.234375 306.6837L74.234375 307.6212Q74.59375 306.96494 74.890625 306.7618Q75.203125 306.54306 75.578125 306.54306Q76.109375 306.54306 76.65625 306.8712L76.296875 307.85556Q75.90625 307.6212 75.53125 307.6212Q75.171875 307.6212 74.890625 307.83994Q74.625 308.04306 74.515625 308.41806Q74.328125 308.98056 74.328125 309.6368L74.328125 312.90244L73.28125 312.90244ZM81.359375 312.1368Q80.765625 312.6368 80.21875 312.83994Q79.6875 313.04306 79.0625 313.04306Q78.03125 313.04306 77.484375 312.54306Q76.9375 312.04306 76.9375 311.2618Q76.9375 310.8087 77.140625 310.4337Q77.34375 310.04306 77.6875 309.8243Q78.03125 309.58994 78.453125 309.48056Q78.75 309.3868 79.390625 309.3087Q80.65625 309.16806 81.265625 308.9493Q81.265625 308.73056 81.265625 308.6837Q81.265625 308.02744 80.96875 307.7618Q80.5625 307.41806 79.765625 307.41806Q79.03125 307.41806 78.671875 307.6837Q78.3125 307.9337 78.140625 308.58994L77.109375 308.4493Q77.25 307.79306 77.578125 307.3868Q77.90625 306.98056 78.515625 306.7618Q79.125 306.54306 79.921875 306.54306Q80.71875 306.54306 81.21875 306.73056Q81.71875 306.91806 81.953125 307.1993Q82.1875 307.48056 82.28125 307.91806Q82.328125 308.1837 82.328125 308.8868L82.328125 310.29306Q82.328125 311.7618 82.390625 312.15244Q82.46875 312.54306 82.671875 312.90244L81.5625 312.90244Q81.40625 312.5743 81.359375 312.1368ZM81.265625 309.77744Q80.6875 310.0118 79.546875 310.1837Q78.890625 310.27744 78.625 310.40244Q78.359375 310.5118 78.203125 310.73056Q78.0625 310.9493 78.0625 311.23056Q78.0625 311.65244 78.375 311.9337Q78.703125 312.21494 79.3125 312.21494Q79.921875 312.21494 80.390625 311.9493Q80.875 311.6837 81.09375 311.21494Q81.265625 310.85556 81.265625 310.16806L81.265625 309.77744ZM84.265625 312.90244L84.265625 304.3087L85.328125 304.3087L85.328125 312.90244L84.265625 312.90244Z" fill-rule="nonzero"/><path fill="#000000" d="M42.296875 339.73172L42.296875 333.51297L43.234375 333.51297L43.234375 334.38797Q43.53125 333.91922 44.015625 333.6536Q44.5 333.37234 45.125 333.37234Q45.8125 333.37234 46.25 333.6536Q46.703125 333.93484 46.875 334.45047Q47.625 333.37234 48.796875 333.37234Q49.734375 333.37234 50.21875 333.88797Q50.71875 334.38797 50.71875 335.4661L50.71875 339.73172L49.671875 339.73172L49.671875 335.80984Q49.671875 335.18484 49.5625 334.9036Q49.46875 334.62234 49.203125 334.45047Q48.9375 334.2786 48.5625 334.2786Q47.90625 334.2786 47.46875 334.7161Q47.046875 335.1536 47.046875 336.12234L47.046875 339.73172L45.984375 339.73172L45.984375 335.68484Q45.984375 334.98172 45.71875 334.63797Q45.46875 334.2786 44.890625 334.2786Q44.4375 334.2786 44.0625 334.51297Q43.6875 334.74734 43.515625 335.20047Q43.34375 335.6536 43.34375 336.49734L43.34375 339.73172L42.296875 339.73172ZM53.296875 332.35672L53.296875 331.13797L54.359375 331.13797L54.359375 332.35672L53.296875 332.35672ZM53.296875 339.73172L53.296875 333.51297L54.359375 333.51297L54.359375 339.73172L53.296875 339.73172ZM56.296875 339.73172L56.296875 333.51297L57.234375 333.51297L57.234375 334.38797Q57.921875 333.37234 59.21875 333.37234Q59.78125 333.37234 60.25 333.57547Q60.734375 333.7786 60.96875 334.10672Q61.203125 334.43484 61.296875 334.87234Q61.34375 335.16922 61.34375 335.9036L61.34375 339.73172L60.296875 339.73172L60.296875 335.95047Q60.296875 335.29422 60.171875 334.98172Q60.046875 334.66922 59.734375 334.48172Q59.421875 334.2786 59.0 334.2786Q58.328125 334.2786 57.828125 334.7161Q57.34375 335.13797 57.34375 336.32547L57.34375 339.73172L56.296875 339.73172ZM63.296875 332.35672L63.296875 331.13797L64.359375 331.13797L64.359375 332.35672L63.296875 332.35672ZM63.296875 339.73172L63.296875 333.51297L64.359375 333.51297L64.359375 339.73172L63.296875 339.73172ZM65.875 337.87234L66.90625 337.7161Q67.0 338.3411 67.390625 338.66922Q67.796875 338.99734 68.53125 338.99734Q69.25 338.99734 69.59375 338.7161Q69.953125 338.41922 69.953125 338.01297Q69.953125 337.6536 69.640625 337.45047Q69.421875 337.30984 68.5625 337.0911Q67.40625 336.79422 66.953125 336.5911Q66.515625 336.37234 66.28125 335.99734Q66.046875 335.62234 66.046875 335.1536Q66.046875 334.74734 66.234375 334.38797Q66.421875 334.0286 66.75 333.79422Q67.0 333.62234 67.421875 333.49734Q67.84375 333.37234 68.34375 333.37234Q69.0625 333.37234 69.609375 333.5911Q70.171875 333.79422 70.4375 334.1536Q70.703125 334.51297 70.796875 335.10672L69.765625 335.24734Q69.703125 334.7786 69.359375 334.51297Q69.03125 334.23172 68.40625 334.23172Q67.6875 334.23172 67.375 334.48172Q67.0625 334.7161 67.0625 335.04422Q67.0625 335.24734 67.1875 335.4036Q67.328125 335.57547 67.59375 335.68484Q67.75 335.74734 68.53125 335.95047Q69.65625 336.26297 70.09375 336.45047Q70.53125 336.63797 70.78125 336.99734Q71.03125 337.35672 71.03125 337.9036Q71.03125 338.43484 70.71875 338.9036Q70.421875 339.35672 69.84375 339.62234Q69.265625 339.87234 68.53125 339.87234Q67.3125 339.87234 66.671875 339.37234Q66.046875 338.85672 65.875 337.87234ZM75.59375 338.79422L75.75 339.7161Q75.296875 339.80984 74.953125 339.80984Q74.375 339.80984 74.0625 339.63797Q73.75 339.45047 73.609375 339.1536Q73.484375 338.85672 73.484375 337.9036L73.484375 334.32547L72.71875 334.32547L72.71875 333.51297L73.484375 333.51297L73.484375 331.9661L74.53125 331.3411L74.53125 333.51297L75.59375 333.51297L75.59375 334.32547L74.53125 334.32547L74.53125 337.9661Q74.53125 338.41922 74.578125 338.54422Q74.640625 338.66922 74.765625 338.74734Q74.890625 338.82547 75.125 338.82547Q75.3125 338.82547 75.59375 338.79422ZM76.28125 339.73172L76.28125 333.51297L77.234375 333.51297L77.234375 334.45047Q77.59375 333.79422 77.890625 333.5911Q78.203125 333.37234 78.578125 333.37234Q79.109375 333.37234 79.65625 333.70047L79.296875 334.68484Q78.90625 334.45047 78.53125 334.45047Q78.171875 334.45047 77.890625 334.66922Q77.625 334.87234 77.515625 335.24734Q77.328125 335.80984 77.328125 336.4661L77.328125 339.73172L76.28125 339.73172ZM79.90625 336.62234Q79.90625 334.88797 80.859375 334.05984Q81.65625 333.37234 82.8125 333.37234Q84.09375 333.37234 84.90625 334.2161Q85.734375 335.04422 85.734375 336.5286Q85.734375 337.73172 85.375 338.41922Q85.015625 339.10672 84.3125 339.49734Q83.625 339.87234 82.8125 339.87234Q81.515625 339.87234 80.703125 339.04422Q79.90625 338.20047 79.90625 336.62234ZM80.984375 336.62234Q80.984375 337.80984 81.5 338.4036Q82.03125 338.99734 82.8125 338.99734Q83.609375 338.99734 84.125 338.4036Q84.640625 337.80984 84.640625 336.5911Q84.640625 335.43484 84.109375 334.8411Q83.59375 334.24734 82.8125 334.24734Q82.03125 334.24734 81.5 334.8411Q80.984375 335.41922 80.984375 336.62234Z" fill-rule="nonzero"/><path fill="#000000" d="M30.296875 366.56097L30.296875 360.34222L31.234375 360.34222L31.234375 361.21722Q31.53125 360.74847 32.015625 360.48285Q32.5 360.2016 33.125 360.2016Q33.8125 360.2016 34.25 360.48285Q34.703125 360.7641 34.875 361.27972Q35.625 360.2016 36.796875 360.2016Q37.734375 360.2016 38.21875 360.71722Q38.71875 361.21722 38.71875 362.29535L38.71875 366.56097L37.671875 366.56097L37.671875 362.6391Q37.671875 362.0141 37.5625 361.73285Q37.46875 361.4516 37.203125 361.27972Q36.9375 361.10785 36.5625 361.10785Q35.90625 361.10785 35.46875 361.54535Q35.046875 361.98285 35.046875 362.9516L35.046875 366.56097L33.984375 366.56097L33.984375 362.5141Q33.984375 361.81097 33.71875 361.46722Q33.46875 361.10785 32.890625 361.10785Q32.4375 361.10785 32.0625 361.34222Q31.6875 361.5766 31.515625 362.02972Q31.34375 362.48285 31.34375 363.3266L31.34375 366.56097L30.296875 366.56097ZM40.90625 363.4516Q40.90625 361.71722 41.859375 360.8891Q42.65625 360.2016 43.8125 360.2016Q45.09375 360.2016 45.90625 361.04535Q46.734375 361.87347 46.734375 363.35785Q46.734375 364.56097 46.375 365.24847Q46.015625 365.93597 45.3125 366.3266Q44.625 366.7016 43.8125 366.7016Q42.515625 366.7016 41.703125 365.87347Q40.90625 365.02972 40.90625 363.4516ZM41.984375 363.4516Q41.984375 364.6391 42.5 365.23285Q43.03125 365.8266 43.8125 365.8266Q44.609375 365.8266 45.125 365.23285Q45.640625 364.6391 45.640625 363.42035Q45.640625 362.2641 45.109375 361.67035Q44.59375 361.0766 43.8125 361.0766Q43.03125 361.0766 42.5 361.67035Q41.984375 362.24847 41.984375 363.4516ZM47.875 364.7016L48.90625 364.54535Q49.0 365.17035 49.390625 365.49847Q49.796875 365.8266 50.53125 365.8266Q51.25 365.8266 51.59375 365.54535Q51.953125 365.24847 51.953125 364.84222Q51.953125 364.48285 51.640625 364.27972Q51.421875 364.1391 50.5625 363.92035Q49.40625 363.62347 48.953125 363.42035Q48.515625 363.2016 48.28125 362.8266Q48.046875 362.4516 48.046875 361.98285Q48.046875 361.5766 48.234375 361.21722Q48.421875 360.85785 48.75 360.62347Q49.0 360.4516 49.421875 360.3266Q49.84375 360.2016 50.34375 360.2016Q51.0625 360.2016 51.609375 360.42035Q52.171875 360.62347 52.4375 360.98285Q52.703125 361.34222 52.796875 361.93597L51.765625 362.0766Q51.703125 361.60785 51.359375 361.34222Q51.03125 361.06097 50.40625 361.06097Q49.6875 361.06097 49.375 361.31097Q49.0625 361.54535 49.0625 361.87347Q49.0625 362.0766 49.1875 362.23285Q49.328125 362.40472 49.59375 362.5141Q49.75 362.5766 50.53125 362.77972Q51.65625 363.09222 52.09375 363.27972Q52.53125 363.46722 52.78125 363.8266Q53.03125 364.18597 53.03125 364.73285Q53.03125 365.2641 52.71875 365.73285Q52.421875 366.18597 51.84375 366.4516Q51.265625 366.7016 50.53125 366.7016Q49.3125 366.7016 48.671875 366.2016Q48.046875 365.68597 47.875 364.7016ZM59.265625 368.9516L59.265625 365.90472Q59.015625 366.24847 58.5625 366.48285Q58.125 366.7016 57.625 366.7016Q56.515625 366.7016 55.71875 365.8266Q54.921875 364.93597 54.921875 363.3891Q54.921875 362.4516 55.25 361.71722Q55.578125 360.96722 56.1875 360.59222Q56.8125 360.2016 57.546875 360.2016Q58.703125 360.2016 59.359375 361.17035L59.359375 360.34222L60.3125 360.34222L60.3125 368.9516L59.265625 368.9516ZM56.0 363.43597Q56.0 364.6391 56.5 365.23285Q57.015625 365.8266 57.71875 365.8266Q58.390625 365.8266 58.875 365.2641Q59.359375 364.68597 59.359375 363.52972Q59.359375 362.27972 58.84375 361.65472Q58.34375 361.02972 57.640625 361.02972Q56.96875 361.02972 56.484375 361.62347Q56.0 362.2016 56.0 363.43597ZM66.375 366.56097L66.375 365.6391Q65.640625 366.7016 64.390625 366.7016Q63.84375 366.7016 63.359375 366.49847Q62.890625 366.27972 62.65625 365.96722Q62.421875 365.6391 62.328125 365.17035Q62.265625 364.87347 62.265625 364.18597L62.265625 360.34222L63.328125 360.34222L63.328125 363.79535Q63.328125 364.60785 63.390625 364.90472Q63.484375 365.31097 63.796875 365.56097Q64.125 365.79535 64.609375 365.79535Q65.078125 365.79535 65.484375 365.56097Q65.90625 365.31097 66.078125 364.8891Q66.265625 364.46722 66.265625 363.67035L66.265625 360.34222L67.3125 360.34222L67.3125 366.56097L66.375 366.56097ZM73.546875 364.56097L74.640625 364.68597Q74.390625 365.6391 73.6875 366.17035Q72.984375 366.7016 71.90625 366.7016Q70.546875 366.7016 69.734375 365.85785Q68.9375 365.0141 68.9375 363.49847Q68.9375 361.93597 69.75 361.0766Q70.5625 360.2016 71.84375 360.2016Q73.09375 360.2016 73.875 361.04535Q74.671875 361.8891 74.671875 363.43597Q74.671875 363.52972 74.671875 363.71722L70.03125 363.71722Q70.09375 364.74847 70.609375 365.29535Q71.125 365.8266 71.90625 365.8266Q72.484375 365.8266 72.890625 365.52972Q73.3125 365.21722 73.546875 364.56097ZM70.09375 362.85785L73.5625 362.85785Q73.5 362.06097 73.171875 361.67035Q72.65625 361.06097 71.859375 361.06097Q71.125 361.06097 70.625 361.54535Q70.140625 362.02972 70.09375 362.85785ZM76.28125 366.56097L76.28125 360.34222L77.234375 360.34222L77.234375 361.27972Q77.59375 360.62347 77.890625 360.42035Q78.203125 360.2016 78.578125 360.2016Q79.109375 360.2016 79.65625 360.52972L79.296875 361.5141Q78.90625 361.27972 78.53125 361.27972Q78.171875 361.27972 77.890625 361.49847Q77.625 361.7016 77.515625 362.0766Q77.328125 362.6391 77.328125 363.29535L77.328125 366.56097L76.28125 366.56097ZM84.359375 365.79535Q83.765625 366.29535 83.21875 366.49847Q82.6875 366.7016 82.0625 366.7016Q81.03125 366.7016 80.484375 366.2016Q79.9375 365.7016 79.9375 364.92035Q79.9375 364.46722 80.140625 364.09222Q80.34375 363.7016 80.6875 363.48285Q81.03125 363.24847 81.453125 363.1391Q81.75 363.04535 82.390625 362.96722Q83.65625 362.8266 84.265625 362.60785Q84.265625 362.3891 84.265625 362.34222Q84.265625 361.68597 83.96875 361.42035Q83.5625 361.0766 82.765625 361.0766Q82.03125 361.0766 81.671875 361.34222Q81.3125 361.59222 81.140625 362.24847L80.109375 362.10785Q80.25 361.4516 80.578125 361.04535Q80.90625 360.6391 81.515625 360.42035Q82.125 360.2016 82.921875 360.2016Q83.71875 360.2016 84.21875 360.3891Q84.71875 360.5766 84.953125 360.85785Q85.1875 361.1391 85.28125 361.5766Q85.328125 361.84222 85.328125 362.54535L85.328125 363.9516Q85.328125 365.42035 85.390625 365.81097Q85.46875 366.2016 85.671875 366.56097L84.5625 366.56097Q84.40625 366.23285 84.359375 365.79535ZM84.265625 363.43597Q83.6875 363.67035 82.546875 363.84222Q81.890625 363.93597 81.625 364.06097Q81.359375 364.17035 81.203125 364.3891Q81.0625 364.60785 81.0625 364.8891Q81.0625 365.31097 81.375 365.59222Q81.703125 365.87347 82.3125 365.87347Q82.921875 365.87347 83.390625 365.60785Q83.875 365.34222 84.09375 364.87347Q84.265625 364.5141 84.265625 363.8266L84.265625 363.43597Z" fill-rule="nonzero"/><path fill="#000000" d="M34.296875 395.78088L34.296875 387.1715L35.25 387.1715L35.25 387.96838Q35.59375 387.49963 36.015625 387.26526Q36.453125 387.03088 37.0625 387.03088Q37.859375 387.03088 38.46875 387.43713Q39.078125 387.84338 39.375 388.59338Q39.6875 389.34338 39.6875 390.234Q39.6875 391.18713 39.34375 391.95276Q39.015625 392.71838 38.359375 393.12463Q37.703125 393.53088 36.984375 393.53088Q36.453125 393.53088 36.03125 393.31213Q35.609375 393.07776 35.34375 392.74963L35.34375 395.78088L34.296875 395.78088ZM35.25 390.31213Q35.25 391.51526 35.734375 392.09338Q36.21875 392.65588 36.90625 392.65588Q37.609375 392.65588 38.109375 392.06213Q38.609375 391.46838 38.609375 390.21838Q38.609375 389.03088 38.125 388.45276Q37.640625 387.859 36.953125 387.859Q36.28125 387.859 35.765625 388.484Q35.25 389.109 35.25 390.31213ZM41.28125 393.39026L41.28125 387.1715L42.234375 387.1715L42.234375 388.109Q42.59375 387.45276 42.890625 387.24963Q43.203125 387.03088 43.578125 387.03088Q44.109375 387.03088 44.65625 387.359L44.296875 388.34338Q43.90625 388.109 43.53125 388.109Q43.171875 388.109 42.890625 388.32776Q42.625 388.53088 42.515625 388.90588Q42.328125 389.46838 42.328125 390.12463L42.328125 393.39026L41.28125 393.39026ZM44.90625 390.28088Q44.90625 388.5465 45.859375 387.71838Q46.65625 387.03088 47.8125 387.03088Q49.09375 387.03088 49.90625 387.87463Q50.734375 388.70276 50.734375 390.18713Q50.734375 391.39026 50.375 392.07776Q50.015625 392.76526 49.3125 393.15588Q48.625 393.53088 47.8125 393.53088Q46.515625 393.53088 45.703125 392.70276Q44.90625 391.859 44.90625 390.28088ZM45.984375 390.28088Q45.984375 391.46838 46.5 392.06213Q47.03125 392.65588 47.8125 392.65588Q48.609375 392.65588 49.125 392.06213Q49.640625 391.46838 49.640625 390.24963Q49.640625 389.09338 49.109375 388.49963Q48.59375 387.90588 47.8125 387.90588Q47.03125 387.90588 46.5 388.49963Q45.984375 389.07776 45.984375 390.28088ZM53.265625 393.39026L52.28125 393.39026L52.28125 384.7965L53.34375 384.7965L53.34375 387.859Q54.015625 387.03088 55.046875 387.03088Q55.625 387.03088 56.125 387.26526Q56.640625 387.484 56.96875 387.90588Q57.3125 388.32776 57.5 388.9215Q57.6875 389.51526 57.6875 390.18713Q57.6875 391.78088 56.890625 392.65588Q56.09375 393.53088 55.0 393.53088Q53.890625 393.53088 53.265625 392.609L53.265625 393.39026ZM53.25 390.234Q53.25 391.34338 53.5625 391.84338Q54.0625 392.65588 54.90625 392.65588Q55.59375 392.65588 56.09375 392.06213Q56.609375 391.46838 56.609375 390.26526Q56.609375 389.0465 56.125 388.46838Q55.640625 387.89026 54.953125 387.89026Q54.265625 387.89026 53.75 388.49963Q53.25 389.09338 53.25 390.234ZM59.265625 393.39026L59.265625 384.7965L60.328125 384.7965L60.328125 393.39026L59.265625 393.39026ZM66.546875 391.39026L67.640625 391.51526Q67.390625 392.46838 66.6875 392.99963Q65.984375 393.53088 64.90625 393.53088Q63.546875 393.53088 62.734375 392.68713Q61.9375 391.84338 61.9375 390.32776Q61.9375 388.76526 62.75 387.90588Q63.5625 387.03088 64.84375 387.03088Q66.09375 387.03088 66.875 387.87463Q67.671875 388.71838 67.671875 390.26526Q67.671875 390.359 67.671875 390.5465L63.03125 390.5465Q63.09375 391.57776 63.609375 392.12463Q64.125 392.65588 64.90625 392.65588Q65.484375 392.65588 65.890625 392.359Q66.3125 392.0465 66.546875 391.39026ZM63.09375 389.68713L66.5625 389.68713Q66.5 388.89026 66.171875 388.49963Q65.65625 387.89026 64.859375 387.89026Q64.125 387.89026 63.625 388.37463Q63.140625 388.859 63.09375 389.68713ZM69.296875 393.39026L69.296875 387.1715L70.234375 387.1715L70.234375 388.0465Q70.53125 387.57776 71.015625 387.31213Q71.5 387.03088 72.125 387.03088Q72.8125 387.03088 73.25 387.31213Q73.703125 387.59338 73.875 388.109Q74.625 387.03088 75.796875 387.03088Q76.734375 387.03088 77.21875 387.5465Q77.71875 388.0465 77.71875 389.12463L77.71875 393.39026L76.671875 393.39026L76.671875 389.46838Q76.671875 388.84338 76.5625 388.56213Q76.46875 388.28088 76.203125 388.109Q75.9375 387.93713 75.5625 387.93713Q74.90625 387.93713 74.46875 388.37463Q74.046875 388.81213 74.046875 389.78088L74.046875 393.39026L72.984375 393.39026L72.984375 389.34338Q72.984375 388.64026 72.71875 388.2965Q72.46875 387.93713 71.890625 387.93713Q71.4375 387.93713 71.0625 388.1715Q70.6875 388.40588 70.515625 388.859Q70.34375 389.31213 70.34375 390.15588L70.34375 393.39026L69.296875 393.39026ZM84.359375 392.62463Q83.765625 393.12463 83.21875 393.32776Q82.6875 393.53088 82.0625 393.53088Q81.03125 393.53088 80.484375 393.03088Q79.9375 392.53088 79.9375 391.74963Q79.9375 391.2965 80.140625 390.9215Q80.34375 390.53088 80.6875 390.31213Q81.03125 390.07776 81.453125 389.96838Q81.75 389.87463 82.390625 389.7965Q83.65625 389.65588 84.265625 389.43713Q84.265625 389.21838 84.265625 389.1715Q84.265625 388.51526 83.96875 388.24963Q83.5625 387.90588 82.765625 387.90588Q82.03125 387.90588 81.671875 388.1715Q81.3125 388.4215 81.140625 389.07776L80.109375 388.93713Q80.25 388.28088 80.578125 387.87463Q80.90625 387.46838 81.515625 387.24963Q82.125 387.03088 82.921875 387.03088Q83.71875 387.03088 84.21875 387.21838Q84.71875 387.40588 84.953125 387.68713Q85.1875 387.96838 85.28125 388.40588Q85.328125 388.6715 85.328125 389.37463L85.328125 390.78088Q85.328125 392.24963 85.390625 392.64026Q85.46875 393.03088 85.671875 393.39026L84.5625 393.39026Q84.40625 393.06213 84.359375 392.62463ZM84.265625 390.26526Q83.6875 390.49963 82.546875 390.6715Q81.890625 390.76526 81.625 390.89026Q81.359375 390.99963 81.203125 391.21838Q81.0625 391.43713 81.0625 391.71838Q81.0625 392.14026 81.375 392.4215Q81.703125 392.70276 82.3125 392.70276Q82.921875 392.70276 83.390625 392.43713Q83.875 392.1715 84.09375 391.70276Q84.265625 391.34338 84.265625 390.65588L84.265625 390.26526Z" fill-rule="nonzero"/><path fill="#000000" d="M89.5 420.26562Q89.5 418.73438 89.8125 417.8125Q90.125 416.875 90.734375 416.375Q91.359375 415.875 92.296875 415.875Q92.984375 415.875 93.5 416.15625Q94.03125 416.4375 94.375 416.96875Q94.71875 417.48438 94.90625 418.23438Q95.09375 418.98438 95.09375 420.26562Q95.09375 421.78125 94.78125 422.70312Q94.484375 423.625 93.859375 424.14062Q93.25 424.64062 92.296875 424.64062Q91.0625 424.64062 90.34375 423.75Q89.5 422.6875 89.5 420.26562ZM90.578125 420.26562Q90.578125 422.375 91.078125 423.07812Q91.578125 423.78125 92.296875 423.78125Q93.03125 423.78125 93.515625 423.07812Q94.015625 422.375 94.015625 420.26562Q94.015625 418.14062 93.515625 417.45312Q93.03125 416.75 92.28125 416.75Q91.5625 416.75 91.125 417.35938Q90.578125 418.14062 90.578125 420.26562Z" fill-rule="nonzero"/><path fill="#000000" d="M212.1 422.25L213.20938 422.15625Q213.33438 422.96875 213.77188 423.375Q214.225 423.78125 214.86563 423.78125Q215.61563 423.78125 216.14688 423.20312Q216.67813 422.625 216.67813 421.6875Q216.67813 420.78125 216.1625 420.26562Q215.6625 419.73438 214.83438 419.73438Q214.33438 419.73438 213.9125 419.96875Q213.50626 420.20312 213.27188 420.5625L212.2875 420.4375L213.11563 416.03125L217.39688 416.03125L217.39688 417.03125L213.95938 417.03125L213.50626 419.34375Q214.27188 418.79688 215.11563 418.79688Q216.24063 418.79688 217.00626 419.57812Q217.7875 420.35938 217.7875 421.59375Q217.7875 422.75 217.11563 423.60938Q216.2875 424.64062 214.86563 424.64062Q213.69376 424.64062 212.94376 423.98438Q212.20938 423.32812 212.1 422.25Z" fill-rule="nonzero"/><path fill="#000000" d="M335.16876 424.5L334.1219 424.5L334.1219 417.78125Q333.73126 418.14062 333.10626 418.51562Q332.4969 418.875 332.0125 419.04688L332.0125 418.03125Q332.8875 417.60938 333.54376 417.03125Q334.21564 416.4375 334.4969 415.875L335.16876 415.875L335.16876 424.5ZM338.2 420.26562Q338.2 418.73438 338.5125 417.8125Q338.825 416.875 339.4344 416.375Q340.0594 415.875 340.9969 415.875Q341.6844 415.875 342.2 416.15625Q342.73126 416.4375 343.075 416.96875Q343.41876 417.48438 343.60626 418.23438Q343.79376 418.98438 343.79376 420.26562Q343.79376 421.78125 343.48126 422.70312Q343.1844 423.625 342.5594 424.14062Q341.95 424.64062 340.9969 424.64062Q339.7625 424.64062 339.04376 423.75Q338.2 422.6875 338.2 420.26562ZM339.27814 420.26562Q339.27814 422.375 339.77814 423.07812Q340.27814 423.78125 340.9969 423.78125Q341.73126 423.78125 342.21564 423.07812Q342.71564 422.375 342.71564 420.26562Q342.71564 418.14062 342.21564 417.45312Q341.73126 416.75 340.98126 416.75Q340.2625 416.75 339.825 417.35938Q339.27814 418.14062 339.27814 420.26562Z" fill-rule="nonzero"/><path fill="#000000" d="M457.76874 424.5L456.72186 424.5L456.72186 417.78125Q456.33124 418.14062 455.70624 418.51562Q455.09686 418.875 454.6125 419.04688L454.6125 418.03125Q455.4875 417.60938 456.14374 417.03125Q456.8156 416.4375 457.09686 415.875L457.76874 415.875L457.76874 424.5ZM460.8 422.25L461.90936 422.15625Q462.03436 422.96875 462.47186 423.375Q462.925 423.78125 463.5656 423.78125Q464.3156 423.78125 464.84686 423.20312Q465.3781 422.625 465.3781 421.6875Q465.3781 420.78125 464.8625 420.26562Q464.3625 419.73438 463.53436 419.73438Q463.03436 419.73438 462.6125 419.96875Q462.20624 420.20312 461.97186 420.5625L460.9875 420.4375L461.8156 416.03125L466.09686 416.03125L466.09686 417.03125L462.65936 417.03125L462.20624 419.34375Q462.97186 418.79688 463.8156 418.79688Q464.9406 418.79688 465.70624 419.57812Q466.4875 420.35938 466.4875 421.59375Q466.4875 422.75 465.8156 423.60938Q464.9875 424.64062 463.5656 424.64062Q462.39374 424.64062 461.64374 423.98438Q460.90936 423.32812 460.8 422.25Z" fill-rule="nonzero"/><path fill="#000000" d="M581.9469 423.48438L581.9469 424.5L576.2594 424.5Q576.2594 424.125 576.3844 423.76562Q576.60315 423.1875 577.0719 422.625Q577.5563 422.0625 578.4625 421.32812Q579.8688 420.17188 580.35315 419.5Q580.85315 418.82812 580.85315 418.23438Q580.85315 417.60938 580.4 417.1875Q579.9469 416.75 579.22815 416.75Q578.4625 416.75 578.0094 417.20312Q577.5563 417.65625 577.54065 418.46875L576.4625 418.35938Q576.5719 417.14062 577.29065 416.51562Q578.025 415.875 579.2594 415.875Q580.4938 415.875 581.2125 416.5625Q581.9313 417.25 581.9313 418.26562Q581.9313 418.78125 581.7125 419.28125Q581.5094 419.76562 581.0094 420.32812Q580.525 420.875 579.4 421.82812Q578.4469 422.625 578.16565 422.92188Q577.9 423.20312 577.72815 423.48438L581.9469 423.48438ZM583.4 420.26562Q583.4 418.73438 583.7125 417.8125Q584.025 416.875 584.6344 416.375Q585.2594 415.875 586.1969 415.875Q586.8844 415.875 587.4 416.15625Q587.9313 416.4375 588.275 416.96875Q588.6188 417.48438 588.8063 418.23438Q588.9938 418.98438 588.9938 420.26562Q588.9938 421.78125 588.6813 422.70312Q588.3844 423.625 587.7594 424.14062Q587.15 424.64062 586.1969 424.64062Q584.9625 424.64062 584.2438 423.75Q583.4 422.6875 583.4 420.26562ZM584.47815 420.26562Q584.47815 422.375 584.97815 423.07812Q585.47815 423.78125 586.1969 423.78125Q586.9313 423.78125 587.41565 423.07812Q587.91565 422.375 587.91565 420.26562Q587.91565 418.14062 587.41565 417.45312Q586.9313 416.75 586.1813 416.75Q585.4625 416.75 585.025 417.35938Q584.47815 418.14062 584.47815 420.26562Z" fill-rule="nonzero"/><path fill="#000000" d="M704.5469 423.48438L704.5469 424.5L698.8594 424.5Q698.8594 424.125 698.9844 423.76562Q699.2031 423.1875 699.6719 422.625Q700.15625 422.0625 701.0625 421.32812Q702.46875 420.17188 702.9531 419.5Q703.4531 418.82812 703.4531 418.23438Q703.4531 417.60938 703.0 417.1875Q702.5469 416.75 701.8281 416.75Q701.0625 416.75 700.6094 417.20312Q700.15625 417.65625 700.1406 418.46875L699.0625 418.35938Q699.1719 417.14062 699.8906 416.51562Q700.625 415.875 701.8594 415.875Q703.09375 415.875 703.8125 416.5625Q704.53125 417.25 704.53125 418.26562Q704.53125 418.78125 704.3125 419.28125Q704.1094 419.76562 703.6094 420.32812Q703.125 420.875 702.0 421.82812Q701.0469 422.625 700.7656 422.92188Q700.5 423.20312 700.3281 423.48438L704.5469 423.48438ZM706.0 422.25L707.1094 422.15625Q707.2344 422.96875 707.6719 423.375Q708.125 423.78125 708.7656 423.78125Q709.5156 423.78125 710.0469 423.20312Q710.5781 422.625 710.5781 421.6875Q710.5781 420.78125 710.0625 420.26562Q709.5625 419.73438 708.7344 419.73438Q708.2344 419.73438 707.8125 419.96875Q707.40625 420.20312 707.1719 420.5625L706.1875 420.4375L707.0156 416.03125L711.2969 416.03125L711.2969 417.03125L707.8594 417.03125L707.40625 419.34375Q708.1719 418.79688 709.0156 418.79688Q710.1406 418.79688 710.90625 419.57812Q711.6875 420.35938 711.6875 421.59375Q711.6875 422.75 711.0156 423.60938Q710.1875 424.64062 708.7656 424.64062Q707.59375 424.64062 706.84375 423.98438Q706.1094 423.32812 706.0 422.25Z" fill-rule="nonzero"/></svg>